<?xml version="1.0" encoding="utf-8"?>
<!-- Generator: Adobe Illustrator 22.0.0, SVG Export Plug-In . SVG Version: 6.00 Build 0)  -->
<svg version="1.1" id="Слой_1" xmlns="http://www.w3.org/2000/svg" xmlns:xlink="http://www.w3.org/1999/xlink" x="0px" y="0px"
	 viewBox="0 0 500 500" style="enable-background:new 0 0 500 500;" xml:space="preserve">
<style type="text/css">
	.st0{fill:#616283;}
	.st1{fill:#FFE0E5;}
	.st2{fill:#7C483E;stroke:#EBFF6A;stroke-width:3;stroke-miterlimit:10;}
	.st3{fill:#CE003A;}
	.st4{fill:#DA918C;}
	.st5{fill:#A30038;}
	.st6{fill:#A3003A;}
	.st7{fill:#570028;}
	.st8{fill:#80003A;}
	.st9{fill:#A8CD3E;}
	.st10{fill:#558539;}
	.st11{fill:#7C9E3E;}
	.st12{display:none;}
	.st13{display:inline;fill:none;stroke:#EBFF6A;stroke-width:3;stroke-miterlimit:10;}
	.st14{opacity:0.5;}
	.st15{fill:#FF746A;}
	.st16{fill:#89C159;}
	.st17{fill:#A6E86D;}
</style>
<g>
	<path class="st0" d="M62.3,465.4c0,5,4.4,9,9.9,9s9.9,4,9.9,9s4.4,9,9.9,9c5.5,0,9.9-4,9.9-9s4.4-9,9.9-9c5.5,0,9.9,4,9.9,9
		s4.4,9,9.9,9s9.9-4,9.9-9s4.4-9,9.9-9s9.9,4,9.9,9s4.4,9,9.9,9c5.5,0,9.9-4,9.9-9s4.4-9,9.9-9c5.5,0,9.9,4,9.9,9s4.4,9,9.9,9
		c5.5,0,9.9-4,9.9-9s4.4-9,9.9-9c5.5,0,9.9,4,9.9,9s4.4,9,9.9,9s9.9-4,9.9-9s4.4-9,9.9-9c5.5,0,9.9,4,9.9,9s4.4,9,9.9,9s9.9-4,9.9-9
		s4.4-9,9.9-9c5.5,0,9.9,4,9.9,9s4.4,9,9.9,9s9.9-4,9.9-9s4.4-9,9.9-9s9.9,4,9.9,9s4.4,9,9.9,9c5.5,0,9.9-4,9.9-9s4.4-9,9.9-9
		s9.9,4,9.9,9s4.4,9,9.9,9c5.5,0,9.9-4,9.9-9l0,0.3c0-5,4.4-9,9.9-9s9.9-4,9.9-9s-4.4-9-9.9-9s-9.9-4-9.9-9s4.4-9,9.9-9s9.9-4,9.9-9
		c0-5-4.4-9-9.9-9s-9.9-4-9.9-9c0-5,4.4-9,9.9-9s9.9-4,9.9-9s-4.4-9-9.9-9s-9.9-4-9.9-9s4.4-9,9.9-9s9.9-4,9.9-9c0-5-4.4-9-9.9-9
		s-9.9-4-9.9-9s4.4-9,9.9-9s9.9-4,9.9-9s-4.4-9-9.9-9s-9.9-4-9.9-9c0-5,4.4-9,9.9-9s9.9-4,9.9-9s-4.4-9-9.9-9s-9.9-4-9.9-9
		s4.4-9,9.9-9s9.9-4,9.9-9c0-5-4.4-9-9.9-9s-9.9-4-9.9-9c0-5,4.4-9,9.9-9s9.9-4,9.9-9c0-5-4.4-9-9.9-9s-9.9-4-9.9-9c0-5,4.4-9,9.9-9
		s9.9-4,9.9-9s-4.4-9-9.9-9s-9.9-4-9.9-9c0-5,4.4-9,9.9-9s9.9-4,9.9-9c0-5-4.4-9-9.9-9s-9.9-4-9.9-9c0-5,4.4-9,9.9-9s9.9-4,9.9-9
		s-4.4-9-9.9-9s-9.9-4-9.9-9s4.4-9,9.9-9s9.9-4,9.9-9s-4.4-9-9.9-9s-9.9-4-9.9-9s4.4-9,9.9-9s9.9-4,9.9-9s-4.4-9-9.9-9h0
		c-5.5,0-9.9-4-9.9-9s-4.4-9-9.9-9c-5.5,0-9.9,4-9.9,9s-4.4,9-9.9,9s-9.9-4-9.9-9s-4.4-9-9.9-9c-5.5,0-9.9,4-9.9,9s-4.4,9-9.9,9
		s-9.9-4-9.9-9s-4.4-9-9.9-9s-9.9,4-9.9,9s-4.4,9-9.9,9c-5.5,0-9.9-4-9.9-9s-4.4-9-9.9-9s-9.9,4-9.9,9s-4.4,9-9.9,9
		c-5.5,0-9.9-4-9.9-9s-4.4-9-9.9-9s-9.9,4-9.9,9s-4.4,9-9.9,9c-5.5,0-9.9-4-9.9-9s-4.4-9-9.9-9c-5.5,0-9.9,4-9.9,9s-4.4,9-9.9,9
		c-5.5,0-9.9-4-9.9-9s-4.4-9-9.9-9c-5.5,0-9.9,4-9.9,9s-4.4,9-9.9,9s-9.9-4-9.9-9s-4.4-9-9.9-9s-9.9,4-9.9,9s-4.4,9-9.9,9
		c-5.5,0-9.9-4-9.9-9s-4.4-9-9.9-9c-5.5,0-9.9,4-9.9,9h0c0,5-4.4,9-9.9,9c-5.5,0-9.9,4-9.9,9s4.4,9,9.9,9c5.5,0,9.9,4,9.9,9
		s-4.4,9-9.9,9c-5.5,0-9.9,4-9.9,9s4.4,9,9.9,9c5.5,0,9.9,4,9.9,9s-4.4,9-9.9,9c-5.5,0-9.9,4-9.9,9s4.4,9,9.9,9c5.5,0,9.9,4,9.9,9
		c0,5-4.4,9-9.9,9c-5.5,0-9.9,4-9.9,9c0,5,4.4,9,9.9,9c5.5,0,9.9,4,9.9,9c0,5-4.4,9-9.9,9c-5.5,0-9.9,4-9.9,9s4.4,9,9.9,9
		c5.5,0,9.9,4,9.9,9c0,5-4.4,9-9.9,9c-5.5,0-9.9,4-9.9,9c0,5,4.4,9,9.9,9c5.5,0,9.9,4,9.9,9c0,5-4.4,9-9.9,9c-5.5,0-9.9,4-9.9,9
		c0,5,4.4,9,9.9,9c5.5,0,9.9,4,9.9,9s-4.4,9-9.9,9c-5.5,0-9.9,4-9.9,9s4.4,9,9.9,9c5.5,0,9.9,4,9.9,9c0,5-4.4,9-9.9,9
		c-5.5,0-9.9,4-9.9,9s4.4,9,9.9,9c5.5,0,9.9,4,9.9,9s-4.4,9-9.9,9c-5.5,0-9.9,4-9.9,9c0,5,4.4,9,9.9,9c5.5,0,9.9,4,9.9,9
		s-4.4,9-9.9,9c-5.5,0-9.9,4-9.9,9s4.4,9,9.9,9c5.5,0,9.9,4,9.9,9c0,5-4.4,9-9.9,9c-5.5,0-9.9,4-9.9,9c0,5,4.4,9,9.9,9
		c5.5,0,9.9,4,9.9,9s-4.4,9-9.9,9c-5.5,0-9.9,4-9.9,9"/>
	<path class="st1" d="M393.1,457.2H110.7c-4.3,0-7.7-3.5-7.7-7.7v-398c0-4.3,3.5-7.7,7.7-7.7h282.4c4.3,0,7.7,3.5,7.7,7.7v398
		C400.9,453.7,397.4,457.2,393.1,457.2z"/>
	<g>
		<g>
			<path class="st2" d="M245.2,278.5c9,5.7,13.3,15.7,22.6,22c12.3,8.4,23,17.1,34.6,25.9c10.5,8,21.4,15.6,31.8,23.6
				c7.7,5.9,21,10.4,30,16.2c1.3,0.9,0.3,2.9-1.2,2.4c-5.6-1.8-12.4-3.7-15-4.8c-9-3.9-15.5-8.4-22.7-13.9
				c-12-9-25.6-17.1-36.9-26.6c-10-8.4-21.5-15-31.7-23.1c-4.8-3.8-10.7-9-13.3-13.9c-0.2-0.3-6.6-11.8-1-10
				C243.5,277,244.4,277.7,245.2,278.5z"/>
			<path class="st2" d="M238.3,278.2c-5-11-15.4-17.4-21.1-28.7c-7.5-15.1-15.6-28.5-23.7-42.9c-7.3-13-14.2-26.4-21.5-39.3
				c-7.2-12.6-10.2-35.9-19.3-45.1c2.5,2.5,4.5,22.1,6,27.4c3.1,10.7,7.1,18.7,12,27.7c8.3,14.9,15.2,31.4,24.1,45.5
				c7.9,12.5,13.5,26.4,21,39.1c3.5,5.9,8.4,13.4,13.4,17c0.3,0.2,12.1,9.2,10.9,2.6C239.7,280.3,239,279.2,238.3,278.2z"/>
			<path class="st3" d="M279.2,366.6c-5.5,16.4-17.6,28.4-32.5,35.7c-9.3,4.5-19.6,7.3-30.2,8.2c-12.9,1.1-26.1-0.5-37.9-4.9
				c-9.5-3.6-17.4-9-23.6-15.7c-20.5-21.9-23.8-57.4-10.6-85.4c15.8-33.8,54.8-46.3,87.5-33.7c3.7,1.4,7.4,3.2,10.9,5.3
				C273.4,294.4,290.8,331.9,279.2,366.6z"/>
			<path class="st4" d="M203.9,278c-0.1,0-0.1,0-0.2,0.1c-3.1,1.1-6.1,2.4-9,3.9c-17.1,9.2-29.3,26.2-32.1,44.6
				c-0.4,3-2.4,5.5-5.1,6.7c-0.1,0-0.1,0-0.2,0.1c-6.2,2.6-13-2.5-12-9.1c2.8-18.4,15-35.3,32.1-44.5c2.9-1.6,5.9-2.9,9-4
				c5.5-1.9,11.2-3.1,16.8-3.5C206.7,272,207.3,276.9,203.9,278z"/>
			<path class="st5" d="M169.7,380.1c2.8-3.6,7.8-5.6,13.5-6.3c5.9,0.2,12.1,1.7,17.1,4.3c12.6,6.4,13.8,18.4,6.4,25.6
				c-5.7,5.5-16,6.5-25.2,3.6c-1.3-0.6-2.5-1.4-3.6-2.1C168,398.3,163.7,387.7,169.7,380.1z"/>
			<path class="st6" d="M275.8,364.1c-5.8,16-18.4,27.6-33.9,34.7c-0.1,0.1-0.2,0.1-0.4,0.1c-0.1,0-0.3,0.1-0.4,0.1
				c-1.5,0.3-2.7-1.1-2.1-2.5l0,0c0.1-0.1,0.1-0.3,0.1-0.4c3.1-16.1,0.7-32.4-9.4-45.7c-1.8-2.4-3.8-4.7-6-6.8
				c-6.8-6.7-9.4-16.6-6.7-25.7c1.2-4.1,1.9-8.4,2.1-13c0.3-8.3-0.9-16.8-3.6-24.9c-1.6-5,2.3-10,7.5-9.6c1,0.1,1.9,0.2,2.9,0.3
				c0.2,0,0.3,0.1,0.4,0.1c3.8,1.4,7.6,3.1,11.2,5.1C269.7,293.7,288,330.4,275.8,364.1z"/>
			<path class="st7" d="M182.3,430.7c-6.1-7.5-1.5-6-8.6-7.3c-4.9-0.9-5.9,2.4-12.4,2.9c-2.7,0.2-6,2.4-6,2.4
				c11.1-15.2,11.1-34,23.3-34.1c6.5,0,8.6,10.8,12,25.1c1.1,4.8-0.2,12.8,0.5,18.4C188.2,438.2,186.1,435.3,182.3,430.7z"/>
			<path class="st8" d="M200,433.9c-8.4-5.4-13.2-10.5-14.2-15.3c-0.1,0.1-0.1,0.1-0.1,0.2c-5.8,8.9-3.5,4.8-15.5,18.3
				c0.2-7.6-5.1-11.1-1.5-24.3c-4.9,3.3-9.2,3.4-19.3,2.8c7.6-5.9,14.8-14.3,20.9-20.8c4.9-5.3,9.1-9.5,12.1-10.3
				c6.3-1.8,9.9-0.5,13.1,3.7c1.7,2.2,1.4,6.8,1.2,13.5c0,0.6,0,1.3,0,1.9C196.6,411.3,196.8,421.4,200,433.9z"/>
			<g>
				<path class="st9" d="M384.9,347.6c-3.7,18.3-38.5,8.2-44.9,6.1c-5.5-1.8-20.6-7.1-20.6-10.4c-0.1-4.5,18.5-9,23.7-9.8
					C351.2,332.4,388.4,330.6,384.9,347.6z"/>
				<path class="st10" d="M288.3,358.4c-14.8,6.3-21-24.2-22.1-29.8c-0.9-4.9-2.9-18.5-0.6-20.2c3.2-2.2,15.3,6.5,17.3,10.3
					C285.2,323.1,301.9,352.5,288.3,358.4z"/>
				<path class="st10" d="M192.1,305.4c-25.5-2.6-16.3-51.4-14.4-60.4c1.7-7.8,6.9-29,11.4-29.5c6.1-0.7,18.5,21.4,19.1,28.6
					C208.9,252.1,215.8,307.8,192.1,305.4z"/>
				<path class="st11" d="M339.2,310.2c-6.5,23.1-48.8,3.3-56.5-0.5c-6.7-3.4-24.8-13.1-24.5-17.4c0.4-5.8,31.7-5.4,38.2-4.3
					C303.8,289.2,345.3,288.7,339.2,310.2z"/>
				<path class="st9" d="M369.8,398.8c-0.8,1.3-1.7,2-2.7,2.2c-6.4,1.1-17.2-18.7-19-21.8c-1.9-3.2-4.9-17.1-3.1-19
					c0.2-0.3,0.7-0.2,1.3,0c2.6,1,7.9,6,10,8.1C359.5,371.3,375.8,388.3,369.8,398.8z"/>
				<path class="st9" d="M296.3,257c-3.5,23.8-47.9,9.7-56,6.9c-7.1-2.5-26.3-9.7-26.6-14l0-0.5c0.9-5.7,23.3-11.5,29.7-12.1
					C260,235.7,299.5,234.9,296.3,257z"/>
				<path class="st10" d="M161.7,217.2c-24.7-26.9-30.5-65.3-28.5-100c-0.2-15.5,7.3-26.9,16.2-27.3c5.7-0.3,11.9,4,17,14.4
					C172.2,115.9,182.3,191.5,161.7,217.2z"/>
				<path class="st11" d="M255,223c-2.2,4.6-7.6,7.8-16.5,7.2c-9-0.6-54.7-22.5-59.1-46.1c26.2-6.4,49.7,4.3,67.6,18.9
					C255.1,208.4,257.9,217,255,223z"/>
				<path class="st11" d="M250.5,328.8c0.4,8.7-4.4,15.2-10.5,16c-4.3,0.6-9.1-1.6-13.2-8c-4.2-6.7-12.5-50.4,1.9-65.7
					C246.9,286.4,251.5,308.6,250.5,328.8z"/>
				<path class="st10" d="M316.6,385L316.6,385c-2.8,0.6-6.2-0.8-9.3-5.2c-3.2-4.6-10.6-35.8-1.6-47.4
					c12.8,10.3,16.9,26.1,17.1,40.7C323.5,379.3,320.6,384.1,316.6,385z"/>
				<path class="st9" d="M255,223c-11.6-17.7-75.6-38.8-75.6-38.8c26.2-6.4,49.7,4.3,67.6,18.9C255.1,208.4,257.9,217,255,223z"/>
				<path class="st9" d="M339.2,310.2c-20.1-13.3-81-17.9-81-17.9c0.4-5.8,31.7-5.4,38.2-4.3C303.8,289.2,345.3,288.7,339.2,310.2z"
					/>
				<path class="st9" d="M250.5,328.8c0.4,8.7-4.4,15.2-10.5,16c-4.9-18.8-11.3-73.7-11.3-73.7C246.9,286.4,251.5,308.6,250.5,328.8
					z"/>
				<path class="st11" d="M161.7,217.2c-24.7-26.9-30.5-65.3-28.5-100c-0.2-15.5,7.3-26.9,16.2-27.3
					C149.8,92.7,147.8,177.4,161.7,217.2z"/>
				<path class="st11" d="M192.1,305.4c0,0-1.5-73.8-3-89.9c6.1-0.7,18.5,21.4,19.1,28.6C208.9,252.1,215.8,307.8,192.1,305.4z"/>
				<path class="st11" d="M316.6,385c-1.3-16.2-10.9-52.7-10.9-52.7c12.8,10.3,16.9,26.1,17.1,40.7
					C323.5,379.3,320.6,384.1,316.6,385z"/>
				<path class="st11" d="M288.3,358.4c-0.9-12.2-22.6-50-22.6-50c3.2-2.2,15.3,6.5,17.3,10.3C285.2,323.1,301.9,352.5,288.3,358.4z
					"/>
				<path class="st11" d="M296.3,257c-21.2-13.7-75.1-1-82.7-7.2l0-0.5c0.9-5.7,23.3-11.5,29.7-12.1
					C260,235.7,299.5,234.9,296.3,257z"/>
				<path class="st11" d="M314.5,270.9c0.1,0.3-0.2,0.3-0.2,0.3L314.5,270.9z"/>
				<path class="st11" d="M384.9,347.6c-5.3-4.3-65.5-4.2-65.5-4.2c-0.1-4.5,18.5-9,23.7-9.8C351.2,332.4,388.4,330.6,384.9,347.6z"
					/>
				<path class="st11" d="M369.8,398.8c-0.8,1.3-1.7,2-2.7,2.2c-1.6-10.6-22-40.9-22-40.9h1.3c2.6,1,7.9,6,10,8.1
					C359.5,371.3,375.8,388.3,369.8,398.8z"/>
				<g class="st12">
					<path class="st13" d="M384.9,347.6c-3.7,18.3-38.5,8.2-44.9,6.1c-5.5-1.8-20.6-7.1-20.6-10.4c-0.1-4.5,18.5-9,23.7-9.8
						C351.2,332.4,388.4,330.6,384.9,347.6z"/>
					<path class="st13" d="M288.3,358.4c-14.8,6.3-21-24.2-22.1-29.8c-0.9-4.9-2.9-18.5-0.6-20.2c3.2-2.2,15.3,6.5,17.3,10.3
						C285.2,323.1,301.9,352.5,288.3,358.4z"/>
					<path class="st13" d="M192.1,305.4c-25.5-2.6-16.3-51.4-14.4-60.4c1.7-7.8,6.9-29,11.4-29.5c6.1-0.7,18.5,21.4,19.1,28.6
						C208.9,252.1,215.8,307.8,192.1,305.4z"/>
					<path class="st13" d="M339.2,310.2c-6.5,23.1-48.8,3.3-56.5-0.5c-6.7-3.4-24.8-13.1-24.5-17.4c0.4-5.8,31.7-5.4,38.2-4.3
						C303.8,289.2,345.3,288.7,339.2,310.2z"/>
					<path class="st13" d="M369.8,398.8c-0.8,1.3-1.7,2-2.7,2.2c-6.4,1.1-17.2-18.7-19-21.8c-1.9-3.2-4.9-17.1-3.1-19
						c0.2-0.3,0.7-0.2,1.3,0c2.6,1,7.9,6,10,8.1C359.5,371.3,375.8,388.3,369.8,398.8z"/>
					<path class="st13" d="M296.3,257c-3.5,23.8-47.9,9.7-56,6.9c-7.1-2.5-26.3-9.7-26.6-14l0-0.5c0.9-5.7,23.3-11.5,29.7-12.1
						C260,235.7,299.5,234.9,296.3,257z"/>
					<path class="st13" d="M161.7,217.2c-24.7-26.9-30.5-65.3-28.5-100c-0.2-15.5,7.3-26.9,16.2-27.3c5.7-0.3,11.9,4,17,14.4
						C172.2,115.9,182.3,191.5,161.7,217.2z"/>
					<path class="st13" d="M255,223c-2.2,4.6-7.6,7.8-16.5,7.2c-9-0.6-54.7-22.5-59.1-46.1c26.2-6.4,49.7,4.3,67.6,18.9
						C255.1,208.4,257.9,217,255,223z"/>
					<path class="st13" d="M250.5,328.8c0.4,8.7-4.4,15.2-10.5,16c-4.3,0.6-9.1-1.6-13.2-8c-4.2-6.7-12.5-50.4,1.9-65.7
						C246.9,286.4,251.5,308.6,250.5,328.8z"/>
					<path class="st13" d="M316.6,385L316.6,385c-2.8,0.6-6.2-0.8-9.3-5.2c-3.2-4.6-10.6-35.8-1.6-47.4
						c12.8,10.3,16.9,26.1,17.1,40.7C323.5,379.3,320.6,384.1,316.6,385z"/>
				</g>
			</g>
			<g class="st14">
				<path class="st7" d="M196.7,403.6c0,0.3-0.1,6.6-0.4,4.8c-3.4-7.1-5.7-11.5-10.4-13.1c-7.4-2.6-6.7-1.8-12-0.7
					c-4.2,0.9-5.2,4.1-7.6,4.5c4.9-5.3,13.1-13.8,16.1-14.7c6.3-1.8,9.9-0.5,13.1,3.7C197.3,390.6,196.8,395.8,196.7,403.6z"/>
				<path class="st7" d="M200,433.9c-8.4-5.4-13.2-10.5-14.2-15.3c-0.1,0.1-0.1,0.1-0.1,0.2l0-0.1c2-2.9,2.6-6.5,2.9-10.1
					c0.2-3.1,0.2-6.3-0.6-9.4c-0.8-3-2.5-5.9-5-7.8c3.1-0.6,6.8-1,9.2,1.1c2.1,1.8,2.6,4.9,3.7,7.5c0.2,0.6,0.5,1.1,0.8,1.6
					c0,0.6,0,1.3,0,1.9C196.6,411.3,196.8,421.4,200,433.9z"/>
			</g>
		</g>
		<g>
			<path class="st15" d="M211,80.5c1.8,0,4.5,20.4,9.8,20.1c7.9-0.4-5.9-27.7-9.4-27.7c-7.7,0-20,30-12.7,30
				C202.3,102.9,206.5,80.6,211,80.5z"/>
			<path class="st15" d="M232.2,85.3c-1.2-0.1-8.6,0.7-8.7-3c-0.1-3.8,9.5-1.2,9.6-3.6c0.2-4.4-0.1-9.9,4-9.9
				c2.3,0,4.1,32.6-1.5,32.5C232.4,101.2,235,85.5,232.2,85.3z"/>
			<path class="st15" d="M236.2,104.9c4.5,0.7,5,15.5,2,17.3c-3.8,2.3-4-4.9-3.9-5.7c0.4-3.9-0.8-6.7-1.8-6.7
				c-4.5-0.3-31.8,2.5-31.8-1.8C200.7,103.1,232.6,104.4,236.2,104.9z"/>
			<path class="st15" d="M248.1,75.2c0-3,30.8-4.4,30.9-1.1c0,1.4,0.2,1.4,0.1,2.4c-0.4,4.1-22.2,14-21.5,14.7
				c1.8,1.8,22.4-2.2,22.8,2.8c0.4,4.4-21.1,3.1-28.2,2.8c-2.4-0.1-2.1-2.4-2-5.6c0.2-5.9,21.5-12.3,19.1-13.2
				C266.8,77.1,248.1,80.2,248.1,75.2z"/>
			<path class="st15" d="M249.4,104.3c7.2-0.7,32.5-1.2,32.5,2c0,2.4-3.1,1.7-7,2.2c-2,0.2,1.2,12.4-1.8,12.6
				c-3.2,0.2-1.2-12.6-3.6-12.4c-0.7,0.1-8.4,0-8.9,0.1c-1.8,0.5,0.3,12.7-3.6,12.5c-1.9-0.1,1-12.6-2.8-12.6c-4.3,0-0.7,0.1-4-0.1
				C246.9,108.5,248.3,104.4,249.4,104.3z"/>
			<path class="st15" d="M301.1,71.6c-3.1,0-1.2,15.9-0.2,28.2c0.3,3.4,10.4,1.4,17.5,1.4c10,0,8.5-5.4,0.9-5.4
				c-1,0-9.9-0.1-11.1,0.1C303.3,96.5,307.7,71.6,301.1,71.6z"/>
			<path class="st15" d="M329.6,71.6c-1.9,0-0.4,47.6,3.4,47.6c4.2,0-0.8-23.7,1.8-23.8c1.7-0.1,4.8,0.5,4.8-3.2
				c0-2.4-5.9-0.9-6.1-3.6C332.8,80.8,332.3,71.5,329.6,71.6z"/>
			<path class="st15" d="M373.9,90.6c1.1-4,0.5-8.7,0-13.3c-0.5-4.9-29-4-29.7-1.5c-0.6,2.1-0.2,11.1,0.1,14
				C344.7,94.2,373.2,93,373.9,90.6z M369.1,80c0.2,3.5,0.7,8.2-2.6,8.3c-3.8,0.1-12,0.3-15.3-0.3c-2.1-0.4-1.7-5.8-1.5-8.5
				C349.9,76.6,368.8,77.1,369.1,80z"/>
			<path class="st15" d="M376.5,99.3c-0.5-3.4-32.5-4.7-32.5-1c0,7.4,13.7-3.5,13.2,12.8c-0.2,6.2,3,6.1,4.1,5.6
				c2.3-1.1-1.3-11.6,1.2-13.6C366.5,99.8,377,103.2,376.5,99.3z"/>
		</g>
		<g>
			<g>
				<g>
					<path class="st15" d="M371.1,162.9c-0.6-0.7-4-1.3-4.8-1.3c-6.6-0.1-7-0.5-12.9-0.5c0-1.3-0.1-2.7-0.2-3.4c0-0.3,0-0.7,0.2-1
						c0.2-0.2,0.5-0.2,0.7-0.1c2.5,0.3,5,1,7.5,1.4c2.5,0.4,5.2,0.5,7.5-0.5c0.2-0.1,0.4-0.2,0.5-0.3c0.2-0.2,0.2-0.5,0.2-0.8
						c0.2-4.5,0.2-9-0.1-13.5c-0.1-1.4-0.3-3-1.4-3.7c-0.7-0.5-1.6-0.5-2.4-0.4c-0.2,0-0.4,0.1-0.5,0.2c-0.3,0.2-0.3,0.7-0.2,1.1
						c0.1,0.9,0.1,1.7,0.2,2.6c-0.3,0-0.5,0-0.8,0c-2.7-0.1-5.5-0.1-8.2-0.1c-4.8,0-9.5,0.1-14.3-0.2c-0.4,0-0.8,0-1.2,0
						c-0.1-0.9-0.2-1.8-0.5-2.6c-0.4-1.1-1.1-2-2.1-2.4c-0.6-0.2-1.2-0.2-1.7-0.1c-0.6,0-1.2,0.1-1.6,0.6c-0.5,0.6-0.4,1.4-0.3,2.2
						c0.4,3.9-0.2,7.9-0.2,11.8c0,1,0,2,0.2,3c0.1,0.3,0.1,0.5,0.3,0.7c0.2,0.2,0.5,0.2,0.7,0.2c4.4,0.1,8.9,0.2,13.3,0.4
						c0.2,0,0.4,0,0.6,0.2c0.1,0.2,0.1,0.4,0.1,0.6c-0.1,0.9-0.2,2.6,0,4.1c-3.9-0.2-9.4-0.8-12.3-1.2c-0.8-0.1-2.5-0.7-3.2,0.2
						c-0.8,1-0.1,3,0.7,3.6c0.5,0.4,1.2,0.5,1.8,0.6c10.8,1.6,21.8,2.3,32.7,2.1c0.6,0,1.3-0.1,1.7-0.6
						C371.9,164.9,371.7,163.6,371.1,162.9z M343,152.3c-0.5,0-1.1-0.1-1.4-0.6c-0.1-0.3-0.2-0.6-0.2-0.9c-0.1-1.5-0.2-3-0.3-4.6h0
						c1.7,0.1,3.4,0.2,5.1,0.4c6.2,0.4,12.4,0.9,18.6,0.8c0.3,0,0.7,0,1,0c0.1,1.3,0.2,2.6,0.1,3.9c0,0.5-0.1,1-0.4,1.3
						c-0.5,0.7-1.4,0.7-2.2,0.7C356.6,153,349.8,152.6,343,152.3z"/>
					<path class="st15" d="M338.4,172c0,0.6,0.1,1.2,0.4,1.6c0.4,0.7,1.1,1,1.9,1.2c1.8,0.5,3.6,0.6,5.4,0.8c6.6,0.5,13.3,1,19.9,1
						c1.2,0,2.7-0.3,3-1.6c0.2-0.9-0.4-1.9-1.2-2.3s-1.7-0.4-2.5-0.3c-7.1,0.2-14.1,0.1-21.2-0.4c-0.3,0-0.7,0-1-0.2
						c-0.3-0.2-0.6-0.6-0.7-1c-0.6-1.8-0.4-4.5-2.8-4.4C337.2,166.4,338.3,170.3,338.4,172z"/>
				</g>
			</g>
			<path class="st15" d="M280.7,154.6c-4.8-2.4,10.5-17.7,14.7-13.5c4.1,4.2,0.7,22.3,2.4,26.9c0.8,2.2,8.4-0.1,8.4,4.2
				c0,3.6-27.1,4.5-27-0.4c0-3.1,12.5-0.6,12.9-3.7c1.2-8.8,1-19.7-0.1-20.7C289.8,145.7,283.3,155.9,280.7,154.6z"/>
			<path class="st15" d="M327.8,147.8c-0.5-2.2-1.4-4.6-3.4-5.9c-1.4-0.9-3.2-1.2-5-1.4c-2-0.3-4.4-0.3-5.7,1.1
				c-0.6,0.6-0.9,1.4-1.2,2.2c-2,5.7-4.1,11.5-3.8,17.5c0.1,2.5,0.6,5,1.9,7.1c2.4,4.2,8,7.1,13,4.7c1.6-0.8,2.8-2.3,3.4-3.9
				c0.6-1.6,0.8-3.3,1-5C328.6,158.7,329,153.2,327.8,147.8z M323.2,161.6c-0.1,1.1-0.2,2.2-0.5,3.2c-0.3,1-0.8,2-1.6,2.5
				c-2.4,1.5-5.1-0.3-6.2-3c-0.6-1.4-0.8-3-0.9-4.5c-0.1-3.8,0.8-7.5,1.8-11.1c0.1-0.5,0.3-1,0.6-1.4c0.7-0.9,1.8-0.8,2.7-0.7
				c0.8,0.1,1.7,0.3,2.4,0.9c1,0.8,1.4,2.3,1.6,3.7C323.6,154.6,323.4,158.1,323.2,161.6z"/>
		</g>
		<g>
			<g>
				<path class="st16" d="M239.6,444.5c-1.2-0.2-2.5-0.6-3.7-1.1c-1.2-0.5-2.4-1.2-3.4-2.2c-0.5-0.5-1-1.2-1.3-1.9
					c-0.3-0.7-0.5-1.6-0.5-2.4c0-1.7,0.6-3.1,1.3-4.4c1.5-2.5,3.4-4.3,5.4-6c2-1.6,4.1-3.1,6.3-4.4c4.3-2.6,8.9-4.8,13.4-6.7
					c2.3-0.9,4.6-1.8,6.9-2.7c1.2-0.4,2.3-0.8,3.5-1.3c0.6-0.2,1.2-0.4,1.7-0.7c0.6-0.2,1.1-0.5,1.6-0.9c-0.2,0.6-0.7,1.1-1.1,1.6
					c-0.5,0.4-1,0.8-1.4,1.3c-1,0.8-2,1.5-3,2.2c-2.1,1.4-4.2,2.7-6.3,4l-12.6,7.4c-2.1,1.2-4.1,2.5-6,3.9c-1.9,1.4-3.7,2.8-5.1,4.4
					c-1.3,1.6-1.9,3.2-0.9,5c0.5,0.9,1.3,1.8,2.2,2.6C237.6,443.1,238.6,443.8,239.6,444.5z"/>
			</g>
			<g>
				<path class="st17" d="M294,370.3c-1.7,2.4-2.7,5-3.2,7.7c-0.5,2.7-0.7,5.5-0.7,8.3c0,5.6,0.4,11.3,0.3,17.2
					c-0.1,2.9-0.2,5.9-0.7,8.9c-0.5,3-1.2,6-2.5,8.8c-1.3,2.8-3.2,5.5-5.7,7.3c-2.5,1.9-5.4,3-8.3,3.4c2.6-1.4,4.9-3.1,6.6-5.2
					c1.7-2.1,2.9-4.4,3.7-7c1.6-5.1,1.7-10.7,1.8-16.3c0.1-5.7,0-11.5,0.8-17.4c0.4-2.9,1-5.9,2.2-8.7
					C289.7,374.5,291.5,371.9,294,370.3z"/>
			</g>
			<g>
				<path class="st16" d="M258.6,431.4c-0.8,1.9-1.2,3.8-1,5.7c0.1,0.9,0.4,1.8,0.9,2.5c0.5,0.7,1.1,1.4,1.8,1.9
					c1.4,1.1,3.1,1.9,4.9,2.4c1.8,0.5,3.7,0.8,5.5,1c3.8,0.2,7.6-0.1,11.2-1c3.6-0.9,7-2.5,9.4-4.8c0.3-0.3,0.5-0.6,0.8-0.9
					c0.3-0.4,0.6-0.7,0.9-1.1c0.6-0.7,1.1-1.5,1.6-2.3c1-1.6,2-3.2,2.8-4.9c1.7-3.4,2.7-7.1,3.8-10.9c0.5-1.9,1-3.9,1.7-5.9
					c0.7-2,1.5-4,2.7-5.8c1.3-1.8,3-3.3,5-4.1c1.9-0.9,4-1.3,6-1.4c-1.9,0.7-3.7,1.5-5.3,2.6c-1.5,1.1-2.7,2.6-3.5,4.2
					c-0.8,1.6-1.3,3.5-1.7,5.4c-0.4,1.9-0.7,3.9-1,5.9c-0.6,4-1.6,8.1-3.3,12c-0.9,1.9-1.8,3.9-3,5.6c-0.6,0.9-1.2,1.8-1.8,2.6
					c-0.3,0.4-0.7,0.8-1,1.2c-0.3,0.4-0.8,0.9-1.2,1.3c-1.7,1.6-3.6,2.9-5.6,3.8c-2,0.9-4.1,1.6-6.2,2c-4.2,0.9-8.5,0.9-12.7,0.2
					c-2.1-0.4-4.2-0.9-6.2-1.7c-2-0.9-3.9-2-5.4-3.6c-0.8-0.8-1.4-1.8-1.8-2.8c-0.4-1.1-0.6-2.2-0.5-3.3
					C256.4,434.9,257.4,433,258.6,431.4z"/>
			</g>
			<g>
				<path class="st17" d="M338.1,372c-1.7,3.7-1.4,7.3-0.8,10.9c0.6,3.6,1.8,7.1,3,10.6c1.2,3.5,2.6,7.1,3.9,10.7
					c1.3,3.6,2.7,7.2,3.9,11c-3-2.7-5.3-5.9-7.4-9.3c-2.1-3.4-3.8-7-5.1-10.8c-1.3-3.8-2.2-7.8-2.1-12c0-2.1,0.3-4.2,1.1-6.2
					C335.2,374.9,336.4,373.1,338.1,372z"/>
			</g>
			<g>
				<path class="st16" d="M326.6,412.9c0.4,0.6,0.7,1.2,1,1.9c0.3,0.6,0.6,1.3,1,1.8c0.7,1.2,1.4,2.4,2.2,3.4
					c0.7,1.1,1.6,2.1,2.5,3.1l1.4,1.3c0.4,0.4,1,0.7,1.5,1.1c2,1.4,4.2,2.1,6.6,2.2c2.3,0.1,4.8-0.5,7.2-1.3
					c4.8-1.7,9.5-4.6,14.1-7.5l7-4.5c1.2-0.7,2.4-1.5,3.6-2.2c1.2-0.7,2.5-1.4,4-1.6c-0.6,0.4-1.1,0.8-1.6,1.3c-0.5,0.5-1,1-1.5,1.4
					l-2.9,3c-2,2-4,3.9-6.2,5.8c-4.3,3.6-9.1,7-14.8,9.1c-2.8,1-6,1.6-9.2,1.3c-3.2-0.3-6.4-1.7-8.7-3.8c-0.6-0.6-1.2-1.1-1.6-1.7
					c-0.5-0.6-0.9-1.2-1.4-1.8c-0.8-1.3-1.5-2.6-2-3.9c-0.6-1.3-1-2.7-1.3-4.1C327,415.7,326.8,414.3,326.6,412.9z"/>
			</g>
			<g>
				<path class="st17" d="M301.1,447.9c2.2-2.1,5-3.5,7.9-4.4c2.9-0.9,6-1.4,9-1.5c6.1-0.3,12.1,0.4,17.9,1.2
					c5.8,0.7,11.5,1.7,17.1,1.6c2.8,0,5.5-0.4,8.2-1.2c2.7-0.8,5.1-2.3,7.4-4.3c-1.4,2.7-3.7,4.9-6.4,6.5c-2.7,1.6-5.8,2.5-8.9,2.9
					c-6.2,0.9-12.2,0.2-18.1-0.5c-5.9-0.8-11.6-1.8-17.3-2.2C312.4,445.4,306.6,445.6,301.1,447.9z"/>
			</g>
			<g>
				<path class="st16" d="M377.1,427.7c2.5-1.3,5-2.6,6.9-4.4c2-1.7,3.4-3.9,4.1-6.2c1.5-4.7,0.8-10-0.2-15.3
					c-1.1-5.3-2.6-10.6-3.8-16.2c-0.6-2.8-1.1-5.6-1.2-8.5c-0.1-2.9,0-6,1.4-8.5c-0.3,2.8,0.2,5.5,1,8.1c0.7,2.6,1.7,5.2,2.6,7.8
					c1.8,5.2,3.8,10.5,4.9,16.2c0.6,2.8,1,5.8,0.9,8.8c-0.1,3-0.6,6.1-2,9c-1.4,2.8-3.7,5.2-6.3,6.6
					C382.7,426.7,379.9,427.5,377.1,427.7z"/>
			</g>
			<g>
				<path class="st17" d="M113.9,441.1c3.4-1.9,6.8-3.6,9.8-5.8c3.1-2.1,5.8-4.6,7.8-7.4c2-2.9,3-6.1,3-9.5c0-3.4-0.8-6.9-2-10.4
					c-2.4-6.9-5.9-13.7-8.8-20.9c-1.5-3.6-2.7-7.3-3.6-11.1c-0.8-3.8-1.3-7.8-0.6-11.6c0.5,3.8,1.5,7.5,2.9,10.9
					c1.4,3.5,3.1,6.8,4.8,10.2c3.5,6.7,7.4,13.4,10,20.9c1.3,3.8,2.2,7.9,2,12.1c-0.2,4.3-1.9,8.5-4.6,11.7
					c-2.7,3.2-6.2,5.4-9.7,7.2C121.4,439.1,117.6,440.2,113.9,441.1z"/>
			</g>
			<g>
				<path class="st16" d="M127.7,446.2c1.2-2.4,3.1-4.6,5.4-6.2c2.4-1.6,5.2-2.5,8-3c5.7-0.8,11.3,0.2,16.5,1.5
					c5.3,1.4,10.3,3.2,15.2,4.9c5,1.7,9.9,3.4,15.2,3.8c-2.6,0.9-5.4,1-8.1,1c-2.7-0.1-5.5-0.5-8.1-1c-5.3-1-10.4-2.5-15.5-3.8
					c-5-1.3-10-2.5-15-2.5c-2.5,0-4.9,0.4-7.2,1.2C131.9,442.9,129.7,444.4,127.7,446.2z"/>
			</g>
			<g>
				<path class="st17" d="M205.6,446.9c2.6-2.3,4.5-4.7,6.1-7.3c1.6-2.6,3-5.5,4.6-8.4c1.6-2.9,3.5-5.8,6-8.3
					c2.5-2.5,5.7-4.4,9.2-4.9c-2.6,2.3-4.5,4.7-6.1,7.4c-1.7,2.6-3.1,5.4-4.7,8.3c-1.6,2.8-3.4,5.8-5.9,8.3c-0.6,0.6-1.3,1.2-2,1.8
					c-0.7,0.5-1.5,1-2.2,1.5c-0.8,0.4-1.6,0.8-2.4,1.1C207.2,446.6,206.4,446.8,205.6,446.9z"/>
			</g>
			<g>
				<path class="st16" d="M124.4,350c-0.7-2.2-1.5-4.3-2.4-6.4c-0.8-2.1-1.7-4.2-2.4-6.3c-1.5-4.3-2.9-8.7-3.6-13.3
					c-0.3-2.3-0.6-4.7-0.4-7.1c0.1-2.4,0.5-4.9,1.5-7.3c1-2.3,2.6-4.5,4.6-5.9c2-1.5,4.3-2.3,6.6-2.5c-1.9,1.3-3.7,2.7-5,4.3
					c-1.3,1.6-2.1,3.5-2.6,5.4c-0.9,3.9-0.5,8.1,0.1,12.4c0.7,4.3,1.6,8.6,2.5,13.1c0.4,2.2,0.8,4.5,1,6.8
					C124.6,345.3,124.8,347.7,124.4,350z"/>
			</g>
			<g>
				<path class="st16" d="M138,285.3c4.5-3.7,9.2-7.1,12.9-11.1c1.8-2,3.4-4.2,3.9-6.3c0.6-2.1,0-4.2-1.3-6.3
					c-1.3-2.2-3.1-4.2-5-6.4c-1.9-2.2-3.8-4.4-5.5-7c-1.6-2.6-3-5.5-3.3-8.7c-0.1-0.4-0.1-0.8,0-1.2l0-1.2c0.1-0.8,0.3-1.5,0.4-2.3
					c0.3-0.7,0.5-1.4,0.8-2.1c0.4-0.7,0.7-1.3,1.1-1.9c-0.1,0.7-0.3,1.4-0.4,2.1c-0.1,0.7-0.1,1.4-0.2,2.1c0.1,0.7,0.1,1.4,0.1,2
					l0.2,1c0.1,0.3,0.1,0.6,0.3,1c0.8,2.5,2.3,4.7,4,6.8c1.8,2.1,3.8,4,5.8,6.1c2,2.1,4.1,4.3,5.8,7.1c0.4,0.7,0.8,1.4,1.1,2.3
					c0.2,0.4,0.3,0.8,0.5,1.2c0.1,0.4,0.2,0.9,0.3,1.3c0.1,0.4,0.1,0.9,0.2,1.4c0,0.5,0.1,0.9,0,1.4c-0.1,0.9-0.2,1.8-0.5,2.7
					c-0.1,0.4-0.3,0.9-0.4,1.3l-0.6,1.1c-0.4,0.8-0.9,1.4-1.4,2.1c-0.5,0.7-1,1.2-1.6,1.8c-0.3,0.3-0.5,0.6-0.8,0.8l-0.9,0.7
					C148.9,280.9,143.6,283.4,138,285.3z"/>
			</g>
			<g>
				<path class="st17" d="M126,181.9c-1.1,3.2-2.1,6.4-2.3,9.6c-0.3,3.2,0.4,6.2,1.8,8.8c1.4,2.6,3.6,4.8,6.1,6.8
					c2.5,2,5.2,3.8,8,5.5c5.6,3.5,11.5,6.8,17,11c2.7,2.1,5.3,4.5,7.5,7.2c2.1,2.8,3.8,6,4.3,9.4c-1.5-3-3.6-5.6-6.1-7.7
					c-2.4-2.2-5.1-4-7.9-5.7c-5.6-3.4-11.6-6.4-17.4-10c-2.9-1.8-5.8-3.8-8.4-6.2c-1.3-1.2-2.6-2.5-3.7-4c-0.6-0.7-1.1-1.5-1.6-2.3
					c-0.4-0.8-0.9-1.6-1.2-2.5l-0.5-1.3c-0.1-0.2-0.2-0.4-0.2-0.7l-0.1-0.7l-0.3-1.4c-0.1-0.5-0.1-0.9-0.1-1.4
					c0-0.5-0.1-0.9-0.1-1.4l0.1-1.4c0.1-0.5,0.1-0.9,0.2-1.3c0.1-0.4,0.2-0.9,0.3-1.3C122.2,187.6,123.9,184.6,126,181.9z"/>
			</g>
			<g>
				<path class="st16" d="M111.1,215.2c0.9,3.5,2.4,6.7,4.4,9.5c2,2.8,4.4,5.3,6.9,7.7c2.5,2.4,5.2,4.8,7.7,7.6
					c2.5,2.7,4.8,5.9,6.1,9.8c0.6,1.9,0.9,4,0.9,6.1c-0.1,2.1-0.6,4.3-1.6,6.1c-1,1.9-2.3,3.4-3.7,4.8c-1.4,1.3-2.9,2.4-4.4,3.5
					c-3,2.1-6,3.9-8.6,6.1c-2.7,2.1-5,4.8-6.5,8.1c0.2-1.8,0.8-3.6,1.6-5.2c0.8-1.7,1.9-3.2,3.1-4.6c2.4-2.8,5.3-5.1,7.9-7.4
					c2.6-2.3,5.1-4.6,6.3-7.3c0.6-1.3,0.9-2.7,0.9-4.2c0-1.5-0.2-3-0.7-4.4c-0.9-2.9-2.8-5.6-4.9-8.3c-2.2-2.6-4.6-5.2-6.9-8
					c-2.3-2.8-4.5-5.8-6.1-9.2C111.8,222.5,111,218.8,111.1,215.2z"/>
			</g>
			<g>
				<path class="st17" d="M112.6,186.7c-1.3-3.8-1.2-8.2-0.1-12.1c1.1-4,3.1-7.5,4.6-10.8c1.5-3.3,2.3-6.5,2-10
					c-0.3-3.5-1.6-7.1-2.9-10.9c3,2.6,5.5,6,6.8,10.2c0.6,2.1,0.8,4.4,0.5,6.6c-0.3,2.2-1,4.3-1.8,6.2c-1.7,3.8-3.9,6.9-5.5,10.2
					C114.5,179.3,113.3,182.7,112.6,186.7z"/>
			</g>
			<g>
				<path class="st16" d="M124.4,134.3c-0.4-5.3-2.5-9.7-5.1-14l-4-6.5c-1.3-2.2-2.6-4.6-3.6-7.3c-0.2-0.7-0.4-1.4-0.6-2.1
					c-0.1-0.7-0.4-1.4-0.4-2.2c-0.2-1.5-0.1-3.1,0.3-4.7c0.9-3.1,3-5.6,5.2-7.3c0.3-0.2,0.6-0.4,0.8-0.6l0.9-0.6
					c0.6-0.4,1.2-0.7,1.8-1l1.8-0.9l1.9-0.7c0.6-0.2,1.3-0.5,1.9-0.6c0.6-0.2,1.3-0.4,1.9-0.6c1.3-0.3,2.6-0.6,3.9-0.8
					c-1.1,0.7-2.2,1.4-3.3,2.1c-1.1,0.7-2.2,1.3-3.2,2.1c-2.1,1.4-4.1,2.9-5.7,4.6c-1.6,1.7-2.8,3.5-3.2,5.4c-0.3,1.9,0,4,0.8,6.2
					c1.6,4.4,4.4,8.8,6.4,13.8c1,2.5,1.9,5.1,2.2,7.8C125.4,129,125.3,131.8,124.4,134.3z"/>
			</g>
			<g>
				<path class="st16" d="M114.5,69.1c3.4-2.2,7.2-4,11.4-4.7c2.1-0.3,4.3-0.3,6.4,0c2.2,0.3,4.2,1,6.2,1.9
					c3.9,1.8,7.2,4.4,10.4,6.8c3.2,2.4,6.2,4.8,9.5,6.3c1.6,0.8,3.3,1.4,5.1,1.7c1.8,0.3,3.5,0.4,5.5,0.3c3.8-0.1,7.5-0.6,10.5-2.4
					c1.5-0.9,2.9-2.1,4.3-3.5c1.4-1.4,2.9-2.8,4.5-4.2c3.2-2.7,6.8-4.8,10.7-6c-3.4,2.3-6.4,4.8-9,7.8c-1.3,1.5-2.5,3-3.8,4.6
					c-1.3,1.6-2.8,3.2-4.6,4.6c-0.9,0.7-1.9,1.2-2.9,1.8c-0.5,0.2-1,0.4-1.6,0.6l-0.8,0.3l-0.8,0.2l-1.6,0.4
					c-0.5,0.2-1.1,0.2-1.6,0.3l-1.6,0.2c-0.5,0.1-1.1,0.1-1.6,0.1c-2.1,0.2-4.4,0.1-6.6-0.2c-2.2-0.4-4.4-1.1-6.3-2
					c-4-1.9-7.3-4.6-10.4-7.2c-3.1-2.6-6-5.2-9.2-7.1c-3.2-1.9-6.8-3-10.7-3C122.3,66.8,118.4,67.8,114.5,69.1z"/>
			</g>
			<g>
				<path class="st17" d="M180.4,101.8c0.6,2.8,1.3,5.5,2.6,7.9c1.2,2.4,2.9,4.3,5,5.8c4.1,3,9.4,4.3,14.7,5.5
					c2.7,0.6,5.5,1.2,8.2,1.9c2.8,0.7,5.6,1.6,8.3,2.9c2.7,1.3,5.3,3.3,7,5.9l0.3,0.5l0.3,0.5l0.5,1c0.3,0.7,0.5,1.5,0.6,2.2
					c0.1,0.7,0.2,1.5,0.2,2.2c0,0.7-0.1,1.5-0.1,2.2c-0.2-0.7-0.4-1.4-0.6-2c-0.3-0.7-0.5-1.3-0.8-1.9c-0.4-0.6-0.7-1.2-1-1.7
					L225,134l-0.3-0.4l-0.4-0.3c-1.8-1.8-4.1-3-6.6-3.8c-5-1.7-10.6-2.3-16.2-3.6c-2.8-0.7-5.6-1.4-8.4-2.6
					c-2.8-1.1-5.5-2.7-7.8-4.9c-2.3-2.2-3.9-5-4.7-7.9C180,107.6,180,104.6,180.4,101.8z"/>
			</g>
			<g>
				<path class="st16" d="M190.3,136.1c-0.5,5-1.4,9.9-1.1,14.4c0.1,2.3,0.6,4.3,1.6,5.9c1,1.6,2.5,2.7,4.5,3.6c1,0.5,2,0.9,3.1,1.2
					c1.1,0.4,2.2,0.7,3.4,1c2.3,0.7,4.7,1.3,7.1,2c4.7,1.4,9.5,3.2,13.8,5.9l-14.6-2.1c-2.4-0.3-4.9-0.7-7.3-1.2
					c-2.5-0.5-5-1.1-7.5-2.3c-1.3-0.6-2.5-1.3-3.7-2.3c-1.1-1-2.1-2.2-2.9-3.5c-1.4-2.8-1.6-5.7-1.4-8.4c0.3-2.7,1-5.1,1.8-7.5
					C188,140.5,189,138.2,190.3,136.1z"/>
			</g>
			<g>
				<path class="st16" d="M214.3,149.6c5.4,1.8,10.8,3.6,16,3.9c2.6,0.1,5.1-0.2,7.4-1.1c2.3-0.8,4.4-2.2,6.4-3.9
					c4.1-3.3,8-7.6,12.9-10.9c2.4-1.6,5-3.1,7.8-4c2.8-1,5.6-1.6,8.5-1.6c-5.3,2.2-9.9,5.1-13.9,8.8c-2,1.8-3.9,3.8-5.9,5.8
					c-2,2-4,4-6.3,5.9c-1.2,0.9-2.4,1.8-3.8,2.6c-1.4,0.7-2.8,1.4-4.3,1.9c-3.1,0.9-6.3,1-9.3,0.5c-3-0.6-5.8-1.7-8.3-3
					C218.9,153,216.5,151.4,214.3,149.6z"/>
			</g>
			<g>
				<path class="st17" d="M219.7,58.3c2.9-1.6,6.2-2.5,9.5-3.1c3.3-0.5,6.8-0.6,10.1-0.4c6.8,0.4,13.3,1.9,19.6,3.5
					c6.4,1.6,12.6,3.4,18.8,4.5c6.3,1.1,12.6,1.3,19-0.6c-2.7,1.9-6,3.1-9.3,3.8c-3.3,0.7-6.8,0.8-10.2,0.6
					c-6.8-0.4-13.3-2-19.6-3.6c-6.3-1.6-12.6-3.4-18.8-4.5C232.6,57.5,226.3,57.1,219.7,58.3z"/>
			</g>
			<g>
				<path class="st16" d="M290.1,84.3c1,5.4,1.7,10.7,3.3,15.6c0.8,2.4,1.8,4.6,3.2,6.3c0.3,0.4,0.8,0.8,1.1,1.1
					c0.2,0.2,0.4,0.3,0.6,0.5c0.2,0.2,0.4,0.3,0.7,0.4c0.9,0.6,2,1,3.1,1.4c2.3,0.7,4.9,1.2,7.6,1.9c2.7,0.7,5.4,1.5,8,2.8
					c2.6,1.3,4.9,3,6.9,5c2,2,3.7,4.2,4.9,6.7c-2.2-1.7-4.2-3.4-6.5-4.7c-2.2-1.4-4.5-2.5-6.9-3.3c-2.4-0.8-4.9-1.4-7.5-1.8
					c-2.6-0.5-5.3-0.9-8.1-1.8c-2.8-0.9-5.8-2.6-7.7-5.2c-1.9-2.6-2.9-5.5-3.4-8.3c-0.5-2.8-0.6-5.6-0.5-8.4
					c0.1-1.4,0.2-2.7,0.3-4.1C289.6,87,289.8,85.7,290.1,84.3z"/>
			</g>
			<g>
				<path class="st16" d="M266.8,158c-1.9,3.3-4,6.6-5.5,10c-1.5,3.4-2.7,6.9-2.9,10.4l-0.1,0.6c0,0.2,0,0.4,0,0.6l0,1.3
					c0,0.4,0.1,0.8,0.2,1.2c0.1,0.4,0.1,0.8,0.3,1.2l0.4,1.1c0.1,0.4,0.3,0.7,0.5,1.1c0.3,0.7,0.8,1.4,1.3,2c2,2.5,5,4.3,8.2,5.6
					c3.3,1.3,6.9,2,10.5,2.4c3.6,0.4,7.3,0.5,11.1,0.3c7.4-0.4,14.9-1.8,22.3-3.9c-6.6,4-14.1,6.6-21.9,7.8
					c-3.9,0.6-7.9,0.8-11.9,0.5c-4-0.3-8-1-11.9-2.4c-3.8-1.5-7.6-3.8-10.2-7.5c-0.6-0.9-1.2-1.9-1.6-2.9c-0.2-0.5-0.5-1-0.6-1.6
					l-0.4-1.6c-0.2-0.5-0.2-1.1-0.2-1.6c0-0.5-0.1-1.1-0.1-1.6l0.1-1.6c0-0.3,0-0.5,0.1-0.8l0.1-0.8c0.7-4.2,2.6-7.8,4.7-11.1
					C261.4,163.5,264,160.6,266.8,158z"/>
			</g>
			<g>
				<path class="st17" d="M173.6,68.5c-2.7-2.2-5.4-4-8.2-5.5c-2.8-1.5-5.7-2.7-8.7-3.8c-3-1.1-6.1-2-9.2-3c-3.1-1-6.4-1.9-9.6-3.3
					c3.4-0.7,6.9-0.9,10.3-0.6c3.4,0.3,6.9,1,10.2,2.2c3.3,1.2,6.5,2.9,9.2,5.3C170.4,62.1,172.6,65.1,173.6,68.5z"/>
			</g>
			<g>
				<path class="st16" d="M386.8,96.8c0.3-3.5,0.7-7,0.6-10.5c0-3.4-0.4-6.8-1.6-9.6c-1.2-2.8-3.2-5-6-6.2c-2.8-1.3-6-1.9-9.3-2.3
					c-6.7-0.7-13.8-0.7-20.9-1.6c-3.6-0.5-7.1-1.3-10.6-2.6c-3.4-1.3-6.6-3.3-8.9-6.1c3,1.9,6.2,3.1,9.6,3.7c3.3,0.7,6.7,0.9,10.2,1
					c6.9,0.2,13.9-0.2,21.2,0.6c3.6,0.4,7.4,1.2,10.9,3c3.6,1.7,6.5,5.3,7.6,9.1c1.2,3.8,0.9,7.6,0.3,11.2
					C389.3,90.1,388.1,93.5,386.8,96.8z"/>
			</g>
			<g>
				<path class="st17" d="M282.4,53.5c3.1-0.7,6.2-0.8,9.3-0.6c3.1,0.2,6.1,0.7,9,1.4c2.9,0.7,5.8,1.6,8.6,2.6
					c2.8,1.1,5.6,2.2,8.4,3.8c-3.1,0.5-6.2,0.4-9.3,0c-3-0.3-6-0.9-8.9-1.6c-2.9-0.7-5.8-1.5-8.6-2.4
					C288.1,55.8,285.2,54.8,282.4,53.5z"/>
			</g>
			<g>
				<path class="st16" d="M385.8,107.5c1,3.4,1.2,7.1,0.1,10.8c-0.1,0.5-0.3,0.9-0.5,1.4l-0.6,1.3c-0.4,0.9-1,1.7-1.6,2.5
					c-0.3,0.4-0.6,0.8-1,1.1l-1.1,1c-0.8,0.6-1.6,1.2-2.4,1.7c-3.4,2-7,2.8-10.5,3.2c-3.5,0.3-7,0.2-10.6-0.4
					c3.3-1.4,6.6-2.4,9.8-3.5c3.2-1,6.2-2.1,8.8-3.6c2.6-1.5,4.6-3.5,6.1-6.2C383.8,114.2,384.7,110.9,385.8,107.5z"/>
			</g>
			<g>
				<path class="st16" d="M379.9,138.5c2.5,2.2,4.7,4.8,6.3,7.9c1.6,3.1,2.6,6.5,2.8,10c0.3,3.5-0.1,7-0.9,10.4
					c-0.8,3.4-1.9,6.6-3.1,9.7c-2.4,6.2-5.3,12-7.5,18.1c-2.2,6-3.6,12.2-3.1,18.9c-1.3-3.1-1.8-6.5-1.9-9.9c0-3.4,0.5-6.8,1.3-10.1
					c1.6-6.6,4.3-12.7,6.6-18.7c2.4-6,4.5-12,4.7-18.1c0.1-3.1-0.2-6.2-1.2-9.2C383.1,144.2,381.6,141.3,379.9,138.5z"/>
			</g>
			<g>
				<path class="st17" d="M385.8,206.7c1.5,2.8,2.5,5.8,3.2,9c0.6,3.2,0.7,6.5,0.2,9.8c-0.5,3.3-1.5,6.5-2.9,9.5
					c-1.4,3-3.1,5.7-4.9,8.4c-3.6,5.3-7.5,10-10.2,15.2c-1.4,2.6-2.4,5.4-2.9,8.3c-0.6,2.9-0.6,6-0.4,9.2c-1.3-2.9-2-6.1-2.1-9.4
					c-0.1-3.3,0.6-6.6,1.8-9.7c2.4-6.2,6.2-11.4,9.7-16.4c3.5-5,6.5-10.1,8-15.8c0.8-2.8,1.2-5.8,1.2-8.8
					C386.6,212.9,386.2,209.9,385.8,206.7z"/>
			</g>
			<g>
				<path class="st16" d="M376.1,226.9c-2.3,2.5-5.6,4.1-9,4.9c-3.4,0.7-7,0.8-10.4,0.3c-6.9-0.8-13.3-3-19.6-5.2
					c-6.3-2.2-12.4-4.7-18.6-5.9c-3.1-0.6-6.2-0.9-9.2-0.2c-3,0.6-5.8,2.3-8.2,4.8c1.4-3.1,4.1-5.7,7.4-7.1c3.3-1.4,7-1.6,10.5-1.3
					c7,0.7,13.4,2.9,19.7,5.1c6.3,2.2,12.4,4.6,18.6,6.1c3.1,0.7,6.3,1.2,9.4,1.1C369.9,229.2,373.1,228.4,376.1,226.9z"/>
			</g>
			<g>
				<path class="st17" d="M313,204.1c3.1-2.2,6.6-3.7,10.6-4.2c3.9-0.5,8.1,0.3,11.6,1.8c3.6,1.5,6.7,3.5,9.7,5.4c3,2,6,4,9,6.1
					c-3.8-0.2-7.4-1.3-10.9-2.7c-3.4-1.4-6.7-3-9.8-4.3c-3.1-1.3-6.2-2.2-9.6-2.5C320.3,203.6,316.8,203.9,313,204.1z"/>
			</g>
			<g>
				<path class="st16" d="M305.6,246.5c1.3,2.8,2.9,5.3,5.1,7.2c2.2,1.8,4.7,3,7.4,3.9c5.4,1.7,11.5,2.2,17.7,4.2
					c3,1,6.2,2.4,8.8,4.6c2.6,2.2,4.6,5.2,5.7,8.4c1.1,3.1,1.5,6.4,1.4,9.5c0,1.6-0.2,3.1-0.4,4.7c-0.2,1.5-0.5,3.1-0.9,4.5
					c-0.1-0.8-0.2-1.5-0.3-2.3c-0.1-0.8-0.1-1.5-0.2-2.3c-0.2-1.5-0.3-3-0.7-4.4c-0.2-1.5-0.6-2.9-1-4.3l-0.7-2
					c-0.1-0.3-0.2-0.7-0.4-1l-0.4-0.9c-1.2-2.5-2.9-4.6-5-6.2c-2.1-1.6-4.7-2.7-7.4-3.6c-5.4-1.8-11.6-2.6-17.6-5.3
					c-2.9-1.3-5.8-3.3-7.8-5.9C306.9,252.7,305.8,249.6,305.6,246.5z"/>
			</g>
			<g>
				<path class="st17" d="M365,295.8c0.1,0.5,0.4,1,0.7,1.4c0.3,0.4,0.7,0.8,1,1.1c0.7,0.7,1.5,1.4,2.3,2.1l4.9,4
					c3.2,2.7,6.4,5.5,9.5,8.6c3,3.1,5.9,6.3,8.2,10.2c1.1,2,2.2,4.1,2.3,6.6c0.1,1.2-0.2,2.7-1.1,3.6c-0.8,1-2,1.4-3,1.6
					c0.8-0.7,1.6-1.5,1.8-2.3c0.3-0.8,0.2-1.7-0.2-2.5c-0.6-1.7-1.9-3.3-3.1-4.8c-2.6-3.1-5.6-6-8.5-9c-2.9-3-5.9-6-8.7-9.3
					c-1.4-1.7-2.7-3.4-3.9-5.2c-0.6-0.9-1.2-1.9-1.6-2.9c-0.2-0.5-0.4-1-0.6-1.6C364.8,297,364.8,296.4,365,295.8z"/>
			</g>
			<g>
				<path class="st16" d="M380.5,290.9c1-2,1.9-3.7,2.8-5.4c0.8-1.6,1.5-3.2,2.1-4.8c0.6-1.6,1-3.3,1.4-5.1c0.4-1.8,0.7-3.7,1.3-5.9
					c1.5,1.7,2.3,3.8,2.7,5.9c0.3,2.2,0.1,4.5-0.6,6.7c-0.8,2.2-2.1,4.1-3.7,5.6C384.6,289.4,382.7,290.5,380.5,290.9z"/>
			</g>
			<g>
				<path class="st17" d="M294,276.6c2.6-2.4,5.9-4.1,9.4-5.1c3.5-1,7.1-1.4,10.8-1.2c3.6,0.2,7.2,1.1,10.5,2.5
					c3.3,1.5,6.4,3.5,8.7,6.3c-3.4-1-6.6-1.9-9.9-2.6c-3.2-0.7-6.4-1.1-9.6-1.3c-3.2-0.2-6.4-0.2-9.7,0.1
					C300.8,275.5,297.5,276,294,276.6z"/>
			</g>
			<g>
				<path class="st16" d="M266.4,221.7c2.5-1.1,4.9-1.9,7.2-2.9c2.3-0.9,4.5-1.9,6.7-2.9c2.2-1,4.3-2.1,6.5-3.2
					c2.2-1.1,4.4-2.4,6.8-3.6c-0.9,2.6-2.6,4.9-4.5,6.8c-2,1.9-4.3,3.5-6.7,4.6c-2.5,1.1-5.2,1.9-7.9,2.1
					C271.8,222.9,269,222.7,266.4,221.7z"/>
			</g>
		</g>
	</g>
</g>
</svg>
