<?xml version="1.0" encoding="utf-8"?>
<!-- Generator: Adobe Illustrator 22.0.0, SVG Export Plug-In . SVG Version: 6.00 Build 0)  -->
<svg version="1.1" id="Слой_1" xmlns="http://www.w3.org/2000/svg" xmlns:xlink="http://www.w3.org/1999/xlink" x="0px" y="0px"
	 viewBox="0 0 500 500" style="enable-background:new 0 0 500 500;" xml:space="preserve">
<style type="text/css">
	.st0{fill:#EA526F;}
	.st1{fill:#FEE9F1;}
	.st2{fill:#F76262;stroke:#FEE9F1;stroke-width:3;stroke-miterlimit:10;}
	.st3{fill:#909032;stroke:#FEE9F1;stroke-width:3;stroke-miterlimit:10;}
	.st4{fill:#F79072;stroke:#FEE9F1;stroke-width:3;stroke-miterlimit:10;}
	.st5{fill:#F7BABF;stroke:#FEE9F1;stroke-width:3;stroke-miterlimit:10;}
	.st6{fill:#A4AB38;stroke:#FEE9F1;stroke-width:3;stroke-miterlimit:10;}
	.st7{fill:#EAAB3E;stroke:#FEE9F1;stroke-width:3;stroke-miterlimit:10;}
	.st8{fill:#CF4238;stroke:#FEE9F1;stroke-width:3;stroke-miterlimit:10;}
	.st9{fill:#424153;stroke:#FEE9F1;stroke-width:3;stroke-miterlimit:10;}
	.st10{fill:#994299;stroke:#FEE9F1;stroke-width:3;stroke-miterlimit:10;}
	.st11{fill:#EA4C88;stroke:#FEE9F1;stroke-width:3;stroke-miterlimit:10;}
	.st12{fill:#FDADC7;stroke:#FEE9F1;stroke-width:3;stroke-miterlimit:10;}
	.st13{fill:#994361;}
	.st14{fill:#424153;stroke:#424153;stroke-miterlimit:10;}
	.st15{fill:#424153;stroke:#424153;stroke-width:3;stroke-linecap:round;stroke-miterlimit:10;}
	.st16{fill:#EA5882;}
	.st17{fill:#7E306D;}
	.st18{fill:#2F2A36;}
	.st19{fill:#849561;stroke:#FEE9F1;stroke-width:3;stroke-miterlimit:10;}
	.st20{fill:#4E5939;}
	.st21{fill:#642C5A;stroke:#FFFFFF;stroke-width:2;stroke-miterlimit:10;}
</style>
<g>
	<path class="st0" d="M62.3,465.4c0,5,4.4,9,9.9,9s9.9,4,9.9,9s4.4,9,9.9,9c5.5,0,9.9-4,9.9-9s4.4-9,9.9-9c5.5,0,9.9,4,9.9,9
		s4.4,9,9.9,9s9.9-4,9.9-9s4.4-9,9.9-9s9.9,4,9.9,9s4.4,9,9.9,9c5.5,0,9.9-4,9.9-9s4.4-9,9.9-9c5.5,0,9.9,4,9.9,9s4.4,9,9.9,9
		c5.5,0,9.9-4,9.9-9s4.4-9,9.9-9c5.5,0,9.9,4,9.9,9s4.4,9,9.9,9s9.9-4,9.9-9s4.4-9,9.9-9c5.5,0,9.9,4,9.9,9s4.4,9,9.9,9s9.9-4,9.9-9
		s4.4-9,9.9-9c5.5,0,9.9,4,9.9,9s4.4,9,9.9,9s9.9-4,9.9-9s4.4-9,9.9-9s9.9,4,9.9,9s4.4,9,9.9,9c5.5,0,9.9-4,9.9-9s4.4-9,9.9-9
		s9.9,4,9.9,9s4.4,9,9.9,9c5.5,0,9.9-4,9.9-9l0,0.3c0-5,4.4-9,9.9-9s9.9-4,9.9-9s-4.4-9-9.9-9s-9.9-4-9.9-9s4.4-9,9.9-9s9.9-4,9.9-9
		c0-5-4.4-9-9.9-9s-9.9-4-9.9-9c0-5,4.4-9,9.9-9s9.9-4,9.9-9s-4.4-9-9.9-9s-9.9-4-9.9-9s4.4-9,9.9-9s9.9-4,9.9-9c0-5-4.4-9-9.9-9
		s-9.9-4-9.9-9s4.4-9,9.9-9s9.9-4,9.9-9s-4.4-9-9.9-9s-9.9-4-9.9-9c0-5,4.4-9,9.9-9s9.9-4,9.9-9s-4.4-9-9.9-9s-9.9-4-9.9-9
		s4.4-9,9.9-9s9.9-4,9.9-9c0-5-4.4-9-9.9-9s-9.9-4-9.9-9c0-5,4.4-9,9.9-9s9.9-4,9.9-9c0-5-4.4-9-9.9-9s-9.9-4-9.9-9c0-5,4.4-9,9.9-9
		s9.9-4,9.9-9s-4.4-9-9.9-9s-9.9-4-9.9-9c0-5,4.4-9,9.9-9s9.9-4,9.9-9c0-5-4.4-9-9.9-9s-9.9-4-9.9-9c0-5,4.4-9,9.9-9s9.9-4,9.9-9
		s-4.4-9-9.9-9s-9.9-4-9.9-9s4.4-9,9.9-9s9.9-4,9.9-9s-4.4-9-9.9-9s-9.9-4-9.9-9s4.4-9,9.9-9s9.9-4,9.9-9s-4.4-9-9.9-9h0
		c-5.5,0-9.9-4-9.9-9s-4.4-9-9.9-9c-5.5,0-9.9,4-9.9,9s-4.4,9-9.9,9s-9.9-4-9.9-9s-4.4-9-9.9-9c-5.5,0-9.9,4-9.9,9s-4.4,9-9.9,9
		s-9.9-4-9.9-9s-4.4-9-9.9-9s-9.9,4-9.9,9s-4.4,9-9.9,9c-5.5,0-9.9-4-9.9-9s-4.4-9-9.9-9s-9.9,4-9.9,9s-4.4,9-9.9,9
		c-5.5,0-9.9-4-9.9-9s-4.4-9-9.9-9s-9.9,4-9.9,9s-4.4,9-9.9,9c-5.5,0-9.9-4-9.9-9s-4.4-9-9.9-9c-5.5,0-9.9,4-9.9,9s-4.4,9-9.9,9
		c-5.5,0-9.9-4-9.9-9s-4.4-9-9.9-9c-5.5,0-9.9,4-9.9,9s-4.4,9-9.9,9s-9.9-4-9.9-9s-4.4-9-9.9-9s-9.9,4-9.9,9s-4.4,9-9.9,9
		c-5.5,0-9.9-4-9.9-9s-4.4-9-9.9-9c-5.5,0-9.9,4-9.9,9h0c0,5-4.4,9-9.9,9c-5.5,0-9.9,4-9.9,9s4.4,9,9.9,9c5.5,0,9.9,4,9.9,9
		s-4.4,9-9.9,9c-5.5,0-9.9,4-9.9,9s4.4,9,9.9,9c5.5,0,9.9,4,9.9,9s-4.4,9-9.9,9c-5.5,0-9.9,4-9.9,9s4.4,9,9.9,9c5.5,0,9.9,4,9.9,9
		c0,5-4.4,9-9.9,9c-5.5,0-9.9,4-9.9,9c0,5,4.4,9,9.9,9c5.5,0,9.9,4,9.9,9c0,5-4.4,9-9.9,9c-5.5,0-9.9,4-9.9,9s4.4,9,9.9,9
		c5.5,0,9.9,4,9.9,9c0,5-4.4,9-9.9,9c-5.5,0-9.9,4-9.9,9c0,5,4.4,9,9.9,9c5.5,0,9.9,4,9.9,9c0,5-4.4,9-9.9,9c-5.5,0-9.9,4-9.9,9
		c0,5,4.4,9,9.9,9c5.5,0,9.9,4,9.9,9s-4.4,9-9.9,9c-5.5,0-9.9,4-9.9,9s4.4,9,9.9,9c5.5,0,9.9,4,9.9,9c0,5-4.4,9-9.9,9
		c-5.5,0-9.9,4-9.9,9s4.4,9,9.9,9c5.5,0,9.9,4,9.9,9s-4.4,9-9.9,9c-5.5,0-9.9,4-9.9,9c0,5,4.4,9,9.9,9c5.5,0,9.9,4,9.9,9
		s-4.4,9-9.9,9c-5.5,0-9.9,4-9.9,9s4.4,9,9.9,9c5.5,0,9.9,4,9.9,9c0,5-4.4,9-9.9,9c-5.5,0-9.9,4-9.9,9c0,5,4.4,9,9.9,9
		c5.5,0,9.9,4,9.9,9s-4.4,9-9.9,9c-5.5,0-9.9,4-9.9,9"/>
	<path class="st1" d="M391.2,456.8H108.8c-4.3,0-7.7-3.5-7.7-7.7V51c0-4.3,3.5-7.7,7.7-7.7h282.4c4.3,0,7.7,3.5,7.7,7.7v398
		C398.9,453.3,395.5,456.8,391.2,456.8z"/>
	<g>
		<path class="st2" d="M125.1,235.5c-2.5,1.7-4.9,3.7-4.4,7.8c0.5,3.6,3,6.5,6.3,7.9c5.8,2.6,12.3,1.3,18.5,2
			c17.4,2.1,29.7,19.6,47.1,22.1c13.2,1.9,26.1-5.4,39.4-4.9c6.3,0.2,12.4,2.2,18.7,2.2c7.6,0.1,16.2-3.7,16.5-12.3
			c0.1-3.2-1-6.2-2.9-8.8c-4.2-5.6-10.9-8-17.4-10.1c-2.9-0.9-5.9-1.8-7.7-4.4c-0.7-1-1-2.1-0.9-3.3c0.2-2.8,2.4-3.8,4.4-4.6
			c3.7-1.6,7.3-3.7,9.4-7.4c1.1-2.1,1.5-4.5,0.8-6.7c-1.8-5.2-8.2-6.1-13.4-6.1c-16.2,0.3-32.7,3.6-48.4-0.4
			c-10.6-2.7-20.2-8.6-30.3-12.8c-10.4-4.3-21.6-9.6-31.8-4.7c-0.6,0.3-4.4,2-4.8,4.2c-0.3,1.9-1,3.9,1.5,5.7
			c9.9,7.2,19.9,14.3,31.6,18.1c3.7,1.2,7.7,2.2,10.1,5.3c2,2.6,2,8.1-1.8,9c-2.3,0.5-9.8-3.6-12.7-4
			C143,228.2,133,230.2,125.1,235.5z"/>
		<path class="st2" d="M222.5,202.7c-8.1,0.1-16.5,3.5-24.2,1c-4.5-1.4-8.1-4.7-12.4-6.7c-5.4-2.7-11.6-3.4-17.3-5.2
			c-5.8-1.8-11.6-5.3-13.6-11c-0.6-1.6-0.8-3.5,0-5.1c0.7-1.3,2-2.1,3.2-2.8c6.2-3.5,13.5-5.3,20.6-5c3.9,0.2,7.8,0.9,11.7,0.8
			c3.6-0.1,7.1-1,10.7-1.5c14-1.8,28.5,4.1,37.9,14.5c3.3,3.7,10.1,11.4,6.8,16.5C241.6,204.9,228.8,202.6,222.5,202.7z"/>
		<path class="st3" d="M116.8,359.7c-4.7,1.1-10.4,3.7-10.3,8.6c0.1,4.5,5,7.1,9.4,8c8.3,1.6,17.4,0.5,25,4.2
			c4.6,2.2,8.6,6.2,13.8,6.5c4.3,0.3,8.4-2.1,12.7-1.8c4.4,0.3,8.2,3.2,12,5.3c9.2,5.1,20.3,6,30.6,4.1c10.3-1.9,20-6.4,29.2-11.5
			c4.2-2.4,8.6-5.4,9.6-10.1c1-5.3-3.1-10.4-8-12.5s-10.5-1.8-15.9-1.5c-19.8,0.9-39.7,0.7-59.4-1
			C149,356.5,133.2,355.8,116.8,359.7z"/>
		<path class="st4" d="M110.3,150.6c0.7-6.5,4.4-12.6,4.2-19.1c-0.1-3.2-1.1-6.2-1.3-9.4c-0.2-3.2,0.6-6.7,3.2-8.5
			c3.6-2.5,8.5-0.6,12.8-0.3c10,0.6,18.5-8.1,28.5-8.8c2.4-0.2,4.8,0.1,7.2-0.1c7.7-0.9,13.6-7.9,21.2-9c8.7-1.2,16.5,5.3,25.2,6.8
			c3.9,0.7,8.1,0.3,11.9,1.4c3.8,1.1,7.5,4.5,7,8.5c-0.8,5.6-8.1,6.9-13.7,6.8c-16.5-0.1-33,0.4-49.4,1.6c-4.2,0.3-8.6,0.7-12.4,2.5
			s-7.1,5.4-7.4,9.6c-0.2,4.3,2.5,8,4.1,12c5.3,12.8-2.2,30.6-16.7,33.2C121.8,180.1,108.9,162.3,110.3,150.6z"/>
		<path class="st2" d="M326.3,130.7c12,0.7,25.3-4.9,35.1,2c10.8,7.7,9.1,25.3,18.9,34.4c2.6,2.5,6,4.1,8.3,6.9
			c3.1,3.8,3.6,8.9,4,13.8c0.5,5.6,0.9,11.7-2.1,16.5c-1.8,2.9-4.6,5-7.7,6.4c-7.1,3.3-15.9,2.7-22.6-1.3c-2.8-1.7-5.3-4-8.4-5.2
			c-3.9-1.6-8.3-1.1-12.6-1.4c-11.4-0.8-22.2-7.3-28.2-17c-6.8-10.8-7.4-24.3-7.8-37c-0.2-5.2-1.3-17.6,3.7-21.3
			C311.5,124.1,320.9,130.4,326.3,130.7z"/>
		<path class="st4" d="M346.2,124.2c6.1-0.2,12.7-1.5,18,1.6c3.7,2.2,6,6.1,8.3,9.8c3.7,5.9,8,11.5,12.6,16.7
			c1.2,1.3,2.7,2.8,4.5,2.5c2.1-0.3,3.2-2.8,3.4-5c0.6-6.6-2.7-12.8-5.3-18.8c-2.3-5.4-4.2-11-5.5-16.8c-0.8-3.5-1.5-7.2-3.4-10.2
			c-4.4-6.8-13.7-8.4-21.8-8c-12.5,0.5-25.6,3.7-37.3-0.8c-4.5-1.8-8.4-4.6-12.7-6.9c-4.2-2.3-8.9-4.1-13.7-3.6
			c-15.3,1.6-10.2,18.9-0.6,24.7c3.4,2,7.4,2.4,11.1,3.3c6.2,1.5,11.7,4.5,17.6,6.8C329.3,122.4,337.7,124.5,346.2,124.2z"/>
		<path class="st5" d="M175.9,91.3c6.1-1.4,12.3-2.7,18.6-2.4c17,1,31.1,14.7,48,16.3c4,0.4,8.1,0.1,11.7-1.8
			c5.9-3.1,8.8-9.7,12.7-15.1c2.9-3.9,6.4-7.4,10.4-10.1c3.3-2.2,7.2-4.5,7.9-8.4c0.8-4.2-2.8-8.1-6.6-10.1
			c-8.8-4.7-19.5-3.7-29.4-2.9c-18,1.4-36,1.6-54,0.6c-7.2-0.4-15.5-0.6-20.3,4.7c-4.3,4.7-4.4,12.2-9,16.5c-2,1.9-4.6,2.9-7,4.2
			c-2.4,1.3-4.8,3-5.7,5.5C148.5,100.6,171.9,92.2,175.9,91.3z"/>
		<path class="st5" d="M130.7,100.8c7.2-4,11.6-11.5,17.6-17.1c4.5-4.2,9.9-7.6,13.4-12.7c3.5-5.1,4.3-12.9-0.4-16.8
			c-3-2.5-7.4-2.7-11.3-2c-3.9,0.7-7.6,2.3-11.6,2.7c-4.6,0.5-9.5-0.5-13.8,1.4c-2.6,1.2-4.6,3.3-6.4,5.6c-3.7,4.6-7.1,10.3-5.9,16
			c0.7,3.5,3.1,6.5,4.5,9.8c0.9,2.2,1.4,4.9,0.7,7.2c-0.7,2.3-3,3.3-1.9,5.9C117.9,106.2,127.3,102.7,130.7,100.8z"/>
		<path class="st5" d="M296,68.6c-1.5,3.2-0.3,7.1,2.1,9.8c2.3,2.6,5.6,4.3,8.7,5.9c7.6,3.8,15.5,7.7,24,8c8.6,0.4,17.1-3,25.8-2.3
			c2.1,0.2,4.3,0.6,6.4-0.1c4.6-1.5,5.9-7.9,3.6-12.1c-2.4-4.2-7.2-6.4-11.8-7.6c-4.7-1.2-9.6-1.7-13.9-3.7
			c-7.7-3.6-14.7-12.2-24.1-10.6C310.2,56.9,298.8,62.6,296,68.6z"/>
		<path class="st3" d="M298.4,374c-2,4.3,2,8.9,5.8,11.8c3.8,2.8,8.3,6.5,7.6,11.2c-0.7,4.6-6.4,7.8-5.9,12.4
			c0.1,1.2,0.7,2.3,1.4,3.2c3.2,3.9,9.8,3.9,13.6,0.6c3.8-3.3,5-9,3.8-13.9c-0.4-1.9-1.2-3.8-0.8-5.6c0.3-1.4,1.2-2.6,2.3-3.7
			c3.9-3.8,9.6-5.6,15.1-5.8s11,1,16.3,2.3c2.9,0.7,5.9,1.5,8.9,1.2s6-2.2,6.8-5c1-3.5-1.6-7.1-4.8-8.7c-3.2-1.6-6.9-1.8-10.5-2.4
			c-3.6-0.5-7.3-1.5-9.7-4.2c2.7-2.2,5.2-4.7,7.2-7.6c-6.9-4.1-15.4-4-23.4-3.4c-11.5,0.7-23,2.1-34.3,4.2c3,4.1,8.7,4.9,13.7,4.9
			c6.2,0,13.2,6,3.6,5.4C310.1,370.5,301.3,367.9,298.4,374z"/>
		<path class="st6" d="M340.2,393c5.9-5.4,15.1-4.7,22.7-2.3c5.5,1.7,10.7,4.1,15.9,6.5c2.1,0.9,4.2,1.9,5.8,3.6
			c1.6,1.7,2.5,3.8,3.3,6c2.1,5.8,3.7,11.8,3.6,18c-0.1,6.2-2,12.4-6.2,17c-5.9,6.4-15.2,8.5-23.9,8.1c-8.7-0.3-17.2-2.6-25.8-3.4
			c-18.2-1.7-36.4,3.3-54.7,2.3c-3-0.2-6.2-0.5-8.8-2.1c-2.6-1.6-4.4-4.8-3.5-7.7c0.5-1.7,1.8-3,3.1-4.1c4.6-3.9,10.3-6.3,16.3-7
			c6.5-0.7,13.2,0.4,19.5-1.7c4.6-1.5,9.7-3.1,14.1-5C333.9,416,331.6,401,340.2,393z"/>
		<path class="st7" d="M202.6,421.9c4.3,5.4,11,8.3,17.7,10.1s13.6,2.8,20,5.2c1.9,0.7,4.2,2.5,3.4,4.4c-0.3,0.7-1,1.2-1.6,1.6
			c-4.9,3-11,3.6-16.7,3.1c-5.7-0.5-11.3-2-17-3c-6.4-1.1-12.9-1.5-19.4-1.3c-3.3,0.1-6.6,0.4-9.7-0.3c-3.2-0.8-6.2-2.9-7.1-6
			c-1.7-5.8,3.9-11.1,3.8-16.9c-0.1-5.3-3.9-11.1,1.8-14.8C190.1,396,197.3,415.3,202.6,421.9z"/>
		<path class="st6" d="M121.4,402.1c4.7,3,9.2,6.1,13.5,9.6c2.8,2.2,5.6,4.6,7,7.8c2.4,5.4,0.6,12.4,4.2,17
			c2.7,3.3,7.3,4.2,11.6,4.2c2.2,0,4.5-0.3,6-1.9c1.1-1.3,1.5-3,1.7-4.7c1.3-7.9,2.5-15.7,3.8-23.6c0.5-2.9,0.9-6.2-0.9-8.6
			c-2.1-3-6.4-3.2-9.9-4c-6.9-1.5-12.8-6-18.9-9.6c-5.5-3.2-16.5-8.1-22.7-3.8C108.5,390.1,115.6,398.4,121.4,402.1z"/>
		<path class="st8" d="M173.9,285.4c-7.7-2.1-15-6.1-23-6.6c-8-0.5-17.3,4-18.1,11.9c-0.7,6.1,3.8,11.6,8.6,15.4
			c4.8,3.8,10.4,7,13.7,12.2c2.5,4,3.3,8.9,5.1,13.3c5.9,14.5,23.3,23.1,38.4,19c4.3-1.2,8.4-3.3,12.8-4.2
			c8.8-1.9,18.3,0.8,26.7-2.4c7.4-2.9,12.5-10,14.8-17.6c2.3-7.6,2.3-15.7,2.3-23.6c0-7-0.6-12.1-7.3-14.8c-7.4-3-16.9-2.5-24.6-2.1
			C207,286.5,190.1,289.9,173.9,285.4z"/>
		<path class="st8" d="M290.8,280.1c6.1-4.4,14.3-6.4,21.4-3.9c7.9,2.8,13,10.5,20.4,14.4c11.7,6.1,27.6,2,37.7,10.5
			c1.9,1.6,3.5,3.7,4.1,6.1c1.2,4.9-2.1,9.9-6.2,12.8c-6.7,4.7-15.9,5.4-23.2,1.8c-5-2.4-9-6.7-14.3-8.3s-12.7,1.6-12.1,7.1
			c0.3,2.7,2.4,4.9,4.5,6.6c11.8,9.2,28,10.6,42.8,8.5c4-0.6,9.5-0.4,10.3,3.6c0.7,3.6-3.7,6-7.3,6.8c-9.8,2.3-20.1,2.6-30,0.8
			c-9.7-1.8-19.3-5.5-29.2-5.1c-11.5,0.4-22.7,6.4-34,4.5c-1.8-0.3-3.6-0.8-4.9-2c-1.1-1-1.8-2.4-2.4-3.9
			C261.5,322.3,275.5,291.2,290.8,280.1z"/>
	</g>
	<g>
		<path class="st9" d="M279.5,261.5c-15.9,14.7-20.8,45-22.3,66.6c-1.6,22.4-2.3,44.9-2.7,67.4c-0.1,7-0.1,14.4,3.5,20.5
			c3.6,6,12,9.8,17.8,5.8c5.3-3.6,5.7-11.2,5.6-17.7c-0.3-13.3-0.7-26.6-1-39.9c-0.4-17.4-0.8-35,2.6-52.1
			c3.6-17.6,11.4-30.9,23.4-43.9c3.3-3.6,4.9-4.5,2.4-9c-1.6-3-10.1-11.5-13.7-11.6C289,247.3,284.1,257.3,279.5,261.5z"/>
		<path class="st10" d="M267.1,223.5c-4.9,20.6,51.4,49.6,68.2,55.2c15.7,5.2,35.9-11.3,28.1-37.2c-2-6.6-16-12.9-17.7-20.6
			c-1.2-5.4,4.2-13.5,2.2-19.6c-5.5-17.4-21-11.3-27.8-3.3c-6.6,7.6-21.3-2.2-30.2,0C280.9,200.1,270.5,209.3,267.1,223.5z"/>
		<path class="st9" d="M236,313.8c-2.5,28.5-2.5,57-2.5,85.6c0,5.3,0,10.8,2.6,15.7c2.6,4.9,8.4,8.9,14.6,8.3
			c5.7-0.6,10.1-4.8,11.8-9.4s1.2-9.6,0.7-14.4c-3.8-37.5-6.2-75.6,0.3-112.8c1.9-10.9,3.9-20.6,6.8-31.3c5-18.7,8.3-38.2,15.1-56.5
			c1-2.6,2-5.3,1.7-8.1c-1-9.5-16.6-11.9-22.4-4.8c-8.2,10-10.1,29.3-13.3,41.1C243.8,255.5,238.6,284.5,236,313.8z"/>
		<path class="st11" d="M233.3,115.8c10.4-1.7,21.7,0.8,30.9-4.8c8.2-5,12.6-15.4,20.5-21c9.2-6.5,22.6-4.6,30,4.3
			c8.5,10.1,4.7,28,14.4,36.7c3.5,3.2,18.5,9.3,22.4,12c14.6,10.2,18.8,32.1,15.4,50.7c-1,5.6-2.8,11.4-6.6,15.3
			c-4.4,4.6-10.8,5.9-16.8,6.8c-29.9,4.6-67.8-1.3-96.8-11.5c-21.9-7.7-58.6-24.6-47.9-55.7C204.4,132.1,216.9,118.4,233.3,115.8z"
			/>
		<path class="st9" d="M181.1,238.9c0.6,26.3,5.8,53.1,9.5,79.1c3.2,22.3,6.9,45,16.1,65.7c4.1,9.2,24.8,47.2,34.2,21.7
			c3.7-9.9-5.6-21.1-9.7-29.2c-6.1-11.9-11-24.2-14.6-37.1c-6-21.4-9.5-44.1-12.1-66.2c-3.2-26,0.2-51.5,0.1-77.5
			c-0.1-11.5,2.1-18.2-10.5-20.3c-8.3-1.4-9.7-1-12.5,6.6c-2.1,5.9,0.6,14.4,0.8,20.6C182.6,214.4,180.8,226.6,181.1,238.9z"/>
		<path class="st12" d="M142,172.3c9.1,22.7,71.1,10.2,89.6,4c25.1-8.4,23.1-45.4,7.9-53.5c-6.8-3.6-22.7-1.1-29.2-7.2
			c-4.5-4.2-5.1-15.6-10.8-19.9c-16.3-12.5-26.1,3.9-27,16.1c-0.9,11.8-20.4,12.7-26.9,20.8C138.9,140.9,135.7,156.6,142,172.3z"/>
		<path class="st13" d="M327.5,173c-0.6,9.8-2.6,19.5-5.8,28.8c-0.5,1.4-1,2.7-1,4.2c0,1.4,0.7,3,2,3.6c0.8,0.4,1.7,0.4,2.6,0.3
			c7.4-0.3,14.8-1.6,21.9-4c3.8-1.3,7.9-3.1,9.8-6.7c1-1.9,1.3-4,1.6-6.1c1.6-12.4,1.4-25.9-5.3-36.5c-1.2-1.9-3.9-4-4.9-4.5
			c-0.1-0.1-1.6-0.9-2.5-1.2c-1.2-0.4-2.8-0.7-3.8-1.3c-2-1.2-3.9-1.3-6.2-2c-6.3-2-11.6-6.7-15.1-12.4c-3.5-5.7-5.1-12.3-5.6-18.9
			c-0.2-2.6-0.2-5.2-0.8-7.7c-0.5-2-1.4-3.9-2.3-5.8c-1.9-3.9-4.6-8.3-8.9-8.6c-0.8,0-1.7,0.1-2.2,0.7c-0.3,0.3-0.4,0.7-0.5,1.1
			c-1.4,4.5,1.4,9.2,3.3,13.6c2,4.8,2.8,10.2,2.3,15.4c-0.5,5.9-3.4,9.9,1,14.9c5.7,6.4,13.9,5.7,18,14.3
			C327.7,160,327.9,166.7,327.5,173z"/>
		<circle class="st14" cx="317.5" cy="237.7" r="2.9"/>
		<circle class="st14" cx="350.2" cy="255.6" r="2.9"/>
		<circle class="st14" cx="317.1" cy="184.6" r="4"/>
		<circle class="st14" cx="257.5" cy="173.9" r="4"/>
		<circle class="st14" cx="188" cy="156.3" r="2.9"/>
		<circle class="st14" cx="236.3" cy="157" r="2.9"/>
		<path class="st15" d="M279.5,200c2.3-0.2,4.6,0.1,6.8,0.7"/>
		<path class="st15" d="M321.4,256.6c2.1,0.8,4.1,2,5.8,3.5"/>
		<path class="st15" d="M211.3,169.9c2.2-0.7,4.5-0.9,6.8-0.8"/>
		<path class="st16" d="M148.3,142.6c-2.6,4.8-2.6,10.5-1.7,15.9c0.5,3.3,1.4,6.6,3.3,9.3c2.7,4,7.3,6.4,12.1,7.4
			c4.7,1,9.6,0.8,14.4,0.6c2-0.1,4.3-0.4,5.3-2.1c0.8-1.5,0.2-3.4-0.9-4.6s-2.7-2-4.1-2.9c-3.9-2.4-7.1-6-8.5-10.3s-0.9-9.3,1.8-13
			c3.2-4.2,8.8-6.1,12.1-10.2c4-5.2,3.4-12.4,2.6-18.9c-0.1-0.5-0.1-1-0.4-1.5c-0.8-1.3-2.9-1.2-4.1-0.2s-1.6,2.6-2.1,4.1
			c-2.4,6.8-6.2,12.1-12.9,14.5C158.6,133.1,151.7,136.3,148.3,142.6z"/>
		<path class="st17" d="M285,238.6c-0.8-1.3-0.9-2.8-1-4.3c-0.2-3.1-0.2-6.6,2.1-8.6c1.4-1.2,3.3-1.6,5.1-1.9
			c5.8-0.8,11.7-0.7,17.5,0.3c1.9,0.3,3.8,0.8,5.7,0.4c1.5-0.3,2.9-1,4.5-1.3c1.5-0.3,3.4,0.1,4.1,1.5c0.9,1.8-0.7,3.9-2.5,5
			c-1.6,1-3.5,1.7-5.4,2.1c-3.6,0.6-7.7,0.1-10.7,2.3c-4.1,3.1-1.2,10.5-5.4,12.3C295.2,248.1,286.8,241.5,285,238.6z"/>
		<path class="st18" d="M245.7,405c-0.6,3.8-1.4,8.3,1.5,10.8c2.9,2.4,7.8,0.5,9.6-2.9s1.5-7.4,1.2-11.2c-0.4-4.2-0.8-8.4-1.1-12.6
			c-0.5-5.5-1-11.1-1.5-16.6c-0.4-4.3-0.8-8.6-1.2-12.9c-0.6-7.2-1.3-14.4-1.9-21.6c-0.1-1.2-0.8-2.8-1.9-2.4
			c-0.7,0.2-0.9,1.1-1,1.9c-0.9,10,0.7,20.3-2.3,29.9c-2,6.5-5,12.2-3.1,19.1C245.7,392.7,246.8,398.3,245.7,405z"/>
		<path class="st18" d="M266.9,300.3c2.2-13.7,8.7-26.8,18.2-36.9c0.8-0.9,1.8-1.8,3-1.9c0.8-0.1,1.6,0.3,2.4,0.7
			c0.7,0.3,1.5,0.7,2,1.4c0.8,1.1,0.3,2.7-0.6,3.8c-0.9,1-3.9,3.6-4.5,4.8c-3.3,6-5.4,6.8-7.3,11.6c-4.6,11.3-10.6,18-10.8,30.3
			c-0.2,8.5-2.7,13-2.3,23c0.1,2.7,1.1,11-0.8,10c-3.6-2-2.6-14.8-1.8-21.7C265.3,316.2,265.4,309.3,266.9,300.3z"/>
		<path class="st18" d="M272,217c0.8,0.2,1.6,0.5,2.1,1.3c0.5,0.8,0.5,2.7,0.2,3.6c-1.8,6.9-2.6,10.7-4.8,17.2
			c-0.6,1.7-1.6,7.3-1.8,7.9c-1.1,4-2.7,8.7-4.7,17.4c-0.6,2.6-1.9,8-2.6,11c-0.8,3.5-1.1,7.3-1.7,10.8c-0.7,4.3-1.5,8.6-2.2,12.9
			c-0.2,1.2-0.5,2.5-1.3,3.5c-1.5-1.8-1.4-4.3-1.2-6.6c0.7-9.3,1.3-18.6,2-27.8c0.1-2,0.3-3.9,0.5-5.9c0.3-2.4,0.7-4.8,1.2-7.1
			c1.5-6.6,4-13,4.3-19.8c0.2-5.5-3.4-10.7-2.3-15.9C261.6,210.2,268.4,216,272,217z"/>
		<path class="st18" d="M198.6,189.7c0.3,0,0.6-0.1,0.8,0.1c0.2,0.1,0.3,0.3,0.3,0.5c0.7,2-0.1,4.3-1.8,5.6
			c-0.7,0.5-1.5,0.8-2.2,1.3c-0.9,0.7-1.5,1.7-2,2.7c-1.8,3.9-2.1,8.4-2.4,12.7c-0.4,7-0.9,14-1.3,21c-0.2,3.6-0.4,7.2-0.2,10.7
			c0.4,6.8,2.5,13.5,2.1,20.3c-0.1,1.1-0.4,2.4-1.4,2.7c-0.8,0.2-1.6-0.4-2-1.1s-0.4-1.6-0.4-2.4c-0.3-7.4-2.2-14.7-2.4-22.2
			c-0.1-3,0.1-6.1,0.2-9.1c0.3-4.6,0.5-9.2,0.8-13.8c0.1-2.2,0.2-4.3,0.5-6.5c0.2-1.6,0.5-3.2,0.6-4.8c0.1-2.8-0.4-5.6-0.8-8.3
			c-0.3-1.8-1-4.4,0-6.1C188.8,190,195.6,190.2,198.6,189.7z"/>
		<path class="st18" d="M197.9,332.2c-0.1-1.3-0.4-2.1-0.5-3.2c-0.1-1.1,0.7-2.5,1.7-2.1c0.3,0.1,0.6,0.4,0.8,0.6
			c1.6,1.8,2.7,4.1,3.3,6.5c0.5,2.1,0.5,4.4,1.1,6.5c0.5,1.9,1.9,7,2.7,8.9c3.9,9.4,4.2,16.8,10.2,25.1c3.3,4.6,8,8.1,11.7,12.3
			c3.8,4.3,6.7,9.9,5.5,15.5c-0.3,1.2-0.8,2.5-1.9,3.1c-1.9,1.1-4.2-0.4-5.9-1.9c-3.3-3-6.1-6.5-8.2-10.4c-1.2-2.2-2.3-4.5-3.4-6.8
			c-2.7-5.8-5.3-11.6-8-17.4c-1.3-2.8-2.6-5.6-3.5-8.6c-1-3-1.6-6.2-2.2-9.3c-1.1-5.5-2.1-11-3.2-16.5L197.9,332.2z"/>
		<path class="st18" d="M267,412.8c-0.3,1.5-0.4,3.3,0.5,4.5c1.1,1.4,3.2,1.7,4.8,1c1.6-0.7,2.8-2.2,3.6-3.8c2-3.8,2.4-8.5,1-12.5
			c-1.4-4.2-4.4-7.6-5.6-11.8c-0.8-2.7-0.8-5.6-1.1-8.4s0-8-2.8-7.9c-2.2,0.1-1.2,4.1-1.1,6.2c0.4,5.9,0.2,12.2,1.7,17.9
			C269.4,403.2,267.8,407.6,267,412.8z"/>
		<path class="st19" d="M211,415.7c-12.3-9.8-18.4-24.4-22.7-39.1c6.7,5.8,17.2,6.2,23,13.2c4.3-17,16.7-33.9,25.6-10
			c2.3,6.3,2.7,18.1,11.9,15.7c6-1.6,9.8-21.5,11.7-26.4c5.9,5.9,2.6,36.9,14.6,26.1c9.7-8.8,2.5-28,13.8-36.7
			c1.9,11.3,3.4,23.1,2.1,34.6c8.9-5.4,13.4-3.3,11.3,6.3c-2.3,10.5-13,17.7-21.9,21.6C257.6,430.9,230.4,431.1,211,415.7z"/>
		<path class="st20" d="M236.9,416.7c-1.3-2.9-3.3-5.7-3.1-8.8c0.2-3.2,3.5-5.8,6.6-5.3c3,0.5,5.4,3.3,8.5,3.3c2.1,0,4.1-1.4,5.4-3
			c1.4-1.6,2.4-3.5,3.8-5.1c0.4-0.5,0.9-0.9,1.4-1.1c0.9-0.3,1.9,0.1,2.6,0.8c0.7,0.7,1.1,1.6,1.5,2.4c1.4,2.7,3.6,5.4,6.6,5.5
			c2.5,0.2,4.7-1.4,6.4-3.2c1.7-1.7,3.3-3.8,5.6-4.8c0,1.6,0.1,3.5,1.5,4.5c0.5,0.4,1.2,0.5,1.7,0.8c1.8,1,2.4,3.6,1.7,5.5
			s-2.3,3.5-4,4.8c-6.6,4.9-14.8,7.1-23,8.2c-7.7,1-17.4,2.9-22.5-3.1C237.6,417.8,237.1,417.1,236.9,416.7z"/>
	</g>
	<g>
		<g>
			<path class="st21" d="M333,360.8c-0.3-1.2-0.5-2.4-0.6-3.6c-0.3-2.5-0.3-5-0.4-7.5c-0.2-5.2-0.3-10.4-0.3-15.6
				c0-5.1,0.3-10.2-0.1-15.2c-0.2-2.1-0.6-4.4-2.2-5.9c-1.4-1.3-3.5-1.4-4.9,0c-1.6,1.6-1.2,4.4-1.2,6.5c-0.1,2.5-0.1,5,0,7.5
				c0.1,2.6,0.6,5.1,1,7.6c0.3,2.2-1.2,3.6-3.2,3.9c-1.1,0.2-3.3,0.3-3.3-0.8c0-7.1,1.4-18.8-1.2-19.5c-8.9-2.2-3.4,9.8-7.1,12.6
				c-13.7,10.8-3.3-20.8-16.1-13.3c-6.5,3.8-3,30,0,34.7c9.6,15.4,21.3,8.5,23.5-7.5c0.1-0.7,2.3-0.3,3-0.3c1.2,0.1,1.7,0.1,2.9,0
				c1.1-0.1,2.3,0.5,2.4,1.8c0.1,1.3,0,1.1,0,2.5c0,2.3,0,4.6,0.5,6.9c0.5,2.2,1.7,4.2,2.2,6.4c0.3,1.5-0.2,4.1,1.6,4.8
				c1.8,0.7,4.2-0.9,4.3-2.8C333.6,363,333.2,361.9,333,360.8z M310,347.3c-2.4,7.8-13.5-0.1-10.6-6.7c1.2-2.7,7.5-2.2,10.2-2.1
				C311.1,338.5,310.3,346.4,310,347.3z"/>
			<path class="st21" d="M345.8,336.7c1.1-1.1,1.8-2.6,2.1-4.2c1.3-5.2,0.1-10.9,2-15.8c0.5-1.3,1.5-2.7,2.9-2.6
				c0.6,0,1.1,0.3,1.5,0.7c2.2,1.4,4.3,3.1,5.8,5.3c1.1,1.7,1.7,3.6,2.4,5.5c0.7,2.2,1.4,4.3,2.2,6.5c0.8,2.3,1.7,4.8,3.9,5.7
				c1.7,0.7,3.9,0.4,5,1.9c0.6,0.8,0.7,2,0.3,3c-0.4,1-1.2,1.7-2.2,2.2c-1.5,0.8-3.4,0.9-5.1,0.3c-2-0.7-3.6-2.5-4.7-4.4
				s-1.7-4-2.5-6.1c-0.6-1.5-1.2-3-2.4-4.1c-0.3-0.3-0.7-0.6-1.2-0.7c-1.4-0.3-2.6,1-3.1,2.3c-0.9,2.4-0.8,5.3-2.1,7.5
				c-0.5,0.8-1.2,1.5-1.9,2.1c-1.3,1.1-2.9,1.9-4.5,2.4c-0.6,0.2-1.3,0.3-1.9,0.2c-1.2-0.2-2.1-1.4-2.2-2.7
				c-0.1-1.4,0.6-3.1,1.9-3.4C343.5,337.7,344.6,337.9,345.8,336.7z"/>
			<path class="st21" d="M364,363.8c1.2-0.8,1.9-1.9,2.3-3c1.4-3.7,0-7.7,2-11.3c0.5-0.9,1.6-1.9,3.1-1.8c0.6,0,1.1,0.3,1.7,0.5
				c2.4,1,4.7,2.2,6.2,3.8c1.2,1.2,1.9,2.6,2.5,3.9c0.8,1.5,1.6,3.1,2.3,4.6c0.8,1.6,1.9,3.4,4.2,4.1c1.8,0.5,4.2,0.3,5.4,1.4
				c0.7,0.6,0.7,1.4,0.3,2.1s-1.3,1.2-2.3,1.5c-1.7,0.6-3.7,0.6-5.4,0.2c-2.2-0.5-3.9-1.8-5-3.1c-1.2-1.4-1.9-2.9-2.7-4.4
				c-0.6-1.1-1.3-2.2-2.6-3c-0.4-0.2-0.8-0.5-1.3-0.5c-1.5-0.2-2.7,0.7-3.3,1.6c-1,1.7-0.8,3.7-2.2,5.3c-0.5,0.6-1.2,1.1-2,1.5
				c-1.4,0.8-3.1,1.3-4.8,1.7c-0.7,0.1-1.4,0.2-2,0.1c-1.3-0.2-2.3-1-2.4-1.9c-0.1-1,0.7-2.2,2-2.4
				C361.5,364.6,362.7,364.7,364,363.8z"/>
			<path class="st21" d="M372.5,326.4c-2.3-2.8-0.1-5.4,0.8-5.7c0.7-0.2,4.5-0.3,5.2-1.1c0.6-0.8,0.7-6.4,1.3-6.6
				c10.8-4.2,9.3,11.4,9.7,20.8c0.2,4,1.9,16.6-0.8,19.7c-3.6,4.3-4.9-1.8-5.8-5.3c-1.1-4.3,1.1-14.6-1.6-18.3
				C378.6,326.2,375,329.6,372.5,326.4z"/>
		</g>
		<g>
			<path class="st21" d="M175.3,384.3c-0.9-1-6.4-1.8-7.7-1.8c-10.5-0.2-11.3-0.7-20.6-0.8c0.1-1.9-0.2-3.9-0.3-4.9
				c0-0.5,0-1.1,0.4-1.4c0.3-0.2,0.7-0.2,1.1-0.2c4,0.4,8,1.5,12,2.1c4,0.6,8.2,0.7,12-0.7c0.3-0.1,0.6-0.2,0.8-0.5
				c0.3-0.3,0.3-0.7,0.3-1.2c0.4-6.5,0.3-13-0.2-19.4c-0.2-2-0.5-4.3-2.2-5.4c-1.1-0.7-2.5-0.7-3.9-0.6c-0.3,0-0.6,0.1-0.8,0.3
				c-0.4,0.3-0.4,1-0.4,1.6c0.1,1.3,0.2,2.5,0.3,3.8c-0.4,0-0.8,0-1.2,0c-4.4-0.1-8.8-0.1-13.2-0.1c-7.6,0-15.3,0.1-22.9-0.2
				c-0.6,0-1.3-0.1-2-0.1c-0.1-1.3-0.3-2.6-0.8-3.7c-0.6-1.5-1.7-2.9-3.3-3.4c-0.9-0.3-1.8-0.2-2.8-0.2c-0.9,0-2,0.1-2.6,0.8
				c-0.7,0.8-0.6,2.1-0.4,3.1c0.7,5.6-0.3,11.3-0.4,17c0,1.5,0,2.9,0.4,4.4c0.1,0.4,0.2,0.8,0.5,1c0.3,0.3,0.8,0.3,1.2,0.3
				c7.1,0.1,14.2,0.3,21.3,0.6c0.3,0,0.7,0,0.9,0.3c0.2,0.2,0.1,0.5,0.1,0.8c-0.2,1.3-0.3,3.8,0,5.9c-6.2-0.3-15.1-1.1-19.6-1.7
				c-1.3-0.2-3.9-1-5,0.3c-1.3,1.5-0.1,4.3,1.2,5.2c0.9,0.6,1.9,0.7,2.8,0.8c17.4,2.2,34.8,3.2,52.3,3c1,0,2.1-0.1,2.8-0.9
				C176.6,387.3,176.3,385.4,175.3,384.3z M130.4,369.1c-0.8,0-1.8-0.1-2.3-0.9c-0.2-0.4-0.3-0.8-0.3-1.3c-0.2-2.2-0.3-4.4-0.5-6.6
				h0c2.7,0.2,5.4,0.3,8.1,0.5c9.9,0.6,19.8,1.3,29.8,1.1c0.6,0,1.1,0,1.7-0.1c0.2,1.9,0.3,3.8,0.1,5.7c-0.1,0.7-0.2,1.4-0.6,1.9
				c-0.8,1-2.2,1-3.5,1C152.1,370.1,141.3,369.6,130.4,369.1z"/>
			<path class="st21" d="M123.1,397.4c0.1,0.8,0.1,1.7,0.6,2.3c0.6,1,1.8,1.4,3,1.7c2.8,0.7,5.7,0.9,8.6,1.1
				c10.6,0.7,21.2,1.5,31.9,1.4c1.9,0,4.3-0.4,4.8-2.3c0.3-1.3-0.7-2.7-1.9-3.3s-2.7-0.5-4-0.5c-11.3,0.3-22.6,0.1-33.9-0.5
				c-0.5,0-1.1-0.1-1.6-0.3c-0.6-0.3-0.9-0.9-1.1-1.4c-1-2.5-0.6-6.5-4.5-6.4C121.1,389.4,122.9,395,123.1,397.4z"/>
		</g>
		<path class="st21" d="M112.3,306.1c-1.3,0.1-3-1.3-2.7-2.2c0.5-1.4,2.8-4.4,3.2-4.9c5.6-6.4,8.6-9.7,14.2-16.2
			c1.1-1.3,1.3-1.8,3.9-1.8c0.6,0,2.6,0.2,2.9,2.6c2.4,17.1-0.9,34-2.6,51.2c-0.9,1.5-3.3,1.6-4.3,0.3c-0.6-0.7,1.5-22,1.6-22.9
			c0.7-12.7-0.1-14.7,0-16.3C128.9,285.2,114.1,306,112.3,306.1z"/>
		<path class="st21" d="M167.1,288.9c-2.5-2.2-5.8-3.3-8.9-4.4c-19.3-6.6-17.7,17.6-15.3,30.6c0.8,4.3,2.1,8.5,4.7,12
			c2.6,3.5,6.7,6,11,5.8c5-0.2,9.4-4.1,11.5-8.6s2.6-9.7,2.8-14.8C173.2,302.1,172.7,293.7,167.1,288.9z M166,308.9
			c-0.1,2.8-0.3,5.7-1.5,8.2c-1.2,2.5-3.6,4.7-6.4,4.8c-2.4,0.1-4.7-1.3-6.1-3.2c-1.4-1.9-2.1-4.3-2.6-6.7c-1.4-7.3-2.2-20.7,8.5-17
			c1.8,0.6,3.6,1.2,5,2.4C165.9,300.1,166.1,304.8,166,308.9z"/>
	</g>
</g>
</svg>
