<?xml version="1.0" encoding="utf-8"?>
<!-- Generator: Adobe Illustrator 22.0.0, SVG Export Plug-In . SVG Version: 6.00 Build 0)  -->
<svg version="1.1" id="Слой_1" xmlns="http://www.w3.org/2000/svg" xmlns:xlink="http://www.w3.org/1999/xlink" x="0px" y="0px"
	 viewBox="0 0 500 500" style="enable-background:new 0 0 500 500;" xml:space="preserve">
<style type="text/css">
	.st0{fill:#555B6E;}
	.st1{fill:#E7DFC6;}
	.st2{fill:none;stroke:#FFCFC2;stroke-width:4;stroke-miterlimit:10;}
	.st3{fill:#FFFFFF;}
	.st4{fill:#FF6767;stroke:#FFCFC2;stroke-width:3;stroke-miterlimit:10;}
	.st5{fill:#F09872;stroke:#FFCFC2;stroke-width:3;stroke-miterlimit:10;}
	.st6{fill:#914E3D;stroke:#FFCFC2;stroke-width:3;stroke-miterlimit:10;}
	.st7{fill:#E0FF59;stroke:#FFCFC2;stroke-width:3;stroke-miterlimit:10;}
	.st8{display:none;fill:#E0FF59;}
	.st9{fill:#B1D056;}
	.st10{fill:#89B655;}
	.st11{fill:#FFF88B;}
	.st12{fill:#561A15;stroke:#FFCFC2;stroke-width:3;stroke-miterlimit:10;}
	.st13{fill:#FF3434;}
	.st14{fill:#F46060;}
	.st15{fill:#F3D179;}
	.st16{fill:#FF9393;}
	.st17{fill:#903426;}
	.st18{fill:#C6623A;}
	.st19{display:none;fill:#B1D056;}
	.st20{fill:#FF779A;}
</style>
<g>
	<path class="st0" d="M62.3,465.4c0,5,4.4,9,9.9,9s9.9,4,9.9,9s4.4,9,9.9,9c5.5,0,9.9-4,9.9-9s4.4-9,9.9-9c5.5,0,9.9,4,9.9,9
		s4.4,9,9.9,9s9.9-4,9.9-9s4.4-9,9.9-9s9.9,4,9.9,9s4.4,9,9.9,9c5.5,0,9.9-4,9.9-9s4.4-9,9.9-9c5.5,0,9.9,4,9.9,9s4.4,9,9.9,9
		c5.5,0,9.9-4,9.9-9s4.4-9,9.9-9c5.5,0,9.9,4,9.9,9s4.4,9,9.9,9s9.9-4,9.9-9s4.4-9,9.9-9c5.5,0,9.9,4,9.9,9s4.4,9,9.9,9s9.9-4,9.9-9
		s4.4-9,9.9-9c5.5,0,9.9,4,9.9,9s4.4,9,9.9,9s9.9-4,9.9-9s4.4-9,9.9-9s9.9,4,9.9,9s4.4,9,9.9,9c5.5,0,9.9-4,9.9-9s4.4-9,9.9-9
		s9.9,4,9.9,9s4.4,9,9.9,9c5.5,0,9.9-4,9.9-9l0,0.3c0-5,4.4-9,9.9-9s9.9-4,9.9-9s-4.4-9-9.9-9s-9.9-4-9.9-9s4.4-9,9.9-9s9.9-4,9.9-9
		c0-5-4.4-9-9.9-9s-9.9-4-9.9-9c0-5,4.4-9,9.9-9s9.9-4,9.9-9s-4.4-9-9.9-9s-9.9-4-9.9-9s4.4-9,9.9-9s9.9-4,9.9-9c0-5-4.4-9-9.9-9
		s-9.9-4-9.9-9s4.4-9,9.9-9s9.9-4,9.9-9s-4.4-9-9.9-9s-9.9-4-9.9-9c0-5,4.4-9,9.9-9s9.9-4,9.9-9s-4.4-9-9.9-9s-9.9-4-9.9-9
		s4.4-9,9.9-9s9.9-4,9.9-9c0-5-4.4-9-9.9-9s-9.9-4-9.9-9c0-5,4.4-9,9.9-9s9.9-4,9.9-9c0-5-4.4-9-9.9-9s-9.9-4-9.9-9c0-5,4.4-9,9.9-9
		s9.9-4,9.9-9s-4.4-9-9.9-9s-9.9-4-9.9-9c0-5,4.4-9,9.9-9s9.9-4,9.9-9c0-5-4.4-9-9.9-9s-9.9-4-9.9-9c0-5,4.4-9,9.9-9s9.9-4,9.9-9
		s-4.4-9-9.9-9s-9.9-4-9.9-9s4.4-9,9.9-9s9.9-4,9.9-9s-4.4-9-9.9-9s-9.9-4-9.9-9s4.4-9,9.9-9s9.9-4,9.9-9s-4.4-9-9.9-9h0
		c-5.5,0-9.9-4-9.9-9s-4.4-9-9.9-9c-5.5,0-9.9,4-9.9,9s-4.4,9-9.9,9s-9.9-4-9.9-9s-4.4-9-9.9-9c-5.5,0-9.9,4-9.9,9s-4.4,9-9.9,9
		s-9.9-4-9.9-9s-4.4-9-9.9-9s-9.9,4-9.9,9s-4.4,9-9.9,9c-5.5,0-9.9-4-9.9-9s-4.4-9-9.9-9s-9.9,4-9.9,9s-4.4,9-9.9,9
		c-5.5,0-9.9-4-9.9-9s-4.4-9-9.9-9s-9.9,4-9.9,9s-4.4,9-9.9,9c-5.5,0-9.9-4-9.9-9s-4.4-9-9.9-9c-5.5,0-9.9,4-9.9,9s-4.4,9-9.9,9
		c-5.5,0-9.9-4-9.9-9s-4.4-9-9.9-9c-5.5,0-9.9,4-9.9,9s-4.4,9-9.9,9s-9.9-4-9.9-9s-4.4-9-9.9-9s-9.9,4-9.9,9s-4.4,9-9.9,9
		c-5.5,0-9.9-4-9.9-9s-4.4-9-9.9-9c-5.5,0-9.9,4-9.9,9h0c0,5-4.4,9-9.9,9c-5.5,0-9.9,4-9.9,9s4.4,9,9.9,9c5.5,0,9.9,4,9.9,9
		s-4.4,9-9.9,9c-5.5,0-9.9,4-9.9,9s4.4,9,9.9,9c5.5,0,9.9,4,9.9,9s-4.4,9-9.9,9c-5.5,0-9.9,4-9.9,9s4.4,9,9.9,9c5.5,0,9.9,4,9.9,9
		c0,5-4.4,9-9.9,9c-5.5,0-9.9,4-9.9,9c0,5,4.4,9,9.9,9c5.5,0,9.9,4,9.9,9c0,5-4.4,9-9.9,9c-5.5,0-9.9,4-9.9,9s4.4,9,9.9,9
		c5.5,0,9.9,4,9.9,9c0,5-4.4,9-9.9,9c-5.5,0-9.9,4-9.9,9c0,5,4.4,9,9.9,9c5.5,0,9.9,4,9.9,9c0,5-4.4,9-9.9,9c-5.5,0-9.9,4-9.9,9
		c0,5,4.4,9,9.9,9c5.5,0,9.9,4,9.9,9s-4.4,9-9.9,9c-5.5,0-9.9,4-9.9,9s4.4,9,9.9,9c5.5,0,9.9,4,9.9,9c0,5-4.4,9-9.9,9
		c-5.5,0-9.9,4-9.9,9s4.4,9,9.9,9c5.5,0,9.9,4,9.9,9s-4.4,9-9.9,9c-5.5,0-9.9,4-9.9,9c0,5,4.4,9,9.9,9c5.5,0,9.9,4,9.9,9
		s-4.4,9-9.9,9c-5.5,0-9.9,4-9.9,9s4.4,9,9.9,9c5.5,0,9.9,4,9.9,9c0,5-4.4,9-9.9,9c-5.5,0-9.9,4-9.9,9c0,5,4.4,9,9.9,9
		c5.5,0,9.9,4,9.9,9s-4.4,9-9.9,9c-5.5,0-9.9,4-9.9,9"/>
	<path class="st1" d="M390.5,456.8H108.1c-4.3,0-7.7-3.5-7.7-7.7V51c0-4.3,3.5-7.7,7.7-7.7h282.4c4.3,0,7.7,3.5,7.7,7.7v398
		C398.3,453.3,394.8,456.8,390.5,456.8z"/>
	<path class="st2" d="M396.6,465.7H103.4c-6.8,0-12.3-5.5-12.3-12.3V46.6c0-6.8,5.5-12.3,12.3-12.3h293.2c6.8,0,12.3,5.5,12.3,12.3
		v406.8C408.9,460.2,403.4,465.7,396.6,465.7z"/>
	<g>
		<g>
			<g>
				<path class="st3" d="M198.1,207c0.9,2.2,0.9,4.7,0.4,7.1c-0.5,2.4-1.6,4.7-3,6.7c-1.3,2-2.8,3.8-4.2,5.5c-1.4,1.7-2.8,3.4-4,5.1
					c-2.5,3.5-4.7,7.2-6.6,11.2c-1.9,4-3.4,8.1-4.9,12.5c-0.6-4.6,0-9.4,1.3-13.9c1.3-4.5,3.4-8.9,6.2-12.7c1.4-1.9,3-3.8,4.6-5.4
					c1.6-1.6,3.2-3.2,4.6-4.8c1.5-1.6,2.7-3.2,3.8-5.1C197.2,211.4,197.9,209.3,198.1,207z"/>
			</g>
			<g>
				<path class="st3" d="M173.4,267.1c-0.1,3.4-0.4,6.7-0.7,10.1c-0.3,3.3-0.8,6.7-1.1,9.9c-0.1,1.6-0.2,3.2-0.1,4.7
					c0.1,1.5,0.3,3,0.6,4.6c0.7,3,1.7,6.1,2.8,9.3c1,3.2,2,6.7,2.2,10.3c0.1,1.8,0,3.7-0.3,5.5c-0.4,1.9-1,3.7-2.1,5.3
					c-2.1,3.3-5.5,5.6-9.3,6c-1.9,0.1-3.9-0.3-5.4-1.3c-0.7-0.4-1.4-0.9-2.1-1.2c-0.7-0.4-1.5-0.6-2.3-0.6c0.8-0.3,1.7-0.3,2.6-0.2
					c0.9,0.2,1.7,0.5,2.5,0.7c1.5,0.5,3,0.5,4.4,0.1c2.8-0.8,5.1-3,6.3-5.5c0.6-1.2,1-2.6,1.1-4.1c0.2-1.4,0.1-2.9,0-4.4
					c-0.2-1.5-0.5-3-0.9-4.6c-0.4-1.5-0.9-3.1-1.4-4.6c-1-3.1-2.1-6.4-2.7-10c-0.3-1.8-0.4-3.6-0.3-5.4c0.1-1.8,0.3-3.6,0.6-5.3
					c0.7-3.4,1.6-6.6,2.5-9.8C171.2,273.5,172.2,270.3,173.4,267.1z"/>
			</g>
			<g>
				<path class="st3" d="M159.6,318.9c-3.8-2.1-8.6-1.1-11.2,1.6c-1.3,1.3-2,3.2-2.2,5.1c-0.3,1.9-0.3,4-0.2,6.1
					c0.1,2.1,0.2,4.3,0.3,6.5c0,1.1,0.1,2.1,0.2,2.7c0.2,0.5,0.4,0.9,1,1.4c1.1,0.9,3.2,1.6,5.1,2.3c1.9,0.6,4,1.1,6,1.6
					c4.1,1,8.6,2,12.8,4.1c2.1,1.1,4.1,2.5,5.8,4.2c1.7,1.7,3.1,3.6,4.2,5.6c1.1,2,2.1,4.1,2.7,6.3c0.7,2.2,1.1,4.3,1.4,6.5
					c0.6,4.4,0.7,8.7,0.5,13.1c-1-4.2-1.7-8.5-2.9-12.6c-1.2-4.1-2.8-7.9-5.1-11.2c-0.6-0.8-1.2-1.6-1.9-2.3
					c-0.6-0.7-1.3-1.4-2.1-2.1c-1.5-1.3-3.1-2.3-4.9-3.1c-3.6-1.7-7.6-2.5-11.9-3.5c-2.1-0.5-4.3-1.1-6.4-1.8
					c-1.1-0.4-2.2-0.8-3.2-1.3c-1.1-0.5-2.2-1.1-3.3-2c-0.5-0.5-1.1-1-1.5-1.7c-0.4-0.7-0.8-1.5-1-2.2c-0.3-1.5-0.2-2.7-0.2-3.8
					c0-2.2,0.1-4.3,0.2-6.5c0.1-2.2,0.2-4.5,0.9-6.8c0.6-2.3,1.8-4.6,3.8-6.2c2-1.5,4.3-2.2,6.7-2.2
					C155.8,316.6,158.1,317.4,159.6,318.9z"/>
			</g>
			<g>
				<path class="st3" d="M206.6,191.9c-0.4,0.7-1.2,1.3-2,1.5c-0.9,0.3-1.8,0.3-2.7,0.1c-1.8-0.5-3.3-1.9-4.3-3.3
					c-1-1.5-1.8-3.1-2.3-4.8c-0.5-1.7-0.8-3.4-0.9-5.2c-0.2-3.5,0.2-6.9,0.7-10.1c0.5-3.3,1.2-6.4,1.6-9.5c0.4-3.1,0.8-6.3,1-9.5
					c0.1-1.5,0.1-3-0.1-4.2c-0.3-1.2-0.7-2.2-1.6-2.9c-0.9-0.7-2.3-1.3-3.8-1.8c-1.5-0.5-3.1-0.9-4.6-1.4c-3.1-0.9-6.3-1.5-9.5-2.2
					c3.3-0.4,6.6-0.4,9.9-0.2c1.7,0.1,3.3,0.3,5,0.6c1.6,0.3,3.5,0.6,5.3,1.7c0.9,0.5,1.7,1.3,2.3,2.2c0.6,0.9,1,1.9,1.3,2.8
					c0.6,1.9,0.6,3.8,0.6,5.5c0,3.4-0.3,6.7-0.8,10c-0.9,6.7-3,12.8-3.3,18.9c-0.1,3,0.2,6,1.4,8.8c0.6,1.3,1.5,2.5,2.7,3.2
					c0.6,0.3,1.3,0.5,2.1,0.5C205.2,192.7,206,192.4,206.6,191.9z"/>
			</g>
			<g>
				<path class="st3" d="M184.2,149.7c-4.4,2.3-9.2,3.7-14.2,4.4c-2.5,0.3-5,0.4-7.6,0.3c-2.6-0.1-5.2-0.7-7.7-1.8
					c-1.3-0.6-2.5-1.3-3.6-2.3c-1.1-1-2-2.3-2.6-3.7c-0.6-1.4-0.9-3-0.8-4.5c0-1.5,0.3-2.9,0.8-4.2c0.8-2.7,2.2-4.9,3.4-7.1
					c1.3-2.1,2.5-4.1,3.6-6.2c2.2-4.2,4-8.5,4.9-13c1-4.5,1.1-9.1,0.1-13.6c-1-4.4-3.2-8.6-6.7-11.6c-3.4-3.1-8.1-5-13-4.9
					c2.4-0.6,5-0.6,7.5-0.1c2.5,0.5,4.9,1.6,7,3c2.1,1.5,4,3.3,5.6,5.5c1.5,2.1,2.6,4.6,3.4,7.1c1.6,5,1.7,10.4,0.8,15.5
					c-0.9,5.1-2.8,9.9-5.2,14.4c-1.2,2.2-2.5,4.4-3.8,6.5c-1.3,2-2.4,4-3.1,6c-0.7,2-0.9,3.9-0.3,5.6c0.6,1.7,2,3.2,3.8,4.2
					c3.8,2.1,8.7,2.6,13.4,2.6C174.7,151.7,179.5,151,184.2,149.7z"/>
			</g>
			<g>
				<path class="st3" d="M126.1,54.4c0.6,1.5,1.4,2.8,2.3,4c0.9,1.2,1.9,2.3,3.1,3.3c2.2,2,4.9,3.4,7.6,4.7
					c5.4,2.5,11.4,3.4,17.6,5.1c1.5,0.4,3.1,0.8,4.6,1.3c1.5,0.5,3.1,1.1,4.6,1.8c1.5,0.7,3,1.4,4.4,2.4c1.4,1,2.7,2,3.9,3.2
					c2.4,2.4,4.3,5.3,5.4,8.5c0.5,1.6,0.8,3.3,0.8,4.9c-0.1,1.7-0.4,3.3-1,4.7c0.1-1.6,0-3.1-0.3-4.6c-0.4-1.5-0.9-2.8-1.6-4.1
					c-1.4-2.6-3.5-4.7-5.7-6.5c-1.1-0.9-2.4-1.7-3.6-2.4c-1.3-0.7-2.6-1.3-4-1.8c-2.8-1.1-5.7-1.9-8.7-2.7c-3-0.8-6.1-1.5-9.1-2.5
					c-1.5-0.5-3.1-1-4.6-1.7c-1.5-0.7-3-1.4-4.4-2.2c-1.4-0.9-2.8-1.8-4.1-2.9c-1.2-1.1-2.4-2.3-3.5-3.6c-1-1.3-1.9-2.8-2.5-4.3
					C126.6,57.6,126.2,56,126.1,54.4z"/>
			</g>
			<g>
				<path class="st3" d="M187.2,84.5c0.9-2.7,2-5.3,3-7.9c1.1-2.6,2.2-5.1,3.5-7.7c1.3-2.5,2.8-5.1,4.8-7.4c1-1.1,2.1-2.2,3.2-3.2
					c1.2-1,2.4-1.8,3.6-2.6c5.1-3.2,10.8-4.9,16.5-5.6c5.7-0.7,11.4-0.6,17,0c-5.5,1.4-11,2.4-16.2,3.8c-5.2,1.4-10.2,3.3-14.6,6
					c-2.2,1.4-4.2,3-6,4.8c-1.8,1.8-3.4,4-4.9,6.2c-1.6,2.2-3.1,4.6-4.7,6.9C190.7,80.1,189.1,82.3,187.2,84.5z"/>
			</g>
			<g>
				<path class="st3" d="M312,116c0.6,2.2,0.9,4.5,1.1,6.7c0.1,2.3,0.1,4.6,0.1,6.8c-0.2,4.5-0.5,9-0.4,13.4
					c0.1,4.3,0.8,8.5,2.5,12.3c1.7,3.8,4.1,7.3,7,10.6c2.8,3.3,6.1,6.2,9.3,9.5c1.6,1.7,3.2,3.5,4.6,5.5c1.3,2.1,2.4,4.3,3.2,6.5
					c1.5,4.6,1.9,9.3,1.7,13.9c-0.2,4.6-0.9,9.1-1.9,13.5c-0.2-4.5-0.1-9-0.6-13.5c-0.4-4.4-1.3-8.7-2.9-12.6
					c-0.8-1.9-1.9-3.7-3.1-5.4c-1.3-1.6-2.7-3.2-4.3-4.7l-4.9-4.6c-1.7-1.6-3.3-3.3-4.8-5c-3.1-3.5-5.8-7.5-7.6-12
					c-0.4-1.1-0.8-2.3-1.1-3.5c-0.2-0.6-0.3-1.2-0.4-1.8c-0.1-0.6-0.2-1.2-0.3-1.8c-0.3-2.4-0.3-4.8-0.2-7.1
					C309.4,133.6,312.3,125.1,312,116z"/>
			</g>
			<g>
				<path class="st3" d="M282.1,56.2c3.6,3,7.8,5,12.2,6.5c4.3,1.6,8.8,3,13.2,5.1c2.2,1.1,4.4,2.3,6.3,3.9c2,1.6,3.8,3.5,5.2,5.7
					c1.4,2.2,2.4,4.7,2.8,7.5c0.2,1.4,0.2,2.8,0,4.2c-0.2,1.4-0.6,2.7-1,3.9c-0.9,2.4-1.9,4.4-2.3,6.2c-0.2,0.9-0.2,1.7,0,2.6
					c0.1,0.8,0.5,1.7,0.9,2.5c0.9,1.7,2.4,3.2,4,4.5c1.7,1.2,3.5,2.2,5.5,2.8c1,0.3,2,0.5,3,0.5c1,0.1,2.1,0,3.1-0.2
					c1-0.2,2-0.5,2.9-0.9c0.9-0.5,1.7-1.1,2.5-1.8c0.8-0.7,1.5-1.6,2-2.5c0.5-0.9,1-1.9,1.3-3c0.3-1.1,0.4-2.2,0.4-3.3
					c-0.1-1.1-0.4-2.2-0.8-3.3c0.7,0.9,1.2,2,1.6,3.2c0.3,1.2,0.3,2.4,0.2,3.7c-0.1,1.2-0.5,2.5-0.9,3.6c-0.5,1.2-1.2,2.3-1.9,3.3
					c-0.8,1-1.8,1.9-2.9,2.6c-1.1,0.7-2.3,1.3-3.6,1.6c-2.5,0.7-5.2,0.7-7.8,0.2c-1.3-0.3-2.5-0.6-3.7-1.1c-1.2-0.5-2.4-1.1-3.4-1.9
					c-2.2-1.5-4.1-3.3-5.6-5.6c-0.7-1.2-1.3-2.5-1.6-4c-0.3-1.5-0.3-3-0.1-4.4c0.5-2.8,1.7-5,2.4-7c0.4-1,0.7-1.9,0.8-2.9
					c0.1-0.9,0.2-1.9,0-2.8c-0.2-1.9-0.9-3.8-2-5.6c-1-1.8-2.4-3.4-4-4.8c-1.6-1.4-3.4-2.7-5.3-3.8c-3.9-2.3-8.2-4.1-12.4-6.3
					C289.1,62.7,284.9,60,282.1,56.2z"/>
			</g>
			<g>
				<path class="st3" d="M329.7,92.8c-0.7-1.2-1.2-2.6-1.5-4c-0.2-1.4-0.2-2.9,0.1-4.3c0.2-1.5,0.7-2.9,1.4-4.2
					c0.6-1.3,1.5-2.6,2.5-3.7c1-1.1,2.2-2.1,3.6-2.8c1.3-0.8,2.8-1.3,4.3-1.7c3-0.7,6.2-0.5,9.1,0.2c1.5,0.4,2.9,0.9,4.3,1.6
					c1.4,0.7,2.7,1.5,3.9,2.5c2.4,1.9,4.4,4.3,5.9,7c3.1,5.3,4.4,11.3,4.3,17.3c0,1.5-0.1,3-0.4,4.6c-0.3,1.5-0.7,3-1.2,4.5
					c-1.1,2.8-2.4,5.3-3.5,7.8c-2.4,4.9-4.3,10-5.9,15.2c-1.4,5.2-2.4,10.6-2.2,16c0.1,2.7,0.4,5.5,1,8.1c0.4,1.3,0.8,2.6,1.6,3.7
					c0.7,1.1,1.8,2.1,3.1,2.6c-1.4-0.3-2.7-1.1-3.6-2.2c-1-1.1-1.7-2.4-2.3-3.7c-1.1-2.7-1.7-5.5-2.2-8.3c-0.4-2.8-0.5-5.7-0.3-8.6
					c0.2-2.9,0.6-5.7,1.2-8.5c1.2-5.6,3.1-11,5.3-16.3c1.1-2.6,2.4-5.1,3.2-7.5c0.4-1.2,0.8-2.4,1-3.6c0.2-1.2,0.3-2.5,0.3-3.8
					c0-5.2-1-10.4-3.5-14.9c-1.2-2.2-2.8-4.3-4.6-5.9c-1.9-1.6-4.1-2.9-6.5-3.7c-2.4-0.8-5-1.1-7.4-0.7c-2.5,0.3-4.9,1.3-6.8,3
					c-2,1.6-3.5,3.9-4.3,6.5C328.8,87.4,328.8,90.2,329.7,92.8z"/>
			</g>
			<g>
				<path class="st3" d="M341.2,126.8c-2.5-0.3-4.8,0.4-6.7,1.8c-1.9,1.3-3.4,3.1-4.4,5.2c-1,2-1.5,4.2-1.3,6.4
					c0.1,2.2,0.7,4.4,1.6,6.4c1.8,4.1,4.8,7.7,8.1,11c3.4,3.3,7.1,6.4,10.6,10.1c1.7,1.8,3.4,3.9,4.8,6c1.4,2.1,2.6,4.2,3.9,6
					c0.7,0.9,1.4,1.7,2.1,2.5c0.8,0.7,1.6,1.4,2.4,1.9c1.8,1,3.6,1.5,5.5,1c1.8-0.4,3.5-1.7,5.1-3.4c1.5-1.7,2.8-3.7,4.2-5.7
					c1.5-2,3.1-4,5.2-5.5c1-0.7,2.2-1.4,3.4-1.7c1.2-0.3,2.5-0.4,3.7-0.1c-2.5,0-4.6,1.3-6.2,2.9c-1.6,1.7-2.9,3.7-4,5.8
					c-1.1,2.1-2.3,4.4-3.8,6.5c-0.8,1.1-1.7,2.1-2.7,3c-1.1,0.9-2.4,1.7-3.8,2.1c-1.4,0.5-3,0.6-4.5,0.4c-1.5-0.2-2.9-0.7-4.2-1.3
					c-2.5-1.3-4.6-3.3-6.2-5.4c-1.6-2.1-2.9-4.2-4.2-6.1c-1.3-1.9-2.7-3.7-4.3-5.4c-3.2-3.4-6.9-6.6-10.4-10.2
					c-3.5-3.7-6.7-7.9-8.4-12.9c-0.8-2.5-1.4-5.2-1.2-7.8c0.1-2.7,1.1-5.4,2.5-7.6c0.8-1.1,1.6-2.1,2.6-3c1-0.9,2-1.6,3.2-2.2
					c1.2-0.6,2.4-0.9,3.7-1C338.8,126.2,340.1,126.4,341.2,126.8z"/>
			</g>
			<g>
				<path class="st3" d="M375,205.2c-3.8,2.6-7.6,5-10.9,7.9c-1.7,1.4-3.3,2.9-4.7,4.6c-1.4,1.6-2.6,3.4-3.4,5.2
					c-1.7,3.7-2.1,7.8-1.6,12.1c0.4,4.2,1.5,8.6,2.2,13.2c0.3,2.3,0.5,4.7,0.5,7.2c-0.1,2.4-0.4,5-1.2,7.3
					c-1.5,4.7-4.2,8.8-7.5,12.3c-1.6,1.7-3.3,3.3-5.1,4.8c-1.8,1.4-3.5,2.8-5,4.4c-1.5,1.5-2.8,3.2-3.7,5.2c-0.9,2-1.3,4.2-0.8,6.4
					c-0.5-1-0.8-2.2-0.9-3.3c-0.1-1.2,0.1-2.4,0.3-3.5c0.5-2.3,1.8-4.5,3.2-6.4c1.4-1.9,3.1-3.5,4.6-5.2c1.6-1.6,3-3.2,4.4-4.9
					c2.6-3.4,4.8-7.1,5.9-11.1c0.3-1,0.5-2,0.6-3c0.1-1,0.2-2,0.2-3.1c0-2.1-0.2-4.2-0.5-6.3c-0.6-4.3-1.7-8.8-2-13.5
					c-0.2-2.4-0.1-4.8,0.3-7.3c0.4-2.4,1.3-4.8,2.6-7c2.5-4.3,6.2-7.5,10.1-10C366.5,208.7,370.7,206.8,375,205.2z"/>
			</g>
			<g>
				<path class="st3" d="M364,273.9c0,4.3-0.3,8.7-1.3,13c-0.6,2.2-1.4,4.3-2.4,6.3c-1.1,2-2.6,3.9-4.2,5.5c-3.2,3.3-7,5.7-10.5,8.1
					c-3.5,2.4-6.8,4.8-9.4,7.8c-1.3,1.5-2.3,3.1-3,4.7c-0.7,1.7-1.1,3.5-1,5.1c0.1,0.8,0.2,1.5,0.6,2.2c0.4,0.7,0.9,1.4,1.6,2.1
					c1.3,1.5,2.8,2.8,4.4,3.8c1.6,1,3.4,1.7,5.2,2c1.8,0.2,3.8,0,5.4-0.9c1.7-0.8,3-2.3,3.6-4.2c0.6-1.9,0.4-4.1-0.9-5.9
					c0.8,0.7,1.5,1.7,1.9,2.7c0.4,1.1,0.5,2.3,0.4,3.4c-0.2,2.3-1.6,4.6-3.6,6c-2,1.4-4.5,2.1-6.9,2.1c-2.5,0-4.9-0.8-7-1.8
					c-2.1-1.1-4-2.5-5.7-4.1c-0.8-0.8-1.7-1.8-2.4-2.9c-0.7-1.2-1.2-2.6-1.3-3.9c-0.5-5.4,1.9-10,5-13.6c3.1-3.6,6.9-6.2,10.6-8.5
					c3.7-2.3,7.3-4.4,10.4-7c1.5-1.3,2.9-2.8,4.1-4.4c1.2-1.6,2.1-3.5,2.9-5.4C362,282.3,362.9,278.1,364,273.9z"/>
			</g>
			<g>
				<path class="st3" d="M138.5,202.5c-1.4,3.5-0.2,7.5,2.2,9.6c1.2,1.1,2.7,1.6,4.4,1.9c1.7,0.3,3.5,0.3,5.5,0.6
					c1,0.1,2,0.3,3.1,0.6c1,0.3,2,0.7,3,1.1c1.9,0.9,3.7,2.2,5.2,3.7c1.5,1.5,2.7,3.3,3.6,5.3c0.9,2,1.4,4.1,1.6,6.2
					c0.4,4.2-0.5,8.3-1.7,12c-1.2,3.7-2.9,7.2-4.3,10.6c-1.5,3.4-2.9,6.8-3.6,10.3c-0.8,3.5-0.9,7.2,0.1,10.9
					c-2.1-3.2-2.8-7.3-2.6-11.2c0.2-3.9,1.2-7.7,2.4-11.4c0.6-1.8,1.2-3.6,1.8-5.3c0.6-1.8,1.2-3.5,1.6-5.2c1-3.5,1.6-6.9,1.3-10.2
					c-0.3-3.3-1.5-6.3-3.7-8.7c-1.1-1.2-2.4-2.2-3.8-3.1c-1.4-0.8-2.9-1.4-4.6-1.7c-1.7-0.4-3.7-0.6-5.6-1.3c-1-0.3-2-0.7-2.9-1.3
					c-0.9-0.5-1.8-1.3-2.5-2.1C136.2,210.4,136.1,205.5,138.5,202.5z"/>
			</g>
			<g>
				<path class="st3" d="M193.3,369.2c1.4,3.4,3.3,6.4,5.1,9.7c0.9,1.6,1.7,3.3,2.4,5.1c0.2,0.4,0.3,0.9,0.5,1.4l0.4,1.4
					c0.3,0.9,0.4,1.9,0.6,2.9c0.5,3.9,0.3,7.7-0.2,11.4c-0.5,3.7-1.1,7.3-1.5,10.7c-0.4,3.5-0.6,6.9-0.1,10.2
					c0.2,1.7,0.6,3.3,1.1,4.9c0.5,1.6,1.1,3.2,1.9,4.8c2.9,6.2,7.8,11.6,14,15.5c-3.6-0.9-6.9-2.7-9.9-5c-3-2.3-5.5-5.3-7.6-8.5
					c-2-3.3-3.5-7-4.2-10.8c-0.1-0.5-0.2-1-0.3-1.4l-0.1-1.5c-0.1-1-0.1-1.9-0.2-2.9c0-1.9,0.1-3.9,0.4-5.7c0.9-7.5,3-14.4,2.8-21.2
					c-0.1-1.7-0.2-3.4-0.6-5c-0.4-1.7-0.9-3.4-1.5-5.1C195,376.4,193.6,372.8,193.3,369.2z"/>
			</g>
			<g>
				<path class="st3" d="M236.8,446.1c2.5,0.4,4.8-0.4,6.6-1.8c0.9-0.7,1.6-1.5,2.2-2.3c0.6-0.9,1.1-1.9,1.5-2.9
					c1.6-4.2,1.4-8.9,2.3-14.1c0.2-1.3,0.5-2.6,1-3.9c0.5-1.3,1-2.6,1.7-3.8c1.3-2.4,3.1-4.5,5.2-6.3c4.1-3.5,9.5-5.4,14.6-4.9
					c-4.8,1.6-8.8,4.3-11.8,7.8c-1.5,1.7-2.8,3.6-3.7,5.6c-1,2-1.5,4.1-1.9,6.4c-0.4,2.3-0.6,4.8-1.1,7.3c-0.5,2.6-1.2,5.2-2.6,7.6
					c-0.7,1.2-1.5,2.4-2.5,3.4c-1,1-2.2,1.8-3.5,2.4c-1.3,0.5-2.7,0.8-4,0.8C239.2,447.2,237.8,446.8,236.8,446.1z"/>
			</g>
			<g>
				<path class="st3" d="M280.4,369.1c0.9,6.9,2.4,13.6,4.6,20c0.6,1.6,1.2,3.2,1.8,4.7c0.7,1.6,1.4,3.2,2,4.8
					c1.3,3.3,2.5,6.9,2.5,11c-0.1,2-0.6,4.2-1.6,6.1c-1,1.9-2.5,3.4-4,4.6c-1.5,1.2-3.1,2.1-4.6,3c-1.5,0.9-2.9,1.7-4.3,2.6
					c-2.7,1.9-5.2,4.1-7.4,6.6c-1.1,1.3-2.2,2.6-2.9,4c-0.8,1.4-1.3,3.1-0.9,4.8c-0.4-0.8-0.7-1.7-0.7-2.6c0-0.9,0.1-1.8,0.3-2.7
					c0.5-1.8,1.3-3.4,2.2-5c1.9-3.1,4.2-5.9,7-8.3c2.8-2.5,6-4.1,8.3-6.1c2.4-2,3.5-4.3,3.6-7.2c0.1-2.9-0.8-6-1.9-9.2
					c-1.1-3.2-2.4-6.6-3.2-10.1C279.7,383.3,279.3,376.1,280.4,369.1z"/>
			</g>
			<g>
				<path class="st3" d="M281.9,439c2.3-3.3,6.6-5.2,10.9-5.3c2.2,0,4.4,0.3,6.4,1.2c0.5,0.2,1,0.5,1.5,0.7c0.5,0.3,1,0.6,1.4,0.9
					c0.4,0.3,0.9,0.7,1.3,1.1c0.4,0.4,0.8,0.8,1.2,1.1c1.4,1.5,2.5,2.9,3.7,3.9c1.2,1.1,2.7,2,4.3,2.8c3.2,1.6,6.7,2.8,10.6,3.6
					c-3.8,1.2-8,1.2-12,0c-2-0.6-4-1.5-5.8-2.8c-0.9-0.6-1.7-1.4-2.4-2.1l-2-2.1c-0.3-0.3-0.6-0.6-0.9-0.9l-0.9-0.8l-1-0.7l-1-0.6
					c-1.4-0.8-3-1.3-4.7-1.6C289.2,437,285.5,437.4,281.9,439z"/>
			</g>
			<g>
				<path class="st3" d="M148,53.8c3.8,1.1,7.3,2.5,10.8,3.5c3.5,1,6.9,1.4,10.1,0.9c1.6-0.2,3.2-0.8,4.9-1.4c1.7-0.6,3.5-1.4,5.3-2
					c3.6-1.2,7.3-2.3,11.2-3c-3,2.5-6.3,4.6-9.6,6.5c-1.7,1-3.3,1.9-5.1,2.7c-1.8,0.9-3.8,1.6-6,2c-2.2,0.3-4.4,0.3-6.4-0.2
					c-2.1-0.4-4-1.1-5.8-2C153.8,59.1,150.7,56.7,148,53.8z"/>
			</g>
			<g>
				<path class="st3" d="M303.8,52.8c0.5,1,1.3,1.7,2.3,2.2c0.9,0.5,1.9,0.8,2.9,1c2,0.4,4.2,0.4,6.4,0.4c4.3,0.1,8.6,0,12.8-0.3
					c2.1-0.2,4.2-0.4,6.4-0.7l6.4-0.9c4.3-0.6,8.8-1.2,13.4-0.9c4.6,0.2,9.3,1.3,13.5,3.8c2.1,1.2,4,2.8,5.6,4.7
					c1.6,1.9,2.7,4.1,3.4,6.3c1.5,4.4,1.8,8.8,2.8,12.9c1,4,2.7,8.1,6.4,10.6c-2.1-0.7-3.9-2.2-5.3-4c-1.4-1.8-2.5-3.8-3.4-5.9
					c-1.7-4.2-2.5-8.5-4.1-12.2c-0.8-1.8-1.8-3.5-3.1-4.9c-1.3-1.4-2.8-2.5-4.5-3.4c-1.7-0.9-3.6-1.6-5.5-2.1
					c-1.9-0.5-3.9-0.8-5.9-0.8c-4.1-0.2-8.3,0.2-12.6,0.6c-4.3,0.4-8.8,0.9-13.2,0.7c-4.4,0-8.8-0.4-13.2-1.2
					c-1.1-0.2-2.2-0.4-3.2-0.6c-1.1-0.2-2.2-0.5-3.3-0.9c-1.1-0.4-2.1-0.9-3-1.7C304.7,54.9,304.1,53.9,303.8,52.8z"/>
			</g>
			<g>
				<path class="st3" d="M389.5,100.4c-1.5,2.9-3.2,5.6-4.9,8.4c-1.7,2.7-3.6,5.4-5.1,8.1c-0.8,1.3-1.4,2.7-1.9,4
					c-0.5,1.4-0.8,2.7-1,4.2c-0.2,1.5-0.4,3.1-0.7,4.8c-0.3,1.7-0.7,3.2-0.9,4.6c-0.2,1.4-0.1,2.5,0.3,3.7c0.3,1.2,1,2.4,1.8,3.5
					c1.6,2.3,4,4.3,6.5,6.2c2.5,1.9,5.2,4,7.5,6.5c1.1,1.3,2.1,2.7,2.8,4.2c0.7,1.5,1.1,3.2,1.1,4.9c-1-3.1-3.2-5.4-5.6-7.3
					c-2.4-1.9-5.2-3.4-8-5c-2.8-1.7-5.7-3.7-8-6.5c-1.2-1.4-2.1-3.1-2.8-5c-0.6-1.9-0.7-4-0.5-5.8c0.2-1.8,0.7-3.4,1-4.9
					c0.3-1.4,0.5-3,0.8-4.7c0.3-1.7,0.9-3.5,1.6-5.1c0.8-1.6,1.7-3.1,2.7-4.4c2-2.7,4.3-5,6.5-7.4
					C384.9,104.9,387.1,102.6,389.5,100.4z"/>
			</g>
			<g>
				<path class="st3" d="M390.8,181.7c0.1,0.9-0.1,1.7-0.2,2.6c-0.2,0.9-0.5,1.7-0.9,2.5c-0.7,1.6-1.7,3.1-2.5,4.5
					c-0.8,1.4-1.5,2.8-1.9,4.3c-0.4,1.5-0.5,3-0.5,4.5c0.2,6.2,3.1,12.4,4,19.7c0.2,1.8,0.4,3.8-0.1,6c-0.3,1.1-0.8,2.2-1.4,3.1
					c-0.6,0.9-1.3,1.6-2,2.3c-0.7,0.6-1.3,1.2-1.9,1.7c-0.6,0.6-1.2,1.1-1.7,1.7c-1.1,1.2-2.2,2.4-3.2,3.7c-4,5.1-7.1,11.1-9.1,17.6
					c0-6.9,2.2-13.9,5.9-19.9c0.9-1.5,2-3,3.1-4.3c0.6-0.7,1.1-1.4,1.8-2c0.6-0.7,1.2-1.3,1.8-1.8c0.5-0.6,1-1.1,1.3-1.6
					c0.3-0.5,0.5-1,0.6-1.6c0.3-1.1,0.2-2.6,0-4.2c-0.2-1.6-0.5-3.2-0.8-4.8l-1.1-5c-0.7-3.4-1.3-6.9-1.1-10.7
					c0.2-1.9,0.6-3.7,1.3-5.5c0.8-1.8,1.9-3.3,3-4.6c1.2-1.3,2.3-2.5,3.3-3.8C389.5,184.8,390.4,183.4,390.8,181.7z"/>
			</g>
			<g>
				<path class="st3" d="M383.4,247.6c-2.2,5.5-3.1,11.2-2.7,16.7c0.2,2.7,0.7,5.4,1.6,8c0.8,2.6,2.1,4.9,3.5,7.4
					c1.4,2.5,3,5.1,4.1,8.2c1.1,3,1.6,6.1,1.7,9.3c0.1,3.1-0.4,6.2-1.4,9.2c-1,2.9-2.4,5.6-4.3,7.9c0.9-2.8,1.6-5.6,1.9-8.5
					c0.3-2.8,0.2-5.6-0.2-8.3c-0.4-2.7-1.1-5.4-2.2-7.8c-1-2.5-2.5-4.8-4-7.4c-0.7-1.3-1.5-2.6-2.1-4.1c-0.3-0.7-0.6-1.5-0.9-2.2
					c-0.2-0.8-0.5-1.5-0.7-2.3c-0.8-3.1-1.1-6.2-1-9.3C377.1,258.1,379.4,252,383.4,247.6z"/>
			</g>
			<g>
				<path class="st3" d="M368.3,302.6c-1.6,4.3-1.4,8.6-0.1,12.3c0.7,1.9,1.6,3.6,2.8,5c0.3,0.3,0.6,0.7,1,1c0.4,0.3,0.7,0.7,1,0.9
					c0.7,0.6,1.5,1.1,2.4,1.5c1.7,0.9,3.8,1.7,5.8,2.5c2.1,0.9,4.3,1.9,6.3,3.5c1.9,1.5,3.7,3.6,4.3,6.2c0.3,1.3,0.3,2.4,0.4,3.5
					c0.1,1,0.2,2.1,1.3,2.7c-0.6,0-1.2-0.3-1.6-0.7c-0.4-0.5-0.7-1-1-1.6c-0.5-1.1-0.8-2.2-1.3-3c-1-1.7-2.5-2.9-4.2-3.8
					c-3.4-2-7.8-2.6-12.2-4.8c-2.2-1.1-4.4-2.9-5.8-5c-1.5-2.1-2.5-4.5-2.9-6.9c-0.4-2.4-0.3-5,0.3-7.3
					C365.4,306.3,366.6,304.1,368.3,302.6z"/>
			</g>
			<g>
				<path class="st3" d="M388.8,378.9c0.3,3.3,0.3,6.7,0.4,10l0,5c0,0.8,0,1.7,0,2.5c0,0.8,0,1.7-0.1,2.6c-0.1,0.9-0.3,2-0.8,3
					c-0.5,1-1.2,2-1.9,2.6c-1.5,1.4-2.7,2.1-3.3,3.1c-1.3,1.9-1.5,4.8-0.8,7.4c0.7,2.7,2.3,5.4,4.1,8.2c0.8,1.4,1.9,2.9,2.5,4.9
					c0.3,1,0.5,2.1,0.4,3.2c-0.1,1.1-0.4,2.2-0.9,3.2c-1,1.9-2.4,3.2-3.9,4.2c-1.5,1-3,1.9-4.6,2.6c-3.2,1.4-6.6,2.2-9.9,2.1
					c3.2-1.1,6.1-2.4,8.7-4.3c2.6-1.8,5.2-4,6.1-6.3c0.4-1.1,0.3-2.1-0.1-3.3c-0.5-1.2-1.3-2.4-2.3-3.8c-1.9-2.7-3.9-5.7-4.9-9.4
					c-0.5-1.9-0.7-3.9-0.4-5.9c0.3-2,1-4,2.3-5.7c0.7-0.9,1.5-1.6,2.2-2.1c0.7-0.6,1.4-1,1.9-1.4c0.5-0.4,0.9-0.8,1.1-1.2
					c0.3-0.5,0.5-1.1,0.7-1.8c0.3-1.4,0.5-3.1,0.8-4.7l0.8-4.9C387.4,385.4,388,382.2,388.8,378.9z"/>
			</g>
			<g>
				<path class="st3" d="M109.8,62.7c0.2,7.3,3.2,13.9,7.9,18.7c1.2,1.2,2.4,2.3,3.8,3.2c1.4,0.9,2.8,1.7,4.3,2.4
					c3.1,1.4,6.6,2.6,10,4.7c1.7,1.1,3.3,2.4,4.6,4.1c1.3,1.7,2.3,3.6,2.9,5.6c1.1,4,1,8.1-0.2,11.8c-1.2,3.8-3.3,7-5.8,9.8
					c-2.5,2.7-5.4,5.1-8.4,7c2.3-2.8,4.6-5.5,6.5-8.5c1.9-2.9,3.3-6.1,3.9-9.3c0.6-3.2,0.5-6.5-0.5-9.4c-1-2.9-2.9-5.2-5.7-6.8
					c-2.7-1.7-6-2.9-9.4-4.6c-0.8-0.4-1.7-0.9-2.5-1.4c-0.8-0.5-1.7-1.1-2.4-1.7c-1.6-1.2-2.9-2.6-4.1-4.1c-2.4-3-4.1-6.6-5-10.2
					c-0.4-1.8-0.6-3.7-0.7-5.6C109.1,66.3,109.3,64.5,109.8,62.7z"/>
			</g>
			<g>
				<path class="st3" d="M117.9,104.1c-2.2,5.2-3.7,10.4-3.9,15.6c-0.1,2.6,0.2,5.1,0.9,7.5c0.3,1.2,0.8,2.4,1.3,3.5
					c0.5,1.1,1.1,2.2,1.9,3.1c1.4,2,3.2,3.6,5.3,4.8c2.1,1.2,4.8,2.1,7.4,3.8c5.5,3.5,7.6,10.7,5.3,15.9c0.1-5.6-3-10.5-7.3-12.5
					c-2.2-1.1-4.9-1.7-7.7-3c-1.4-0.7-2.8-1.6-3.9-2.6c-1.2-1-2.2-2.2-3.2-3.5c-3.6-5-4.9-11.5-3.9-17.4
					C111.1,113.4,114,108.2,117.9,104.1z"/>
			</g>
			<g>
				<path class="st3" d="M107.7,221c4.2,1.5,8.5,0.9,13,0.7c4.4-0.2,9.1,0,13.6,1.4c1.1,0.4,2.2,0.8,3.3,1.3c1.1,0.6,2.1,1.2,3.1,2
					c2,1.5,3.7,3.4,4.9,5.6c1.3,2.2,2,4.8,2,7.5c0,2.7-0.9,5.2-1.9,7.4c-1.1,2.2-2.4,4.1-3.7,5.9c-1.3,1.8-2.6,3.6-4,5.3
					c-2.7,3.5-5.7,6.9-8.7,10.1c-2.9,3.2-5.7,6.5-7.3,10.3c-1.6,3.8-2.2,8.3-0.4,12.4c-1.4-1.7-2.2-4-2.5-6.2
					c-0.3-2.3,0-4.6,0.5-6.9c1.3-4.5,3.9-8.5,6.6-12l4-5.2c1.3-1.7,2.6-3.5,3.9-5.2c1.3-1.8,2.5-3.5,3.8-5.3
					c1.2-1.8,2.4-3.5,3.3-5.3c0.9-1.8,1.4-3.5,1.5-5.3c0.1-1.7-0.4-3.5-1.2-5.1c-0.8-1.7-2.1-3.1-3.5-4.4c-0.7-0.6-1.5-1.2-2.4-1.7
					c-0.9-0.5-1.7-1-2.7-1.4c-3.8-1.6-8-2.2-12.3-2.6c-2.2-0.2-4.4-0.4-6.6-0.8C111.7,222.9,109.5,222.2,107.7,221z"/>
			</g>
			<g>
				<path class="st3" d="M138.9,284.6c0.8,0,1.5,0.2,2.2,0.6c0.7,0.4,1.3,0.9,1.9,1.5c1.1,1.2,1.8,2.8,2.2,4.4
					c0.2,0.8,0.2,1.7,0.2,2.5c0,0.9-0.2,1.7-0.4,2.5c-0.4,1.6-1.1,3.1-2,4.5c-0.8,1.4-1.7,2.7-2.7,3.9l-2.7,3.5
					c-1.8,2.3-3.6,4.6-5.2,7c-3.2,4.7-5.8,9.7-6.7,15.2c-0.9,5.4-0.3,11.3,3.2,16.3c-1.2-0.9-2.3-2-3.3-3.2
					c-0.9-1.3-1.7-2.7-2.3-4.1c-0.6-1.5-1-3-1.3-4.6c-0.2-1.6-0.3-3.2-0.3-4.8c0.1-1.6,0.3-3.2,0.6-4.8c0.3-1.6,0.8-3.1,1.4-4.6
					c0.6-1.5,1.3-2.9,2-4.3c0.8-1.4,1.6-2.7,2.4-4c1.8-2.6,3.7-4.9,5.7-7.2c2-2.3,4.1-4.4,5.8-6.5c1.7-2.2,3-4.5,3-7.1
					c0-1.3-0.3-2.7-0.9-3.9C141.4,286.3,140.3,285.2,138.9,284.6z"/>
			</g>
			<g>
				<path class="st3" d="M171.8,393.2c-0.6-4.2-1.9-8.1-4-11.6c-2.1-3.5-4.8-6.5-7.9-8.8c-3.2-2.3-6.7-4-10.5-4.8
					c-3.7-0.8-7.8-0.5-12.2-0.8c-1.1-0.1-2.2-0.2-3.4-0.4c-1.1-0.2-2.3-0.4-3.3-0.7l-1.6-0.5c-0.5-0.2-1.1-0.4-1.6-0.6l-1.6-0.6
					c-0.5-0.2-1-0.5-1.5-0.8c-4-2.1-7.5-5-10.3-8.5c-2.8-3.4-5-7.4-6.2-11.5c-1.2-4.2-1.6-8.6-0.9-12.8c0.6,8.5,4.5,16.1,10,21.7
					c2.8,2.8,6,5.2,9.5,6.8l1.3,0.6l1.4,0.5c0.5,0.2,0.9,0.4,1.4,0.5l1.4,0.4c0.9,0.3,1.9,0.4,2.8,0.6c0.9,0.2,1.9,0.3,2.9,0.3
					c4,0.3,8.4,0,12.9,1.2c4.5,1.1,8.5,3.4,11.9,6.4c3.3,3,5.9,6.7,7.7,10.7C171.7,384.5,172.4,389,171.8,393.2z"/>
			</g>
			<g>
				<path class="st3" d="M110.1,262.8c0.7-1.5,1.5-2.8,2.3-4.2c0.8-1.3,1.8-2.6,2.6-3.8c1.7-2.4,3.1-4.8,3.1-6.8c0-0.5,0-1-0.1-1.5
					c-0.1-0.5-0.3-1-0.6-1.5c-0.5-1.1-1.4-2.2-2.3-3.4c-0.9-1.2-1.9-2.6-2.6-4.1c-0.7-1.5-1.1-3.4-0.6-5c0.6,1.5,1.6,2.6,2.6,3.5
					c1.1,1,2.2,1.8,3.5,2.8c1.2,1,2.4,2.2,3.5,3.7c1,1.5,1.8,3.7,1.6,5.7c-0.1,1-0.3,2-0.6,2.9c-0.3,0.9-0.8,1.7-1.2,2.5
					c-1,1.5-2.1,2.7-3.4,3.8c-1.2,1.1-2.5,2-3.8,2.9C112.9,261.2,111.6,262.1,110.1,262.8z"/>
			</g>
			<g>
				<path class="st3" d="M179.9,439.2c-1.6-3.5-3.1-7.1-4.5-10.6l-2.1-5.3c-0.7-1.7-1.4-3.4-2.4-4.7c-1.9-2.6-5-4.1-8.5-5.3
					c-1.7-0.6-3.6-1.2-5.4-1.9c-1.8-0.7-3.6-1.4-5.4-2.2c-7.1-3.2-13.9-7.3-20-12.2c-1.5-1.3-3.1-2.7-4.3-4.4
					c-0.6-0.9-1.2-1.8-1.6-2.8c-0.4-1-0.7-2-0.9-3c-0.4-2-0.5-3.9-0.9-5.7c-0.4-1.8-1.1-3.5-2.7-4.7c0.9,0.3,1.7,1,2.4,1.7
					c0.7,0.8,1.2,1.7,1.6,2.6c0.8,1.8,1.3,3.7,2,5.4c1.1,3.4,3.7,5.7,6.8,7.7c6.2,4.1,12.9,7.7,19.7,10.8c1.7,0.8,3.4,1.5,5.2,2.2
					c1.7,0.7,3.5,1.3,5.3,2.1c1.8,0.8,3.7,1.6,5.5,2.9c0.9,0.6,1.7,1.3,2.5,2.1c0.8,0.8,1.5,1.7,2,2.7c1.1,1.9,1.7,3.9,2.2,5.8
					l1.3,5.6C178.5,431.6,179.3,435.4,179.9,439.2z"/>
			</g>
			<g>
				<path class="st3" d="M117.8,435.7c8,4.6,17.3,6.1,25.8,4.6c2.1-0.4,4.2-1,6.2-1.7c1-0.4,1.9-0.8,2.7-1.3
					c0.8-0.5,1.5-1.1,1.9-1.6c0.4-0.6,0.5-1.1,0.5-1.7c-0.1-0.6-0.3-1.2-0.8-1.9c-1-1.4-2.8-2.8-4.6-4.6c-1.9-1.9-3.1-4.1-4.3-5.7
					c-1.2-1.5-2.7-2.8-4.5-3.7c-3.6-2-8.1-3-12.5-4.5c-2.2-0.7-4.5-1.6-6.7-2.8c-2.2-1.2-4.1-2.8-5.7-4.6c-3.1-3.8-4.9-8.1-6.4-12.5
					c2.5,3.9,4.9,7.9,8.2,10.8c3.2,3,7.3,4.3,11.7,5.3c2.2,0.5,4.4,1,6.7,1.6c2.3,0.6,4.6,1.3,6.9,2.5c2.3,1.1,4.4,2.8,6.1,4.8
					c1.6,2,2.7,3.9,4.1,5.3c1.4,1.5,3.3,2.9,5,5.3c0.8,1.2,1.5,2.8,1.6,4.5c0.1,1.7-0.6,3.5-1.6,4.7c-1,1.3-2.2,2.1-3.4,2.8
					c-1.2,0.7-2.4,1.1-3.6,1.5c-2.3,0.8-4.7,1.2-7.2,1.4C134.5,445.1,124.6,442,117.8,435.7z"/>
			</g>
		</g>
		<g>
			<g>
				<path class="st3" d="M272.1,165.7c-0.1,3.6-0.4,7.2-0.5,10.7c-0.2,3.5-0.4,7.1-0.4,10.6c0,3.4,0.2,6.8,1.1,9.9
					c0.5,1.5,1.1,2.9,1.9,4.2c0.8,1.2,1.8,2.3,3.1,3.4c1.2,1.1,2.7,2.2,4.1,3.5c0.7,0.7,1.4,1.4,2,2.1c0.6,0.8,1.3,1.5,1.8,2.3
					c2.2,3.2,3.7,6.8,4.5,10.5c1.6,7.4,0.3,15.4-3.9,21.3c2.3-6.8,2.2-13.9,0.1-20.3c-1.1-3.2-2.6-6.1-4.5-8.7
					c-0.5-0.7-1-1.2-1.5-1.9c-0.5-0.6-1.1-1.1-1.7-1.7c-1.2-1.1-2.6-2.2-4-3.4c-1.4-1.2-2.9-2.7-4-4.5c-1.1-1.8-1.9-3.7-2.3-5.6
					c-0.9-3.9-0.8-7.7-0.4-11.3c0.4-3.7,1.1-7.1,1.9-10.7C270,172.6,270.9,169.1,272.1,165.7z"/>
			</g>
			<g>
				<path class="st3" d="M277.1,248.8c-4.1,6.5-7.4,13.2-9.6,20.2c-2.2,7-3.5,14.3-3.7,21.6c-0.1,3.6,0.1,7.2,1.3,10.3
					c1.1,3.2,3.2,6.1,5.4,9.2c1.1,1.5,2.3,3.1,3.3,4.7c1.1,1.7,2,3.4,2.8,5.2c0.7,1.8,1.3,3.8,1.5,5.8c0.2,2-0.1,4-0.8,5.8
					c0.3-3.8-1-7.4-2.9-10.4c-1.9-3.1-4.5-5.7-7-8.6c-2.5-2.8-5.2-6-6.8-9.9c-1.7-4-1.9-8.2-1.9-12.1c0.2-7.9,1.9-15.7,5-22.9
					C267,260.5,271.4,253.9,277.1,248.8z"/>
			</g>
			<g>
				<path class="st3" d="M245.8,389.2c-2.5-7.3-3.8-15-4.4-22.8c-0.3-3.9-0.3-7.9,0.2-11.9c0.3-2,0.7-4,1.2-5.9
					c0.6-1.9,1.2-3.8,1.9-5.6c1.4-3.6,2.9-7.1,4.1-10.6c1.2-3.5,2.2-7,2.6-10.6c0.4-3.6,0.4-7.2-0.6-10.8c-0.9-3.6-2.6-6.9-5.3-9.7
					c3.4,2,6,5.3,7.6,8.9c1.6,3.7,2.3,7.8,2.2,11.9c-0.1,4.1-0.9,8-2,11.8c-1.1,3.8-2.7,7.4-4,10.9c-1.4,3.5-2.5,6.9-3.2,10.5
					c-0.6,3.6-0.9,7.3-1,11C245.1,373.9,245.4,381.5,245.8,389.2z"/>
			</g>
			<g>
				<path class="st3" d="M244.7,196.4c3.2,3.8,6.2,7.7,8.7,12.1c2.5,4.4,4.4,9.3,4.7,14.6c0.4,5.3-0.7,10.6-2.9,15.4
					c-2.1,4.8-5.3,9.1-9.1,12.7c-1.9,1.8-4,3.4-6.2,4.8c-2.2,1.4-4.3,2.6-6.5,3.8c-4.3,2.3-8.6,4.6-12.3,7.4
					c-7.4,5.8-13.1,14-16.1,23.4c1-9.9,6-19.5,13.6-26.3c3.8-3.5,8.3-6,12.5-8.5c4.2-2.5,8.3-4.9,11.6-8.1c3.3-3.2,6.2-6.9,8.2-11
					c1-2.1,1.8-4.2,2.4-6.4c0.5-2.2,0.8-4.5,0.9-6.8c0-4.6-1.2-9.2-3-13.7C249.4,205,247,200.8,244.7,196.4z"/>
			</g>
			<g>
				<path class="st3" d="M299,144c-1.8,3.2-2.9,6.5-3.7,9.9c-0.8,3.4-1.4,6.9-2,10.4c-1.1,7-1.8,13.9-0.5,20.5
					c1.1,6.5,5,12.3,8.5,18.8c1.7,3.2,3.2,6.7,4,10.4c0.8,3.7,0.8,7.6-0.6,11c0.3-3.6-0.5-7.1-1.8-10.3c-1.3-3.2-3.1-6.2-5-9.1
					c-2-2.9-4.1-5.9-5.9-9.1c-0.9-1.6-1.8-3.3-2.5-5.1c-0.7-1.8-1.2-3.7-1.6-5.6c-0.7-3.8-0.8-7.6-0.5-11.4c0.3-3.7,1.1-7.4,2-10.9
					c1-3.5,2.1-7,3.5-10.4C294.4,149.8,296.3,146.5,299,144z"/>
			</g>
			<g>
				<path class="st3" d="M276.1,89.2c1.4,1.8,3.3,2.7,5.2,3.8c1,0.5,2,1.1,2.9,1.7c1,0.7,2,1.5,2.8,2.6c0.8,1,1.4,2.1,1.9,3.2
					c0.5,1.1,0.9,2.2,1.2,3.3c0.7,2.2,1.2,4.5,1.5,6.8c0.3,2.3,0.4,4.6,0.2,6.9c-0.1,1.2-0.2,2.3-0.4,3.4c-0.2,1.1-0.4,2.3-0.7,3.3
					c-0.5,2.1-0.8,3.8-0.2,5.6c0.5,1.8,1.7,3.6,3.6,4.9c-2.3-0.3-4.4-1.8-5.8-3.9c-0.7-1-1.2-2.3-1.4-3.6c-0.2-1.3-0.2-2.5-0.1-3.7
					c0.1-1.2,0.1-2.2,0.2-3.2c0-1,0-2.1,0-3.1c-0.1-2.1-0.2-4.1-0.5-6.2c-0.2-2.1-0.6-4.1-1.1-6.1c-0.5-2-1-4-1.8-5.6
					c-0.8-1.6-2.3-3-3.9-4.5c-0.8-0.8-1.6-1.6-2.3-2.6C276.9,91.4,276.3,90.4,276.1,89.2z"/>
			</g>
		</g>
		<g>
			<path class="st4" d="M185.9,344.7c1,20,21,3.7,25.3-3.8c5.6-9.8,14.6-37.2,8-48.5c-5.8-9.9-17.4-10.4-25.3-1.5
				C183.1,303,185.2,330.8,185.9,344.7z"/>
			<path class="st5" d="M186.4,266.4c-1,5.2-8.7,23.3-5.7,27c6.6,8.2,22.4-3.4,26.6-8.1c8.6-9.6,12.1-25.4,13.6-37.6
				c1.1-9.4,2.1-25.2-13-21.9C193.3,229,188.5,255.2,186.4,266.4z"/>
			<path class="st4" d="M233.4,165.2c-10.8,9-21.6,42.6-20.4,55.6c1.5,16.8,15.8,26.1,28.1,12c8.5-9.7,14.7-33.2,18.7-45.2
				C267.1,165.6,255.8,146.5,233.4,165.2z"/>
			<path class="st4" d="M235,378.2c-8.6-16-22.6-1.3-23.3,21.9c-0.2,7.6,2.3,33.5,11,38c10.9,5.7,16.1-11.2,15.6-19.9
				C237.2,401.1,240.8,389,235,378.2z"/>
			<path class="st5" d="M209.8,377.8c6.7,21.6,20.1-4,22.8-13.5c3.2-11.3,7.2-32.3,0.5-43c-8.1-13-15.6-6.5-22,5.7
				C204.2,340.4,205.5,363.9,209.8,377.8z"/>
			<path class="st6" d="M219,284.6c2.7,0.4-2.6,42.4,7,33.8c2.9-2.6-1.1-25,0.3-32.5c2.5-13.5,11.4-23.9,19.2-34.8
				c-6.2-6.2-41.9,38.3-36.3,40.3C214.1,293,214.7,284,219,284.6z"/>
			<path class="st4" d="M254.6,275.2c1.7-8.4,7.2-21-0.3-27.4c-7.6-6.5-15.3-2.6-19.7,4c-6.1,9-8.7,28-9.4,38.5
				c-0.6,9.8,1.4,24.7,15.6,17.2C250.7,302.2,252.6,284.8,254.6,275.2z"/>
			<path class="st5" d="M245.6,370.4c0.4,10.1,4.6,30.7,18,26c13.6-4.8,9.3-32.3,7.2-42.8c-1.7-8.7-5.5-26.3-17.5-19.7
				C244,339.1,245.2,361.5,245.6,370.4z"/>
			<path class="st5" d="M282.5,333.7c4.4,17.3,16.7,1.3,19.7-7.6c3.9-11.7,3.1-28.3-3.2-39c-6.6-11.4-13.1-12.9-19.4-0.9
				C273,298.8,279.2,320.8,282.5,333.7z"/>
			<path class="st4" d="M309.2,237c0.9,8.4,8.1,45.3,21.2,30.8c9.3-10.3,0.9-39.8-1.2-50.9c-1.5-8.1-6.4-31.3-21-23.6
				C298.4,198.6,308.3,228.4,309.2,237z"/>
			<path class="st5" d="M300.9,284.4c1.4,9.4,4.3,36.2,19,29.4c11.4-5.3,4.4-34.8,2.2-43.6c-2-8.1-6.2-25.9-19-21.9
				C290.5,252.1,299.6,275.8,300.9,284.4z"/>
			<path class="st6" d="M312,199.5c-4.1,1.6-8.6-13.1-11.7-14.9c-2.5-1.5-2.5,26.1-2.4,27.7c1,9.9,12.6,36.8,7.7,45.7
				c-8.4,5.7-15.9-50.1-15.8-60c0.1-12.4,9.7-36.8-0.5-38.5c-12.8-2.2-12.3,48.7-13.1,57c-1.1,11.1-2.5,20.1-0.7,31.3
				c1.6,10.2,16,31.4,11.7,35.9c-3.3,3.2-10.5-13.5-11.5-10.7c-2.3,6.8-7,21.9-9.3,28.6c-1.6,4.6-5.8,37.1-8.3,35.9
				c-7.6-3.4,1.9-37.7,3.7-44c3.9-14,7-23,5.9-37.9c-0.3-3.9-0.5-22.1-5.6-23.1c-6.2-1.2-9.5,16.9-12.6,16.4
				c-11.3-1.9,6.2-21.6,7.9-23.9c11.4-15,10.1-19.8,12.5-38.8c0.8-6.4,12-39.5,5.7-39.8c-2.7-0.1-22.1,22.3-22.4,17
				c-1-15.5,23.6-27.3,31.8-36.8c5.8-6.8,9.3-14.2,9.4-23.2c0-1.8-6.3-28,5.4-19.8c10.7,7.5,4.3,44.8,4,55.4
				C303.5,146.8,314.1,198.7,312,199.5z"/>
			<g>
				<path class="st7" d="M261.7,125.2c-22.8,10.5-57.9,12.9-84.8,8.2c-5.9-1-8.7-7.9-5.4-12.8c20.8-30.9,48.1-66.1,89.6-61.4
					c14.4,1.6,31.4,11.6,32.4,27.6C294.6,103.9,275.6,118.8,261.7,125.2z"/>
				<path class="st8" d="M286.7,89.2c-2,8.1-6,15.3-13.3,19.7c-7.3,4.4-14.9,9.5-23.2,11.9c-7.8,2.3-24.9,6.4-25.5,6.5
					c5.8-1.7-51.8,11.2-45.7-1c2.7-5.6,13.8-10.5,25.5-14.6c-3.1,3.3-6.9,6.1-11.1,8c-0.9,0.4-2,0.9-2.2,1.9
					c0.7,0.8,1.9,0.7,2.9,0.5c2.9-0.7,5.6-2.2,7.8-4.1c2.7-2.5,4.7-5.8,7.7-8c1.7-0.6,3.3-1.1,4.9-1.6c1.1,0.2,2.2,0.8,2.7,1.7
					c0.6,1,0.4,2.3,0.2,3.4c-0.7,3-2.2,5.9-4.3,8.2c0.3,0.6,1.3,0.4,1.8,0c3.9-2.5,5.2-7.4,5.1-11.9c0-1-0.1-2.1,0.4-3
					c0-0.1,0.1-0.2,0.1-0.3c5.2-1.7,9.7-3.1,12.4-4.2c1.3,0.7,2.3,1.9,2.5,3.3c0.3,2.6-2.1,4.8-2.4,7.4c-0.1,0.7,0.2,1.6,0.9,1.6
					c0.4,0,0.7-0.3,1-0.7c2.2-3,3.4-6.7,3.4-10.4c0-1-0.1-2,0.2-2.9c0.1-0.3,0.2-0.5,0.3-0.7c2.8-1.2,5.6-2.5,8.4-3.8
					c2.2,0.5,4.2,2,4.9,4c0.3,0.9,0.4,1.8,0.7,2.7c0.4,0.9,1.3,1.7,2.2,1.5c0.9-0.1,1.5-1.1,1.5-2c0-0.9-0.4-1.8-0.7-2.7
					c-0.9-2.9-0.4-6.3,1.4-8.7c1.3-0.7,2.5-1.4,3.8-2.2c0.4-0.3,0.9-0.5,1.3-0.8c0.5,0,1,0,1.4,0.3c0.5,0.2,0.9,0.6,1.3,1
					c2.4,2.7,3.5,6.5,2.8,9.9c-0.6,2.6-2,4.8-3.4,7.1c2.5,0.4,4.4-2.2,5.1-4.5c1.1-3.6,1.3-7.5,0.5-11.2c-0.4-1.9-1.1-3.8-0.9-5.7
					c0-0.3,0.1-0.5,0.1-0.8c3.7-1.9,7.6-3.2,11.8-2.9c1.6,0.1,3.3,0.5,4.4,1.6C287.4,84.2,287.3,86.9,286.7,89.2z"/>
				<path class="st8" d="M278.8,78.7c-1.4,2-4,2.5-6.2,3.1c-0.1,0-0.3,0.1-0.4,0.1c-1-0.2-1.9-0.5-2.8-1.1c-1-0.7-1.8-1.6-2.7-2.5
					c-6.4-6.4-15.9-7.9-24.8-9.1c-0.9-0.1-2.2,0.1-2.2,1.1c0,0.6,0.5,0.9,0.9,1.2c1.7,0.9,3.7,1.1,5.6,1.4c4.8,0.7,9.5,2.5,13.5,5.3
					c1.3,0.9,2.6,1.9,3.3,3.3c0.6,1.2,0.7,2.9,0,4.1c-1.4,0.7-2.8,1.4-4.2,2.2c0,0-0.1,0-0.1,0c-7.9,0.5-15.3-3.3-23.2-2.9
					c-0.7,0-1.5,0.1-2.1,0.6c0.7,1.1,2,1.3,3.2,1.5c3.5,0.5,6.8,1.6,10,3.3c0.9,0.5,2,1.4,2.1,2.4c-0.6,0.2-1.2,0.4-1.8,0.7
					c-1.2,0.4-2.5,0.8-3.7,1.1l0,0c-1.3-0.5-2.6-1.3-3.9-2c-5.2-2.9-11-4.6-16.9-5c-0.8-0.1-1.6-0.1-2.4,0.3c-0.7,0.3-1.4,1.2-1.2,2
					c3.7,0.9,7.4,1.9,11.2,2.8c1.1,0.3,2.3,0.6,3.1,1.4c0.8,0.8,1.1,2.1,0.6,3.1c-1.6,0.5-3.2,1.1-4.8,1.8c0,0,0,0,0,0
					c-2.8,0.1-5.6-0.7-8.2-1.7c-3.5-1.3-7.1-3-10.9-3.1c-3.1-0.1-6.1,0.9-9.1,1.9c-0.9,0.3-1.9,0.8-1.9,1.8c0,1.1,1.5,1.3,2.5,1.2
					c4.3-0.3,8.8-0.2,12.6,1.8c1.1,0.6,2.2,1.4,2.3,2.7c0,0.2,0,0.5-0.1,0.7c-1.8,0.7-3.6,1.5-5.4,2.3c-4.7-0.6-9.6-2.3-14.1-0.3
					c-0.7,0.3-1.4,1.1-0.9,1.6c0.2,0.2,0.4,0.2,0.6,0.3c1.8,0.3,3.7-0.1,5.6-0.1c1.2,0,2.4,0.2,3.4,0.8c-2.9,1.2-5.8,2.4-8.6,3.6
					c-2.2,0.9-6.5,3.8-8.7,3.5c-8.1-1.1,12.1-25.4,14.9-28.4c2.7-2.9,5.6-5.7,8.8-8c3.2-2.3,6.7-4,10.3-5.6
					c8.2-3.8,16.7-7.1,25.5-8.6c8.8-1.5,17.9-1,25.9,2.6c2.1,0.9,4.1,2.1,5.4,4.1C279.9,73.8,280.2,76.7,278.8,78.7z"/>
				<path class="st9" d="M259.2,71.6c-4.8-3.1-9.9-4.1-15.3-3.1c-0.9,0.2-1.4,1.3-0.8,2c4.9,6.1,20.8,2.2,12.6,14
					c-8.3,11.9-26-6.7-37.2-2.2c-0.9,0.4-1.1,1.7-0.3,2.2c5.1,3.3,19.2,4.1,15,11.6c-3.4,6.2-21.9-0.7-31.7-1.4
					c-1.4-0.1-1.9,1.9-0.5,2.4c5.1,2,12.3,3.3,10,9.2c-2.4,6-14.6,2.2-20.6,2.1c-1.1,0-1.7,1.4-0.9,2.1c2.1,2,4.4,2.1,3.7,6.3
					c-0.4,2.7-8.6,3.8-7.2,5.9c1.3,2,15.4-2.2,17.3-1.7c4.1,1.1,3.6,8.1,6.5,8.5c4.3,0.7,1.1-20.3,11.1-17.6
					c4.5,1.2,4.7,13.4,8.9,13.2c5.9-0.3-6.7-23.7,9.2-20.3c8.3,1.7,3.8,15.5,9.6,17.1c3.4,1-0.5-23.1,6.9-27.1
					c14.9-7.9,6.2,8.5,11.8,14.1c3.6,3.7,4.4-0.9,5.3-3.8c0.1-0.2,0.1-0.4,0.1-0.6c-0.2-1.8,1.2-14,4.4-19.4
					C283,75.1,271.6,77.9,259.2,71.6C259.3,71.6,259.2,71.6,259.2,71.6z"/>
				<path class="st10" d="M254.5,89.3c-2.8,2.1-6.2,3.6-9.8,3.5c-1.7,0-3.6-0.3-5.1,0.6c-0.7,0.4-1.3,1.1-1.8,1.8
					c-3.9,4.5-9.9,7.2-15.8,7.3c-1,0-2.1-0.1-3,0.4c-0.9,0.4-1.5,1.2-2,2c-1,1.4-1.9,2.7-2.9,4.1c1.9,0.1,3.5-1.1,5.3-1.7
					c1.8-0.6,4.2-0.3,4.7,1.5c1.6,0.3,2.7-1.6,3.7-2.9c1.7-2.2,4.3-3.3,6.9-4.4c2.3-1,4.8-2,7.3-1.3c0.7,0.2,1.3,0.5,2,0.5
					c1.5,0,2.7-1.3,3.8-2.4c1.8-1.9,3.9-3.4,6-4.9c2.1-1.5,4.2-3,6.7-3.8c2.7-0.9,5.7-0.7,8.4-1.8c2.7-1.1,4.9-4.2,3.6-6.7
					c-0.9-1.7-3.1-2.4-5-2.1C261.9,80,258.7,86.2,254.5,89.3z"/>
				<path class="st11" d="M179.1,118.4c-0.2,0.3-0.4,0.7-0.4,1c0.1,0.7,1.1,0.8,1.8,0.7c1.7-0.3,3.3-1,4.9-1.7
					c2.3-1,2.6-3.9-0.2-4.5C182.6,113.4,180.3,116.5,179.1,118.4z"/>
				<path class="st11" d="M196.3,100.5c-1.4,0-2.9,0-4.2,0.6c-1.3,0.6-2.1,1.9-2.9,3c-0.1,0.2-0.2,0.4-0.2,0.6
					c0.1,0.2,0.3,0.3,0.5,0.4c3.4,1.1,10.9,2.2,14-0.5C206.7,102,198.1,100.5,196.3,100.5z"/>
				<path class="st11" d="M204.3,89.7c4.4,2.6,9.6,3.7,14.7,3.2c0.8-0.1,1.8-0.3,2.3-0.9c0.7-0.9,0.4-2.2-0.3-3
					c-1.2-1.3-3.2-1.3-4.6-2.2c-1.4-0.9-2.4-2.3-4.2-2.5C210.4,84,203.1,89,204.3,89.7z"/>
				<path class="st11" d="M226.3,73.3c-1.2,0.5-2.4,1.2-3,2.4c-0.2,0.3-0.3,0.7-0.2,1c0.2,0.7,0.9,1,1.6,1.1c1,0.2,2.1,0.3,3.1,0.5
					c2.3,0.4,4.4,1.6,6.6,2c2.3,0.5,5,0.1,6.3-1.8c1.9-2.8-0.4-7.2-3.5-7.9C234.1,70,229.1,72.1,226.3,73.3z"/>
				<path class="st9" d="M216.9,118.2c0.2-0.7,0.4-1.3,0.9-1.9c0.4-0.5,1.1-0.9,1.8-0.8c1,0.2,1.6,1.2,1.9,2.1
					c0.7,2,0.9,4.3,0.5,6.4c-0.4,2.2-3.1,4.8-5.1,2.7C215.1,124.8,216.3,120.2,216.9,118.2z"/>
				<path class="st9" d="M233.9,113.7c-0.2-0.6-0.3-1.2-0.4-1.8c0-1.5,0.9-2.9,2.2-3.5c1.3-0.6,3-0.3,4.1,0.7
					c1.5,1.4,1.7,3.6,1.7,5.7c0.1,2.6,0.8,8.2-3.6,7.6C234.8,121.9,234.6,116.2,233.9,113.7z"/>
				<path class="st9" d="M256.2,98.8c0.4-0.8,0.8-1.5,1.5-2c0.7-0.5,1.6-0.8,2.4-0.4c1,0.5,1.2,1.9,1.3,3c0.1,2,0.3,3.9,0.4,5.9
					c0.2,2.6-1.5,11.9-6,8C251.9,109.9,254.3,102.5,256.2,98.8z"/>
				<path class="st9" d="M278.5,90.6c0.3-1.4,0.6-3,1.7-4c0.7-0.8,1.8-1.2,2.8-1.6c0.4-0.1,0.9-0.3,1.3-0.2c0.9,0.2,1.3,1.4,1.3,2.4
					c0.4,4.5-0.7,9.1-3.1,12.9c-1.2,1.9-4.1,4.6-5.4,1.2C276.1,98.5,277.9,93.4,278.5,90.6z"/>
			</g>
			<path class="st12" d="M223.3,440c0.8,0.4,1.8,0.6,2.8,0.6c0.9,0.1,1.9,0.1,2.8,0c0.8,0,1.7-0.2,2.3-0.8c2.5-2.5-2-8-5-7.5
				C223.2,432.9,219.7,438.2,223.3,440z"/>
			<path class="st12" d="M256.5,397.3c0.7,0.4,1.5,0.6,2.3,0.7c0.8,0.1,1.5,0.2,2.3,0.2c0.7,0,1.5,0,2-0.5c2.2-2.1-1.2-7.3-3.7-7
				C256.8,390.9,253.6,395.4,256.5,397.3z"/>
			<path class="st12" d="M213.8,384.8c0.7,0.4,1.5,0.5,2.3,0.5c0.8,0.1,1.5,0.1,2.3,0c0.7,0,1.4-0.1,1.9-0.6c2-2.1-1.6-6.6-4.1-6.2
				C213.7,378.9,210.9,383.2,213.8,384.8z"/>
			<path class="st12" d="M286.3,340.3c0.7,0.4,1.5,0.5,2.2,0.5c0.8,0.1,1.5,0.1,2.3,0c0.7,0,1.4-0.1,1.9-0.6c2-2-1.6-6.5-4.1-6.1
				C286.3,334.6,283.5,338.8,286.3,340.3z"/>
			<path class="st12" d="M315.7,316.2c0.8,0.2,1.6,0.1,2.4,0c0.8-0.2,1.5-0.4,2.2-0.6c0.7-0.2,1.3-0.6,1.6-1.3
				c1.2-3-3.9-7.5-6.2-6.3C313.6,309.2,312.3,315.2,315.7,316.2z"/>
			<path class="st12" d="M323.5,270.7c0.6,0.3,1.4,0.4,2.1,0.5c0.7,0,1.4,0.1,2.1,0c0.6,0,1.3-0.1,1.8-0.6c1.9-1.9-1.5-6.1-3.8-5.7
				C323.4,265.2,320.8,269.2,323.5,270.7z"/>
			<path class="st12" d="M237,303.4c-0.6-0.7-1.5-1.2-2.4-1.6c-0.8-0.4-1.7-0.7-2.6-1c-0.8-0.3-1.7-0.5-2.4-0.1
				c-3.2,1.5-0.9,8.2,2.1,8.8C234.5,310.1,239.6,306.4,237,303.4z"/>
			<path class="st12" d="M197.2,348.9c-0.6-0.7-1.4-1.3-2.3-1.7c-0.8-0.4-1.7-0.8-2.5-1.2c-0.8-0.3-1.7-0.6-2.4-0.3
				c-3.3,1.3-1.5,8.1,1.5,8.9C194.3,355.4,199.6,352,197.2,348.9z"/>
			<path class="st12" d="M185.1,289.5c-0.8,0.2-1.5,0.6-2.1,1.1c-0.6,0.5-1.3,0.9-1.8,1.5c-0.5,0.5-1.1,1-1.2,1.7
				c-0.4,2.8,5.1,3.7,6.8,1.8C188.5,293.6,188.3,288.7,185.1,289.5z"/>
			<path class="st12" d="M222.4,239.1c0.8,0.4,1.8,0.6,2.8,0.6c0.9,0.1,1.9,0.1,2.8,0c0.8,0,1.7-0.2,2.3-0.8c2.5-2.5-2-8-5-7.5
				C222.3,232,218.8,237.2,222.4,239.1z"/>
			<path class="st13" d="M233.9,400.1c0.2-1,0.4-2,0.2-3c-0.2-1.1-0.8-2.1-1.4-3.1c-1.9-3.3-3.1-7.1-3.3-10.9c-3,1-3.9,5-3.3,8.2
				c0.6,3.2,2.1,6.2,2,9.4c-0.1,1.8-0.7,3.5-1.2,5.2c-1.5,4.9-5.3,15.2-1.2,19.5c1.7,1.8,6.5,5.1,7.9,2c0.7-1.5,0-4.5-0.1-6.1
				c-0.1-2.2-0.2-4.4-0.3-6.6C233,409.7,233.1,404.9,233.9,400.1z"/>
			<path class="st14" d="M264.8,387.9c1.1,0,2.1-0.7,2.6-1.7c0.6-1,0.7-2.2,0.9-3.3c1.1-10-1.6-20-2.5-30c-0.2-2.1-0.3-4.2-0.8-6.2
				c-0.5-2-1.5-3.9-3.1-5.1c-0.4-0.3-0.8-0.5-1.2-0.4c-0.8,0.1-1.2,1.1-1.9,1.6c-0.4,0.2-0.9,0.3-1.2,0.6c-0.5,0.4-0.6,1.3-0.5,1.9
				s0.6,1.3,0.9,1.9c1.8,3.2,2,7.1,2.2,10.8c0.2,4.2,0.4,8.4,0.6,12.5c0.1,1.9,0.2,3.9-0.1,5.9c-0.3,2.2-1.4,3.6-2.2,5.5
				c-0.8,2.2,0.7,2.5,2.2,3.4C262.1,386.2,263.2,387.8,264.8,387.9z"/>
			<path class="st14" d="M293.1,330.2c0.4,0.2,0.7,0.5,1.2,0.6c0.9,0.1,1.5-1,1.9-1.9c1.1-2.8,2.1-5.7,3.2-8.5
				c0.6-1.7,1.3-3.4,1.5-5.2c0.5-3.4-0.3-6.9-1.2-10.3c-1.3-5-2.5-10-3.8-15c-0.3-1.1-0.6-2.3-1.3-3.2c-0.7-0.9-2-1.5-3.1-1.1
				c-1.1,0.4-1.7,1.6-1.7,2.8c0,1.2,0.4,2.3,0.8,3.4c2.5,6.8,3.6,14.1,3,21.3c-0.2,3-0.7,6.1-2.3,8.7c-1,1.6-3.4,4.1-2.8,6.2
				C289.2,329.7,291.7,329.3,293.1,330.2z"/>
			<path class="st14" d="M318.3,272c-0.3-0.8-4.6-20.4-7.8-15.9c-1.5,2.1,6.4,19.1,2.6,26.7c-1.5,3.1-1.4,25.1,5.9,18.7
				C324.6,296.5,320.4,277.8,318.3,272z"/>
			<path class="st13" d="M330,245c-0.3-2.7-0.9-5.3-1.5-7.9c-2.8-11.6-5.6-23.2-8.4-34.9c-0.2-1-0.7-2.2-1.7-2.2
				c-0.6,0-1.1,0.4-1.5,0.8c-1.3,1.2-2.7,2.5-2.8,4.3c-0.1,1.1,0.3,2.2,0.7,3.3c2.6,6.9,4.3,14,6,21.2c1.2,5.1,2.4,10.2,2.1,15.4
				c-0.2,3.5,0.4,6.4,0.8,9.9c0.2,1.6,0.3,5,2.1,5.7C331.3,262.7,330.3,247.3,330,245z"/>
			<path class="st14" d="M221.2,375c8.2,2.9,15.6-52.5,6.8-51.8c-1.1,0.1,0,22.4-4.3,33.5C219.8,367.2,208.5,370.5,221.2,375z"/>
			<path class="st13" d="M200.2,343.8c1.6,0.3,2.9-1.3,3.1-2.9s-0.4-3.1-0.5-4.7c-0.3-3.1,0.9-6.2,2.1-9.1c1.2-2.7,2.4-5.5,4.1-7.9
				c1.4-2,3.2-3.7,4.6-5.7c2.1-3.3,3-7.4,2.4-11.2c-0.3-1.8-1.3-3.9-3.1-4.1c-1.9-0.2-3.2,1.8-3.9,3.6c-1.6,4.3-2,9.1-4.4,13
				c-2,3.2-5.4,5.7-6.5,9.4c-0.9,2.8-0.3,5.8-0.6,8.6c-0.2,1.9-0.9,3.7-1.1,5.6c-0.1,1.2-0.2,3.2,0.5,4.3
				C197.7,343.6,198.8,343.5,200.2,343.8z"/>
			<path class="st13" d="M246.1,291.1c0.8-2.6,2-5.4,2.4-8.1c0.6-4.3,1.4-8.1,2.7-12.2c0.8-2.4,1.1-5,1.5-7.5c0.1-1,0.3-2,0-3
				c-0.3-1-1.1-1.8-2.1-1.8c-1,0-1.8,0.9-2.4,1.7c-2.1,2.9-3.5,6.2-4,9.7c-0.4,2.2-0.4,4.5-0.7,6.7c-0.4,2.7-1.3,5.3-2.6,7.7
				c-1.1,2-4.4,4.5-4.9,6.7c-0.5,2.3,2.8,4.4,4.8,4.5C243.3,295.6,245.4,293.3,246.1,291.1z"/>
			<path class="st14" d="M200.3,285.1c2.8-2.3,5.2-5.2,7-8.5c1.7-3.2,2.8-6.7,3.9-10.1c1.6-5.3,2.9-10.7,4.1-16.1
				c0.9-4,1.6-8.6-0.7-12c-0.7-1.1-2-2-3.3-1.8c-1.6,0.3-2.4,2.2-2.8,3.8c-2.7,10.1-5.8,20.2-10.5,29.5c-1.2,2.3-2.4,4.6-3.8,6.7
				c-1.1,1.8-3.5,4.1-3.7,6.2C189.8,288.9,197.6,287.4,200.3,285.1z"/>
			<path class="st13" d="M236.4,229.5c0.9-0.4,1.5-1.3,1.9-2.1c2.5-4.9,3.4-10.4,5.5-15.5c2.1-5,5.3-9.4,7.5-14.3
				c2.9-6.1,4.3-12.9,4.1-19.6c0-0.7-0.1-1.6-0.7-2c-0.5-0.4-1.2-0.3-1.8-0.2c-3.4,0.4-6.7,1.3-9.9,2.4c-1.2,0.4-2.4,0.9-3.3,1.8
				c-1.1,1-1.9,2.4-2.4,3.8c-1.2,3.3-1.3,6.8-1.5,10.3c-0.4,5.3-1.2,10.6-2.3,15.9c-0.6,2.7-1.3,5.4-3,7.6c-2,2.7-5.1,4.7-2,7.6
				C230.1,226.4,234,230.4,236.4,229.5z"/>
			<path class="st15" d="M220.2,329.7c-1.7,4.7-2.7,9.7-3,14.8c-0.1,1.8-0.1,3.5-0.5,5.2s-1.3,3.4-2.8,4.3c-0.5,0.3-1,0.5-1.6,0.4
				c-1.2-0.2-1.8-1.4-2-2.6c-1.1-4.9,0.4-10,2-14.8c0.8-2.2,1.5-4.5,2.3-6.7c0.6-1.8,1.8-5.6,4.1-6
				C221.8,323.8,220.8,328,220.2,329.7z"/>
			<path class="st15" d="M198,239.3c-1.3,2-2.1,6-1.8,8.4c1,0.6,1.9-0.1,2.9-0.8s1.9-2.9,2.5-4.1c2.8-5.4,9.8-8.2,6.6-11
				C204.7,228.9,199.6,236.8,198,239.3z"/>
			<path class="st15" d="M249.4,360.3c0,1.7,0.1,3.5,0.5,5.2c0.2,0.8,0.4,1.6,0.9,2.1c0.5,0.6,1.2,0.9,1.7,0.5
				c0.5-0.2,0.8-0.8,1.1-1.4c1.3-2.7,1.9-6,1.7-9.1c-0.1-1.5-0.4-2.9-0.6-4.4c-0.1-1.7,0-3.5,0.2-5.2c0.2-1.4,0.4-3.6-0.8-4.3
				c-1.2-0.7-2.5,0.7-3,1.9C249.5,349.6,249.4,356,249.4,360.3z"/>
			<path class="st15" d="M284.3,289.2c0.8-0.3,1.8-0.1,2.1,0.6c0.1,0.3,0.1,0.6,0.1,0.9c0,2.7-0.2,5.3-0.6,8
				c-0.1,0.7-0.2,1.4-0.2,2.2c0.2,1.7,3,8.7,1,10c-1.4,0.9-3.1-2.7-3.6-3.5C281.2,303.5,278.7,291.2,284.3,289.2z"/>
			<path class="st15" d="M303.5,279c0.3,1.2,0.6,2.4,1.3,3.3c0.2,0.2,0.4,0.4,0.6,0.5c0.8,0.2,1.2-1,1.3-1.8
				c0.1-2.9,0.6-16.3-3.3-17.1C298.2,262.8,303.1,277.2,303.5,279z"/>
			<path class="st16" d="M231.4,273.5c-0.3,1.2-0.5,2.4-0.3,3.5c0.2,1.2,1,2.3,2.1,2.7c0.4,0.1,0.8,0.1,1.1,0
				c0.3-0.1,0.6-0.4,0.8-0.7c1.5-2.1,2.5-4.5,2.9-7.1c0.2-1.6,0.2-3.2,0.3-4.8c0.1-1.6,0.4-3.2,0.8-4.7c0.4-1.3,1.4-2.8,1.6-4.1
				c0.2-1.8-1.6-2.1-3-1c-1.9,1.4-2.9,5.4-3.7,7.5C233,267.6,232.1,270.5,231.4,273.5z"/>
			<path class="st16" d="M194.5,302.8c-1.5,2.9-2.3,6-3,9.2c-0.7,2.8-1.3,5.6-1.5,8.5c-0.1,1.3,0.1,3,1.3,3.5c1.4,0.6,2.8-1,3.3-2.4
				c1-2.6,1-5.4,2-8c0.6-1.7,1.6-3.2,2.6-4.7c1.4-2.1,2.8-4.2,4.2-6.3c0.9-1.3,1.9-3,1.2-4.6c-0.6-1.4-2-1.9-3.4-1.5
				C198.4,297.2,195.9,300.2,194.5,302.8z"/>
			<path class="st16" d="M215.6,402.9c0,1.6,0,3.1,0.4,4.6c0.4,1.4,1.2,2.6,1.3,4c0,0.4,0,0.8,0.3,1.1c0.5,0.7,1.6,0.4,2.2-0.2
				c0.9-0.7,1.4-1.8,1.7-2.9c1.6-4.4,1.3-9.4-0.8-13.5c-0.9-1.8-3.4-3.6-4.9-1.2C214.8,396.8,215.6,400.9,215.6,402.9z"/>
			<path class="st16" d="M217.7,216.1c0,1.6,0.4,3.6,2,4c1.7,0.4,3-1.4,3.6-3c0.6-1.7,1-3.5,1.4-5.2c1.1-4.8,2.1-9.6,3.2-14.4
				c0.4-1.8,2.6-12.5-2.3-7.8c-2.8,2.7-4.2,8.8-5.4,12.5C218.7,206.7,217.7,211.3,217.7,216.1z"/>
			<path class="st16" d="M314.9,225.6c-0.8-4.1-1.6-8.1-1.9-12.2c-0.1-1.4-0.5-3.3-2-3.4c-0.9-0.1-1.7,0.7-1.9,1.5s-0.2,1.7-0.1,2.6
				c0.9,6.5,2.4,13,4.4,19.2c0.6,1.8,2,4.7,3,1.2C317.1,232.1,315.4,228,314.9,225.6z"/>
			<path class="st17" d="M295.1,141.3c0-1.1,0.1-2.3-0.6-3.3c-1.1-1.7-4-1.8-4.7-3.7c-0.6-1.8,1.3-3.4,2.7-4.8
				c2.6-2.6,3.6-6.3,4.6-9.9c1.1-4.1,2.2-8.2,2.2-12.4c0-5.8-2.1-11.5-1.9-17.4c0-0.5,0-1,0.3-1.3c0.6-0.8,1.9-0.6,2.5,0.2
				s0.8,1.7,0.9,2.7c1.2,9.8,2.3,19.8-0.2,29.4c-0.5,2.1-1.3,4.2-1.7,6.4c-0.5,2.6-0.5,5.3-0.2,8c0.2,2.4,0.5,4.8,1,7.1
				c0.4,1.8,0.8,3.5,1.2,5.3c0.5,2.2,0.9,4.4,1.2,6.6c0.7,3.9,1.3,7.8,2,11.8c0.5,3.2,2.2,7.9,1.6,10.9c-2.3-1.1-2-4.9-2.5-6.9
				c-0.7-3.3-1.8-6.4-3-9.5C298.1,154.3,295.1,148,295.1,141.3z"/>
			<path class="st17" d="M268,228.8c0.6,2.7,2.2,5.3,2.2,8.1c0,1.4-0.3,2.8,0.2,4.1c0.6,0.1,0.9-0.7,0.9-1.2
				c0.3-3.7-0.4-7.4-0.8-11.1c-0.2-2,0.2-4.1,0.5-6.1c0.2-1.4,0.8-2.7,1.2-4.1c0.5-1.4,1.8-12,0.7-13.3c-2-2.2-1.9,7.6-2.2,8.6
				C269.6,218.7,266.9,223.6,268,228.8z"/>
			<path class="st17" d="M272.1,269c-0.1,4.8,2.1-5.6,8.2,2.7c1.2,1.6-2.7-14.7-6.3-13.1C272.1,259.5,272.2,267.6,272.1,269z"/>
			<path class="st18" d="M264,220.9c-1.1,1.6-2,3.4-3.3,4.9c-0.8,1-2.9,2.5-2.2,3.6c0.7,1.1,1.4-1.2,2.5-1.9
				c0.4-0.3,1.1-1.8,1.5-2.1c0.4-0.4,2.1-2.1,2.4-2.6c1.8-2.7,3.8-7.2,3-7.6C266.1,214,265,219.3,264,220.9z"/>
			<path class="st18" d="M282,146.6c0.6-1.8,1.9-3.2,3.2-4.6c0.7-0.8,1.5-1.7,2.2-2.5c0.4-0.4,0.8-0.8,1.3-0.9
				c0.9-0.1,1.6,0.6,2.1,1.3c0.3,0.4,0.7,0.9,0.7,1.4c0.1,0.9-0.6,1.6-1.2,2.3c-0.8,0.8-1.6,1.6-2.1,2.6c-0.5,1-0.7,2.2-0.3,3.3
				c0.5,1.1,1.6,1.9,1.7,3c0.1,1.3-1.3,2.2-2.5,2.6c-1.2,0.4-2.6,0.6-3.6,1.5c-1.5,1.5-3.5,3.9-3,0.3
				C281.1,153.6,280.9,149.6,282,146.6z"/>
			<g>
				<path class="st7" d="M269.6,155.6c-14.6,14.3-41.1,25.7-62.8,29.1c-3.9,0.6-7.2-3-6.2-6.9c7.3-28.9,18.1-63.5,51-71.2
					c11.2-2.6,26.6,0.3,31.6,11.9C288.5,131,278.2,147.2,269.6,155.6z"/>
				<path class="st19" d="M279.5,124.2c0.4,6.4-0.9,12.6-5.1,17.5c-4.2,4.9-8.5,10.3-13.9,14c-5,3.5-16.3,10.3-16.8,10.5
					c3.7-2.6-34.4,20-32.8,9.6c0.7-4.7,7.5-10.8,15-16.5c-1.5,3.2-3.6,6-6.1,8.4c-0.6,0.5-1.2,1.1-1.2,1.9c0.6,0.4,1.5,0.1,2.2-0.3
					c1.9-1.2,3.5-2.9,4.7-4.8c1.4-2.4,2-5.3,3.7-7.6c1.1-0.8,2.1-1.5,3.2-2.3c0.8-0.1,1.7,0.1,2.3,0.7c0.6,0.6,0.8,1.6,0.9,2.5
					c0.2,2.4-0.3,4.8-1.2,7c0.4,0.4,1,0,1.3-0.4c2.2-2.7,2.1-6.6,1-9.9c-0.2-0.8-0.5-1.5-0.4-2.3c0-0.1,0-0.2,0-0.2
					c3.4-2.4,6.2-4.4,7.9-5.9c1.1,0.2,2.1,0.8,2.5,1.8c0.8,1.8-0.4,4-0.1,6c0.1,0.5,0.5,1.1,1,0.9c0.3-0.1,0.4-0.4,0.5-0.7
					c0.9-2.7,0.9-5.7,0.1-8.4c-0.2-0.7-0.5-1.5-0.5-2.2c0-0.2,0-0.4,0-0.6c1.7-1.6,3.5-3.1,5.1-4.7c1.7-0.2,3.4,0.5,4.4,1.9
					c0.4,0.6,0.7,1.3,1.1,1.8c0.5,0.6,1.3,0.9,1.9,0.6c0.6-0.3,0.8-1.2,0.6-1.8c-0.2-0.7-0.7-1.2-1.1-1.8c-1.3-1.9-1.7-4.6-0.9-6.7
					c0.8-0.8,1.5-1.6,2.2-2.5c0.3-0.3,0.5-0.6,0.8-0.9c0.3-0.1,0.7-0.2,1.1-0.1c0.4,0.1,0.8,0.2,1.1,0.5c2.3,1.4,3.9,4,4.2,6.7
					c0.2,2-0.4,4-0.9,6c1.9-0.3,2.7-2.6,2.7-4.5c0-2.9-0.7-5.8-2.1-8.4c-0.7-1.3-1.6-2.5-1.9-4c0-0.2-0.1-0.4-0.1-0.6
					c2.2-2.2,4.7-4.1,7.8-4.8c1.2-0.3,2.5-0.4,3.5,0.2C278.9,120.4,279.4,122.4,279.5,124.2z"/>
				<path class="st19" d="M271.9,116.7c-0.6,1.8-2.3,2.9-3.9,3.9c-0.1,0.1-0.2,0.1-0.3,0.2c-0.8,0.1-1.6,0.1-2.3-0.1
					c-0.9-0.3-1.7-0.7-2.6-1.2c-6.4-3.2-13.8-2-20.8-0.7c-0.7,0.1-1.6,0.6-1.4,1.4c0.1,0.4,0.6,0.6,1,0.7c1.5,0.3,3-0.1,4.5-0.4
					c3.8-0.7,7.7-0.5,11.4,0.6c1.2,0.3,2.4,0.8,3.3,1.7c0.8,0.8,1.2,2,1,3c-0.9,0.9-1.8,1.8-2.6,2.7c0,0-0.1,0-0.1,0
					c-5.8,2.3-12.3,1.3-18,3.6c-0.5,0.2-1.1,0.5-1.4,1c0.8,0.6,1.8,0.4,2.8,0.3c2.7-0.5,5.5-0.5,8.2,0c0.8,0.1,1.8,0.5,2.1,1.3
					c-0.4,0.3-0.8,0.6-1.2,0.9c-0.8,0.6-1.6,1.2-2.5,1.8l0,0c-1.1,0-2.3-0.3-3.4-0.5c-4.6-0.8-9.3-0.7-13.8,0.4
					c-0.6,0.1-1.2,0.3-1.7,0.8c-0.5,0.4-0.7,1.2-0.4,1.8c3-0.2,6-0.5,9-0.7c0.9-0.1,1.9-0.1,2.7,0.3c0.8,0.4,1.4,1.3,1.2,2.2
					c-1.1,0.8-2.1,1.6-3.2,2.5c0,0,0,0,0,0c-2,0.8-4.4,0.8-6.5,0.7c-3-0.1-6-0.5-8.9,0.4c-2.3,0.7-4.4,2.2-6.4,3.7
					c-0.6,0.4-1.2,1.1-1,1.8c0.3,0.8,1.4,0.6,2.2,0.3c3.2-1.3,6.5-2.3,9.9-1.8c0.9,0.1,2,0.5,2.4,1.5c0.1,0.2,0.1,0.4,0.1,0.6
					c-1.2,1-2.3,2-3.5,3c-3.7,0.7-7.7,0.6-10.6,3.2c-0.4,0.4-0.8,1.2-0.3,1.5c0.2,0.1,0.4,0.1,0.5,0c1.4-0.2,2.7-1,4.1-1.5
					c0.9-0.3,1.9-0.4,2.8-0.2c-1.9,1.6-3.7,3.2-5.5,4.8c-1.4,1.2-3.9,4.4-5.7,4.8c-6.3,1.2,2.7-21.9,4.1-24.9
					c1.3-2.8,2.8-5.6,4.6-8.1c1.9-2.5,4-4.6,6.3-6.7c5.2-4.9,10.7-9.4,16.9-12.7c6.2-3.3,13.1-5.1,20-4.4c1.8,0.2,3.6,0.6,5,1.7
					C271.5,112.8,272.4,114.9,271.9,116.7z"/>
				<path class="st9" d="M257.2,115.7c1.7,0.3-15.7-1.3-13.3,1.9c2.1,2.7,10.2-0.9,11.7,3.4c1.9,5.5-27.9,2.6-26.7,8.4
					c42.6-1.5-7.1,6.1-9.9,13.6c3.3-1.4,13.3-4.6,13.8,1.3c0.5,6.2-17.1,8.6-19.8,14.4c1.6,0.2,10.6-4.5,12.1-3.3
					c2.6,2-15.7,11.7-13.1,14.5c0.5,0.5,15.6-8.9,18.5-9.2c3.7-0.4,4.4,8.9,5.2,8.3c6.6-5-4.2-14.8,4.8-19.1
					c8.1-3.9,10.3,11.2,11.7,10.5c6.1-3-5.8-17.5,1-22.7c9.3-7,8.1,8.8,12,10.1c7.4,2.5-1.8-18.2-0.2-20.9c6.2-10,8.5,8.4,9.8,8.9
					c7.5,3,0.5-14.4-0.5-15.5C268.1,113.2,266.7,117.3,257.2,115.7z"/>
				<path class="st10" d="M255.2,126.4c-0.6,0.1-1.4,0.2-1.9,0.7c-0.5,0.6-0.3,1.5-0.5,2.2c-0.3,1.4-1.5,2.3-2.7,3
					c-3.1,1.8-6.4,3.4-9.6,5c-0.4,0.2-0.7,0.4-1.1,0.6c-0.6,0.3-0.9,0.3-0.6,1c0.2,0.7,0.8,1.2,0.9,1.9c0.4,1.5-0.4,2.9-1.2,4.1
					c-1,1.5-2.4,2.7-3.6,4c-1.3,1.4-2.7,2.8-4,4.2c1,0.8,2.4,0,3.2-0.6c1.2-1,2.4-2.2,3.5-3.2c1.9-1.8,4.3-4.8,7.2-4.9
					c1.2,0,2.4,1.2,3.5,0.7c1.5-0.6,0.9-2.4,0.2-3.4c-0.7-0.9-2-1.7-1.6-3c0.3-1.2,1.7-2.3,2.6-3.1c2-1.8,4.3-3.1,6.9-3.9
					c1.2-0.4,2.4-0.5,3.7-0.7c0.5-0.1,1.1-0.1,1.4-0.5c0.4-0.5,0.4-1.4,0.6-2.1c0.6-2.3,2.1-4.1,4-5.4c0.6-0.4,3.5-2.2,2.3-3.2
					c-0.7-0.6-2.2,0.3-2.8,0.6c-1,0.6-2,1.4-2.9,2.1C260.5,124.3,258.1,125.9,255.2,126.4z"/>
				<path class="st11" d="M215.3,147.1c-1.5,1-2.9,2.6-2.6,4.3c2.3,0.4,13-1.2,12.7-4.6c-0.1-1.4-2.7-2-3.8-2.1
					C219.5,144.6,217.1,145.9,215.3,147.1z"/>
				<path class="st11" d="M226.7,131.9c-2,0.4-3.9,1.3-5.2,2.8c-0.1,0.1-0.2,0.3-0.3,0.5c0,0.4,0.4,0.6,0.8,0.7
					c2.4,0.5,4.9-0.4,7.2-1.2c1.2-0.4,7.5-2,4-3.3C231.8,130.7,228.3,131.5,226.7,131.9z"/>
				<path class="st11" d="M232.3,121.8c-0.3,0.3-0.5,0.7-0.4,1.1c0.2,0.5,0.7,0.6,1.2,0.7c3,0.4,6,0.2,8.9-0.4
					c1.6-0.4,6.1-2.1,2.3-3.5c-1.5-0.5-4.3,0.3-5.9,0.3C236.4,120,233.8,120,232.3,121.8z"/>
				<path class="st11" d="M209.8,165.9c1.5-1,4.2-2.2,5.3-3.6c1-1.4,0.3-2.5-1.6-2c-1.4,0.4-3,2.6-3.9,3.6
					C208.8,164.8,207.6,167.3,209.8,165.9z"/>
				<path class="st9" d="M219.6,170.8c-1.1,1-2.2,2-2.8,3.3c-0.1,0.3-0.2,0.5-0.1,0.8c0.2,0.4,0.7,0.4,1.1,0.4
					c4.7-0.2,9.4-2.3,12.6-5.8c0.5-0.5,1-1.2,1.2-1.9c0.2-0.7-0.1-1.6-0.7-1.9c-0.3-0.1-0.6-0.2-0.9-0.2c-1,0-2,0.2-2.9,0.6
					c-1.2,0.6-2.4,0.8-3.5,1.6C222.1,168.7,220.8,169.7,219.6,170.8z"/>
				<path class="st9" d="M240.4,157.4c0.6-2.2,2.9-3.7,5.2-3.5c0.2,0,0.5,0.1,0.6,0.2c0.2,0.1,0.3,0.3,0.4,0.5
					c0.9,1.7,1.4,3.6,1.2,5.6c-0.2,2.3-2.6,7.5-5.6,5.5C240.3,164.5,239.9,159.2,240.4,157.4z"/>
				<path class="st9" d="M255.2,150.2c-0.6-1.3-1-2.8-0.7-4.2s1.5-2.7,2.9-2.8c0.4,0,0.9,0.1,1.2,0.3c0.7,0.5,0.7,1.5,0.8,2.4
					c0.1,1.5,0.4,3,0.9,4.5c0.3,0.8,0.6,1.7,0.7,2.5c0.1,1.2-1.1,6.4-3.1,4.3c-0.7-0.8-0.7-2.5-1.1-3.5
					C256.4,152.4,255.8,151.3,255.2,150.2z"/>
				<path class="st9" d="M270,139.3c-0.2-0.5-0.5-0.9-0.7-1.4c-0.4-0.9-0.5-1.8-0.7-2.8c-0.1-0.6-0.2-1.2,0-1.8
					c0.2-0.6,0.8-1,1.4-0.9c0.7,0.2,0.9,1,1,1.7c0.3,1.6,0.6,3.2,1.1,4.8c0.3,1.1,0.8,2.2,0.8,3.3c0,1-0.8,4-2.1,2.6
					c-0.4-0.5-0.3-1.7-0.3-2.2C270.6,141.4,270.5,140.4,270,139.3z"/>
			</g>
		</g>
		<g>
			<g>
				<path class="st20" d="M369.4,378.6c-2,2.8-11.7-2.9-16.5-7.8c-1.1-0.9-2.7-0.4-3.6,0.7c-0.9,1.1-1.5,2.5-2.2,3.7
					c-1.5,2.3-10.9,8.2-11,3.4c-0.1-2.3,3.1-4,4.4-5.2c2-2,3.7-4.2,4.9-6.9c2.3-5,4.3-13.6,3.7-15.2c-0.5-1.2-2.4-0.5-4-0.4
					c-1.8,0.1-6.3,1.7-7.8-0.2c-2.5-3,1.3-5.3,3.3-5.4c8.8-0.8,17.6-0.5,26.3,0.9c0.7,0.7,0.5,2.2-0.2,3c-0.7,0.7-1.6,0.9-2.5,1
					c-3.6,0.4-7.1-0.5-10,0.1c-0.1,0-0.6,0.5-0.5,0.7c0.8,6.6,1.2,13.9,5.6,18.5C362.8,373.2,371.5,375.7,369.4,378.6z"/>
				<path class="st20" d="M296.8,344c-3.8-0.4-7,1-8.4,2.7c-1.4,1.8-1.3,3.9-1.2,5.9c0.2,5,0.5,10.1,0.6,15.1
					c0.1,2.6-0.7,5.4,2.7,7.9c12.5,9.2,19.9-6.1,20.2-10.3c0.2-2.4,0.2-4.7,0-7.1c-0.3-3.9-1.4-8.2-6.5-11.6
					C302.3,345.4,299.7,344.3,296.8,344z M302.6,351.1c2.9,3.9,3.4,8,2.7,11.8c-0.7,3.8-2.7,7.3-4.7,10.9c-0.4,0.7-1.2,1.5-2.7,1.2
					c-1-0.2-1.6-0.8-1.9-1.4c-3.8-6.2-0.3-12.3-3.1-18.5l-0.1-0.3c-0.2-2.7-0.5-1.2,0-3.8c0.3-1.4,1.4-3.1,4.1-3
					C299.6,348.2,301.6,349.8,302.6,351.1z"/>
				<path class="st20" d="M324.9,430.3c0,5.1-0.1,10.6,2.6,14.8c0.9,0.1,1.6-0.7,1.9-1.5c0.3-0.9,0.2-1.8,0.2-2.8
					c-0.3-4.1-0.7-8.2-1-12.3c-0.1-1.7-0.2-3.7,1.1-4.7c0.5-0.5,1.2-0.7,1.9-0.8c1.4-0.4,2.8-0.7,4.2-1.1c0-1.4-1.1-2.5-2.3-2.9
					c-1.2-0.4-2.5-0.3-3.8-0.5c-0.4,0-0.7-0.1-1-0.4c-0.3-0.4-0.2-0.9-0.2-1.4c0.6-3.9,0.7-7.8,0.5-11.8c-0.1-2.1-1-7.3-4-6.5
					c-2.1,0.6-1.8,4.4-1.8,6.2C323.5,413.1,324.9,421.6,324.9,430.3z"/>
				<path class="st20" d="M373.6,380.3c-0.2,2.1-0.5,4.4,0.3,6.3c0.2,0.5,0.6,1.1,1.2,1.1c0.4,0,2.2-0.2,2.2-0.7
					c0.2-1.8,0.7-3.3,0.6-4.9s0.1-2.8,0.1-4.4c0-1.6-0.2-2.3,0-4.3c0.1-1.8,0.3-4,0.7-5.7c0.1-0.4,0.2-0.8,0.4-1.1
					c0.6-1,4.3-1.2,5.4-1.4c1.1-0.2,1-2.5,0.6-3.6c-2.2-0.2-4.9-1.1-7.2-0.5c0-2.8,0.2-4.1,0.1-7.1c-0.1-3.5,0.9-6.9,0.8-10.3
					c0-1.5-0.2-3.1-0.9-4.4c-1.1-1.9-3.7-2.9-4-0.2c-0.3,2.7,0.4,5.9,0.5,8.5c0.2,7,0.4,14,0.1,20.9
					C374.3,372.6,374,376.4,373.6,380.3z"/>
				<path class="st20" d="M315.5,349.8c0-2.8,0.4-6.1,2-8.4c1.1-1.7,3.8-0.8,3.9,1.2l0.8,18.6c0.1,1.4,0.3,3,1.7,3.6
					c1.4,0.6,3-0.2,3.6-1.4c0.6-1.2,0.4-2.5,0.3-3.8c-0.7-6.3-0.6-12.7,0.1-18.9c0.2-1.5,2.3-1.7,2.7-0.3c0.2,0.7,0.4,1.5,0.4,2.2
					c1.7,19.2,1,25.6-0.2,44.5c-0.2,2.3-3.4,1.4-3.6-0.6c-0.5-7.2-0.9-5.5-1.4-12.6c-0.1-0.9-0.1-1.8-0.7-2.5
					c-0.6-0.7-1.9-1-2.6-0.4c-0.3,0.3-0.4,0.8-0.5,1.2c-0.7,4.9-4.3,21.3-6.7,7.3C313.7,370,315.4,359.4,315.5,349.8z"/>
				<path class="st20" d="M299.3,421.8c1.4,1.9,4,2.2,6.3,2.3c3.3,0.2,6.5,0.3,9.8,0.5c1.5,0.1,3.1,0.1,4.4-0.6
					c1.3-0.7,2.2-2.5,1.4-3.8c-4.4-0.4-8.8-0.7-13.3-1.1c-1-0.1-2.1-0.2-3-0.8c-1.2-0.9-1.6-2.5-1.8-4.1c-0.4-4.2,1-9.6-0.5-13.5
					c-1.1-2.8-4.1-3.1-5.1-0.1c-0.8,2.5,0.4,6.3,0.5,8.9C298.2,413,297.1,418.8,299.3,421.8z"/>
				<path class="st20" d="M337.2,408.1c-0.1,3.5,1.3,6.4,3.1,7.6c1.8,1.2,3.8,1,5.8,0.9c4.9-0.4,9.7-0.8,14.6-1.2
					c2.5-0.2,5.2,0.4,7.5-2.8c8.2-11.8-7-17.9-11-18c-2.3-0.1-4.6,0-6.9,0.3c-3.8,0.5-7.9,1.6-10.8,6.4
					C338.2,403,337.3,405.5,337.2,408.1z M343.8,402.5c3.6-2.8,7.5-3.4,11.2-2.9c3.7,0.5,7.2,2.2,10.8,3.8c0.7,0.3,1.5,1.1,1.4,2.4
					c-0.1,0.9-0.7,1.5-1.2,1.8c-5.8,3.7-11.9,0.7-17.7,3.5l-0.2,0.1c-2.6,0.3-1.1,0.5-3.7,0.1c-1.4-0.2-3.1-1.2-3.1-3.7
					C341,405.4,342.5,403.5,343.8,402.5z"/>
				<path class="st20" d="M370.3,420.3c1.1,0,2.3,0,3.3,0.6c1,0.6,1.5,2,0.9,2.9c-4.1,1-8.4,1-12.6,1.1c-2.3,0-5.1,0.6-5.6,2.8
					c-0.2,1.1,0.2,10.2,0.2,11.3c0,1.1-1,2.3-2,1.9c-2.2-0.8-1-12.7-2.9-14c-0.6-0.4-1.4-0.4-2.1-0.4c-1.4,0-8.2,0.7-8.5-0.8
					c-0.3-1.6,4.2-3.4,5.3-3.7C353.7,419.9,362.7,420.5,370.3,420.3z"/>
			</g>
			<g>
				<g>
					<path class="st20" d="M192.4,193.1c-0.7-0.9-5-1.6-6.1-1.6c-8.2-0.1-8.9-0.6-16.2-0.7c0.1-1.6-0.2-3.4-0.2-4.3
						c0-0.4,0-0.9,0.3-1.2c0.2-0.2,0.6-0.2,0.9-0.2c3.2,0.3,6.3,1.3,9.4,1.8c3.2,0.5,6.5,0.6,9.5-0.6c0.2-0.1,0.5-0.2,0.6-0.4
						c0.2-0.3,0.2-0.7,0.3-1c0.3-5.7,0.2-11.3-0.2-17c-0.1-1.8-0.4-3.7-1.7-4.7c-0.9-0.6-2-0.6-3-0.5c-0.2,0-0.5,0.1-0.6,0.2
						c-0.3,0.3-0.3,0.9-0.3,1.4c0.1,1.1,0.2,2.2,0.3,3.3c-0.3,0-0.7,0-1,0c-3.5-0.1-6.9-0.1-10.4-0.1c-6,0-12,0.1-18-0.2
						c-0.5,0-1-0.1-1.5-0.1c-0.1-1.1-0.2-2.2-0.6-3.3c-0.5-1.3-1.4-2.6-2.6-3c-0.7-0.2-1.5-0.2-2.2-0.2c-0.7,0-1.5,0.1-2,0.7
						c-0.6,0.7-0.5,1.8-0.4,2.8c0.6,4.9-0.3,9.9-0.3,14.8c0,1.3,0,2.6,0.3,3.8c0.1,0.3,0.2,0.7,0.4,0.9c0.3,0.2,0.6,0.2,0.9,0.2
						c5.6,0.1,11.2,0.3,16.8,0.5c0.3,0,0.6,0,0.7,0.3c0.1,0.2,0.1,0.5,0.1,0.7c-0.1,1.2-0.3,3.3,0,5.2c-4.9-0.3-11.9-1-15.4-1.4
						c-1.1-0.1-3.1-0.9-4,0.3c-1,1.3-0.1,3.8,0.9,4.5c0.7,0.5,1.5,0.6,2.2,0.7c13.6,2,27.4,2.8,41.2,2.6c0.8,0,1.6-0.1,2.2-0.8
						C193.4,195.7,193.2,194,192.4,193.1z M157.1,179.8c-0.7,0-1.4-0.1-1.8-0.8c-0.2-0.3-0.2-0.7-0.2-1.1c-0.1-1.9-0.3-3.8-0.4-5.7
						h0c2.1,0.2,4.2,0.3,6.4,0.5c7.8,0.6,15.6,1.1,23.4,1c0.4,0,0.9,0,1.3-0.1c0.1,1.7,0.2,3.3,0.1,5c-0.1,0.6-0.1,1.2-0.5,1.7
						c-0.6,0.9-1.8,0.9-2.7,0.8C174.2,180.6,165.7,180.2,157.1,179.8z"/>
					<path class="st20" d="M151.4,204.5c0.1,0.7,0.1,1.5,0.5,2.1c0.5,0.9,1.4,1.3,2.3,1.5c2.2,0.6,4.5,0.8,6.8,1
						c8.3,0.7,16.7,1.3,25.1,1.2c1.5,0,3.4-0.4,3.8-2c0.3-1.2-0.5-2.4-1.5-2.9c-1-0.5-2.1-0.5-3.2-0.4c-8.9,0.3-17.8,0.1-26.7-0.5
						c-0.4,0-0.9-0.1-1.2-0.3c-0.4-0.3-0.7-0.7-0.9-1.3c-0.8-2.2-0.5-5.7-3.5-5.6C149.8,197.5,151.2,202.5,151.4,204.5z"/>
				</g>
				<path class="st20" d="M113.2,162c-1.1,0.1-2.4,0.4-3.1,1.2c-0.7,0.9-0.8,2.1-0.7,3.2c0.1,4.1,0.1,8.2,0.2,12.4
					c0,1.1,0.1,2.4,0.9,3.1c0.6,0.5,1.5,0.6,2.4,0.7c4.5,0.5,9.3,2.2,11.5,6.2c1.8,3.2,1.4,7.3-0.5,10.4s-5.4,5-9,5.5
					c-1.5,0.2-3.1,0.2-4.4,1c-1.3,0.8-2.1,2.7-1.1,3.8c6.7,1.3,14.8,0.5,18.8-5c1.5-2,2.3-4.5,2.8-6.9c0.8-4.2,0.8-8.7-1.3-12.5
					c-2.2-4.1-6.6-6.8-11.3-7c-1.1,0-2.4,0-3.3-0.8c-0.5-0.5-0.7-1.1-0.9-1.7c-1.1-3.2-1.7-7.5,1.2-9.1c1.2-0.7,2.7-0.7,4.1-0.6
					c3.4,0.1,6.8,0.3,10.2,0.4c5.4,0.2,10.5-4.5,3.1-5.8C126.9,159.5,119.1,161.2,113.2,162z"/>
			</g>
		</g>
	</g>
</g>
</svg>
