<?xml version="1.0" encoding="utf-8"?>
<!-- Generator: Adobe Illustrator 22.0.0, SVG Export Plug-In . SVG Version: 6.00 Build 0)  -->
<svg version="1.1" id="Слой_1" xmlns="http://www.w3.org/2000/svg" xmlns:xlink="http://www.w3.org/1999/xlink" x="0px" y="0px"
	 viewBox="0 0 500 500" style="enable-background:new 0 0 500 500;" xml:space="preserve">
<style type="text/css">
	.st0{fill:#555B6E;}
	.st1{fill:#E7DFC6;}
	.st2{fill:none;stroke:#FFCFC2;stroke-width:4;stroke-miterlimit:10;}
	.st3{fill:#727E24;stroke:#E7DFC6;stroke-width:3;stroke-miterlimit:10;}
	.st4{fill:#849324;stroke:#E7DFC6;stroke-width:3;stroke-miterlimit:10;}
	.st5{fill:#BFAE48;stroke:#E7DFC6;stroke-width:3;stroke-miterlimit:10;}
	.st6{fill:#5F7018;}
	.st7{fill:#849324;}
	.st8{fill:#2470A0;stroke:#E7DFC6;stroke-width:3;stroke-miterlimit:10;}
	.st9{fill:#3E4E88;}
	.st10{fill:#2E3177;}
	.st11{fill:#1A2C5B;}
	.st12{fill:#1B5275;}
	.st13{fill:#87B1CB;}
	.st14{display:none;fill:#555B6E;}
	.st15{fill:#BFAE63;}
</style>
<g>
	<path class="st0" d="M62.3,465.4c0,5,4.4,9,9.9,9s9.9,4,9.9,9s4.4,9,9.9,9c5.5,0,9.9-4,9.9-9s4.4-9,9.9-9c5.5,0,9.9,4,9.9,9
		s4.4,9,9.9,9s9.9-4,9.9-9s4.4-9,9.9-9s9.9,4,9.9,9s4.4,9,9.9,9c5.5,0,9.9-4,9.9-9s4.4-9,9.9-9c5.5,0,9.9,4,9.9,9s4.4,9,9.9,9
		c5.5,0,9.9-4,9.9-9s4.4-9,9.9-9c5.5,0,9.9,4,9.9,9s4.4,9,9.9,9s9.9-4,9.9-9s4.4-9,9.9-9c5.5,0,9.9,4,9.9,9s4.4,9,9.9,9s9.9-4,9.9-9
		s4.4-9,9.9-9c5.5,0,9.9,4,9.9,9s4.4,9,9.9,9s9.9-4,9.9-9s4.4-9,9.9-9s9.9,4,9.9,9s4.4,9,9.9,9c5.5,0,9.9-4,9.9-9s4.4-9,9.9-9
		s9.9,4,9.9,9s4.4,9,9.9,9c5.5,0,9.9-4,9.9-9l0,0.3c0-5,4.4-9,9.9-9s9.9-4,9.9-9s-4.4-9-9.9-9s-9.9-4-9.9-9s4.4-9,9.9-9s9.9-4,9.9-9
		c0-5-4.4-9-9.9-9s-9.9-4-9.9-9c0-5,4.4-9,9.9-9s9.9-4,9.9-9s-4.4-9-9.9-9s-9.9-4-9.9-9s4.4-9,9.9-9s9.9-4,9.9-9c0-5-4.4-9-9.9-9
		s-9.9-4-9.9-9s4.4-9,9.9-9s9.9-4,9.9-9s-4.4-9-9.9-9s-9.9-4-9.9-9c0-5,4.4-9,9.9-9s9.9-4,9.9-9s-4.4-9-9.9-9s-9.9-4-9.9-9
		s4.4-9,9.9-9s9.9-4,9.9-9c0-5-4.4-9-9.9-9s-9.9-4-9.9-9c0-5,4.4-9,9.9-9s9.9-4,9.9-9c0-5-4.4-9-9.9-9s-9.9-4-9.9-9c0-5,4.4-9,9.9-9
		s9.9-4,9.9-9s-4.4-9-9.9-9s-9.9-4-9.9-9c0-5,4.4-9,9.9-9s9.9-4,9.9-9c0-5-4.4-9-9.9-9s-9.9-4-9.9-9c0-5,4.4-9,9.9-9s9.9-4,9.9-9
		s-4.4-9-9.9-9s-9.9-4-9.9-9s4.4-9,9.9-9s9.9-4,9.9-9s-4.4-9-9.9-9s-9.9-4-9.9-9s4.4-9,9.9-9s9.9-4,9.9-9s-4.4-9-9.9-9h0
		c-5.5,0-9.9-4-9.9-9s-4.4-9-9.9-9c-5.5,0-9.9,4-9.9,9s-4.4,9-9.9,9s-9.9-4-9.9-9s-4.4-9-9.9-9c-5.5,0-9.9,4-9.9,9s-4.4,9-9.9,9
		s-9.9-4-9.9-9s-4.4-9-9.9-9s-9.9,4-9.9,9s-4.4,9-9.9,9c-5.5,0-9.9-4-9.9-9s-4.4-9-9.9-9s-9.9,4-9.9,9s-4.4,9-9.9,9
		c-5.5,0-9.9-4-9.9-9s-4.4-9-9.9-9s-9.9,4-9.9,9s-4.4,9-9.9,9c-5.5,0-9.9-4-9.9-9s-4.4-9-9.9-9c-5.5,0-9.9,4-9.9,9s-4.4,9-9.9,9
		c-5.5,0-9.9-4-9.9-9s-4.4-9-9.9-9c-5.5,0-9.9,4-9.9,9s-4.4,9-9.9,9s-9.9-4-9.9-9s-4.4-9-9.9-9s-9.9,4-9.9,9s-4.4,9-9.9,9
		c-5.5,0-9.9-4-9.9-9s-4.4-9-9.9-9c-5.5,0-9.9,4-9.9,9h0c0,5-4.4,9-9.9,9c-5.5,0-9.9,4-9.9,9s4.4,9,9.9,9c5.5,0,9.9,4,9.9,9
		s-4.4,9-9.9,9c-5.5,0-9.9,4-9.9,9s4.4,9,9.9,9c5.5,0,9.9,4,9.9,9s-4.4,9-9.9,9c-5.5,0-9.9,4-9.9,9s4.4,9,9.9,9c5.5,0,9.9,4,9.9,9
		c0,5-4.4,9-9.9,9c-5.5,0-9.9,4-9.9,9c0,5,4.4,9,9.9,9c5.5,0,9.9,4,9.9,9c0,5-4.4,9-9.9,9c-5.5,0-9.9,4-9.9,9s4.4,9,9.9,9
		c5.5,0,9.9,4,9.9,9c0,5-4.4,9-9.9,9c-5.5,0-9.9,4-9.9,9c0,5,4.4,9,9.9,9c5.5,0,9.9,4,9.9,9c0,5-4.4,9-9.9,9c-5.5,0-9.9,4-9.9,9
		c0,5,4.4,9,9.9,9c5.5,0,9.9,4,9.9,9s-4.4,9-9.9,9c-5.5,0-9.9,4-9.9,9s4.4,9,9.9,9c5.5,0,9.9,4,9.9,9c0,5-4.4,9-9.9,9
		c-5.5,0-9.9,4-9.9,9s4.4,9,9.9,9c5.5,0,9.9,4,9.9,9s-4.4,9-9.9,9c-5.5,0-9.9,4-9.9,9c0,5,4.4,9,9.9,9c5.5,0,9.9,4,9.9,9
		s-4.4,9-9.9,9c-5.5,0-9.9,4-9.9,9s4.4,9,9.9,9c5.5,0,9.9,4,9.9,9c0,5-4.4,9-9.9,9c-5.5,0-9.9,4-9.9,9c0,5,4.4,9,9.9,9
		c5.5,0,9.9,4,9.9,9s-4.4,9-9.9,9c-5.5,0-9.9,4-9.9,9"/>
	<path class="st1" d="M390.5,456.8H108.1c-4.3,0-7.7-3.5-7.7-7.7V51c0-4.3,3.5-7.7,7.7-7.7h282.4c4.3,0,7.7,3.5,7.7,7.7v398
		C398.3,453.3,394.8,456.8,390.5,456.8z"/>
	<path class="st2" d="M396.6,465.7H103.4c-6.8,0-12.3-5.5-12.3-12.3V46.6c0-6.8,5.5-12.3,12.3-12.3h293.2c6.8,0,12.3,5.5,12.3,12.3
		v406.8C408.9,460.2,403.4,465.7,396.6,465.7z"/>
	<g>
		<g>
			<path class="st3" d="M251.4,300.2c1.4-1.5,3-3,5.2-3.6c2.8-0.7,5.7,0.5,8,2c0.8,0.5,1.6,1.1,2,1.9c1.6,2.6-3.4,3.3-5.6,5.5
				c-8.6,8.7-15.3,20.4-16.8,31.9c-0.2,1.2-0.4,2.5-1.5,3.1c-1,0.6-2.5,0.1-3.2-0.7c-5.2-5.3-2.7-13.8-0.6-19.7
				C241.6,313.1,245.8,306.2,251.4,300.2z"/>
			<path class="st3" d="M247.7,369.1c0.9-3,2.2-5.9,3.7-8.5c3.8-6.7,9-12.5,13-19.1c0.6-1.1,1.3-2.2,2.5-2.7
				c1.1-0.5,2.8,0.2,2.8,1.4c0,0.4-0.2,0.9-0.5,1.2c-3.1,5.3-6.1,10.6-9.1,15.9c-2.2,3.9-4.5,7.8-5.2,12.3c-0.3,2-0.3,4,0.1,5.9
				L247.7,369.1z"/>
			<path class="st4" d="M256.4,364c12.1,16.2,31.1,38.5,21.6,42.1c-8.6,3.3-39.5-45.6-50.4-66.2c-3.3-6.3-6.4-12-9.2-17.4
				c-0.5-1-2-2.8-2.9-3.5c-6.9-5-12.7-8.9-21.4-10.2c-0.8-0.1-2.3-0.2-2.6-0.9c-0.4-0.8,0.4-3.9,1.2-4.2c0.8-0.3,1.7-0.1,2.6,0.1
				c2.7,0.7,9,1.8,14.2,4.9c1.5,0.9,3.7-2.8,3.5-4.5c-1-13.9-8.2-15.7-16.7-35.2c8.2-4.6,22,25.9,29.4,41
				c6.7,13.7,0.1-44.7,8.5-54.9c4.2-6.1-3.8-26.5,1.9-31.2c7.3,20.8,7.9,25.9,8.8,31.5c-2,12.8-5.1,28.9-4.3,38.6l-0.4,6.3
				c-3.2,20.6,1.8,37.3,8.2,51.3c0.8,1.8,2.2,4.1,4,6.6L256.4,364z"/>
		</g>
		<g>
			<path class="st5" d="M155.4,214.8c-3.1-4.9-5-10.5-6.8-16c-2.5-7.7-4.9-15.4-5.9-23.4c-0.1-0.8-0.2-1.6,0.3-2.2
				c0.3-0.5,0.9-0.7,1.4-0.9c3.8-1.6,9.3-0.6,13.4-0.7c5.8-0.1,11.8,1.6,16.8,4.6c7.7,4.7,12.9,8.4,20,13.9c3.2,2.5,6.4,5.1,9,8.3
				c4.7,5.9,6.7,13.8,5.5,21.3c-0.7,4.4-2.6,8.8-5.9,11.8C189.7,243.7,163,226.8,155.4,214.8z"/>
			<path class="st5" d="M238,114.2c-3.3-3.4-9.8-13.2-14.8-11.6c-4.6,1.5-7.1,14.3-8.9,18.8c-1.7,4.5-2,9.3-2.2,13.9
				c-0.6,11.7-1.1,23.7,2.7,34.3c6.6,18.1,26.3,25.3,44.2,12c14.8-11,6.3-25.5,0.3-37C253.7,134.1,246.2,122.6,238,114.2z"/>
			<path class="st4" d="M359.1,130.2c2.8-0.1,6.1,0.2,7.6,2.7c0.9,1.5,0.8,3.3,0.6,5.1c-2.5,26.1-17.1,50.7-38.7,65.4
				c-6.7,4.6-14.5,8.3-22.6,8c-9.4-0.4-18.3-6.7-21.7-15.4c-7.2-18.2,7.4-29.9,18.8-41C318.2,140.2,337.9,130.8,359.1,130.2z"/>
			<path class="st4" d="M351.1,250.6c4.5,2.6,16.6,7,16.4,12.3c-0.2,4.9-12.4,10.2-16.5,12.9c-4.1,2.7-8.9,4-13.6,5.2
				c-11.8,3.1-24,6.1-36,4.6c-20.6-2.7-34.1-20.9-26-41.6c6.7-17.1,24.2-11.7,37.8-8.1C325.9,239.1,340,244.2,351.1,250.6z"/>
			<path class="st6" d="M342.1,259.4c4.5-0.1,9.1,0,13.4,1.5c1,0.3,2.2,1.3,1.7,2.2c-0.3,0.6-1.1,0.7-1.7,0.7
				c-14.8,0.5-30,1.1-43.7,6.6c-4,1.6-8.4,4.1-12.8,4.3c-3.5,0.2-3.5-2.8-0.9-4.7c3.7-2.6,9.3-4,13.5-5.4c4.6-1.5,9.4-2.7,14.2-3.5
				C331.1,260.2,336.6,259.6,342.1,259.4z"/>
			<path class="st6" d="M329.1,157.3c1.6-2.1,3.3-4,5.1-5.9c5.5-6,11.3-12.1,18.7-15.4c2.1-1,4.5-1.7,6.8-1.4c0.4,1.1-0.6,2.3-1.5,3
				C342.4,151,329,167.1,318.7,185c-0.8,1.4-1.8,3.3-3.5,3.8c-1.6,0.4-3.5-0.4-3.7-2.1c-0.2-2.7,4.4-6.7,5.9-8.9
				C321.6,171.1,324.3,163.6,329.1,157.3z"/>
			<path class="st4" d="M286.3,318c3-0.5,11.6-3.7,14.5-2.8c2.9,0.9,2.1,0.8,2.4,3.8c0.2,1.6-2.5,8.7-3.1,10.3
				c-4.1,11-28.7,43.9-44.5,24.8c-5-6.1-2.2-15.2,1.6-20.9C263.5,324,275.8,319.7,286.3,318z"/>
			<path class="st5" d="M196.9,314.1c1.2-0.7,2.3-1.6,3.1-2.6c1.8-2.4,2.2-5.6,1.5-8.5c-0.7-2.9-2.4-5.5-4.4-7.7
				c-6.7-7.7-17-12.2-27.2-12c-2.8,0.1-5.6,0.4-8.3,1c-8.7,1.7-17.1,5-24.3,10.2c-1.1,0.8-2.1,1.6-2.8,2.8c-0.7,1.1-0.9,2.6-0.3,3.8
				c0.4,0.8,1.2,1.4,2.1,1.8c5.8,3.2,13,2.1,19.5,3.4c4.9,1,9.4,3.5,13.7,6.2c2.1,1.4,4.2,2.8,6.5,3.7
				C182.4,318.4,191.1,317.8,196.9,314.1z"/>
			<path class="st6" d="M274.9,333.4c1.8-1.3,3.6-2.4,5.4-3.6c5.9-3.9,11.6-8.7,18.5-9.5c-0.2,0.9-1.2,1.4-2,1.7
				c-7.6,3.5-14.1,9.2-20.3,14.8c-2.7,2.4-5.3,4.8-7.7,7.5c-1.2,1.3-2.4,2.7-3.4,4.1c-0.7,1-1.9,3.9-3,4.4c-1.9,0.9-2-2.6-1.7-3.9
				c0.8-2.8,3.9-5.6,5.7-7.7C269,338.3,271.8,335.6,274.9,333.4z"/>
			<path class="st7" d="M164.6,293.3c6.1,1.2,11.9,4,18.1,5.2c2.3,0.4,4.8,0.7,6.9,1.7c1.5,0.7,2.8,2,3.1,3.6c0,0.2,0,0.3-0.1,0.4
				c-0.1,0.2-0.4,0.1-0.6,0c-7.3-2.4-14.6-4.6-22-6.5c-4-1.1-8.1-2.1-12.3-2.5c-4.2-0.4-8.5-0.2-12.4,1.1c-1.9,0.7-4.2,1.9-6.3,1.6
				c0.4-1.4,4.4-2.5,5.6-3c2.1-0.8,4.2-1.4,6.4-1.8C155.5,292.4,160.1,292.4,164.6,293.3z"/>
			<path class="st7" d="M157,188.1c-3.4-3.5-6.8-7-9.3-10.9c-0.4-0.6-0.3-1.5,0.5-1.5c0.3,0,0.5,0.2,0.7,0.3
				c7.5,5.8,15.1,11.6,21.3,18.3c5,5.4,9.1,11.3,13,17.2c-0.3-0.5-3.6-1.5-4.4-1.9c-1.2-0.7-2.4-1.4-3.4-2.2
				c-1.6-1.4-2.7-3.1-4.1-4.6C166.6,197.9,161.8,193,157,188.1z"/>
			<path class="st7" d="M224.7,110.6c0-0.7,0.1-1.7,0.8-1.9c1,3.5,2,6.9,3,10.4c0.5,1.8,1,3.6,1.8,5.3c0.5,1.3,1.2,2.5,1.8,3.7
				c2.4,4.7,4.2,9.7,5.4,14.9c0.7,3.1-4.8,2.4-5.8,0.3c-1.3-2.7-1.9-6.4-2.8-9.3C226.6,126.4,225.1,118.5,224.7,110.6z"/>
		</g>
		<g>
			<path class="st8" d="M286.6,196.3c-10,5.8-17.1,17.3-18.8,29.7s2,25.5,9.5,35c2.3,2.9,4.9,5.5,8.1,7.2c3.3,1.7,7.1,2.3,10.8,2.4
				c20.1,0.3,38.9-9.7,45.1-30.9c3.3-11.3,2.9-27.6-5.1-37.3c-5.9-7.1-18.6-9.7-26.2-10.4C301.9,191.1,293.7,192.2,286.6,196.3z"/>
			<path class="st9" d="M307.4,202.3c-0.9,0.1-1.9,0.2-2.7,0.6c-2.4,1.3-2.4,4.7-1.6,7.3c1.4,4.2,4.5,7.8,8.4,9.9
				c3.9,2.1,8.7,2.6,12.9,1.5c7.8-2.1,12.3-11.9,4.1-16.9c-2.3-1.4-4.6-1.1-7.2-1.3C316.7,203.1,312.2,202,307.4,202.3z"/>
			<path class="st10" d="M310.3,204.8c-0.7,0-1.4,0.1-2,0.5c-1.7,1-1.8,3.5-1.1,5.4c1,3.1,3.3,5.8,6.2,7.3c2.9,1.5,6.4,1.9,9.5,1.1
				c5.7-1.5,9-8.7,3-12.5c-1.7-1-3.4-0.8-5.3-1C317.1,205.4,313.8,204.6,310.3,204.8z"/>
			<path class="st11" d="M313.2,207.4c-0.4,0-0.9,0.1-1.2,0.3c-1.1,0.6-1.1,2.2-0.7,3.3c0.7,1.9,2.1,3.6,3.9,4.6
				c1.8,1,4,1.2,5.9,0.7c3.6-1,5.6-5.4,1.9-7.8c-1.1-0.7-2.1-0.5-3.3-0.6C317.5,207.7,315.4,207.2,313.2,207.4z"/>
			<path class="st12" d="M295.8,253.5c0,0.7,0,1.4,0.4,2c0.6,1,1.9,1.3,3,1.8c2.3,1.3,3.1,4.4,5.3,5.8c2.3,1.4,5.1,0.5,7.6-0.5
				c3.4-1.5,6.7-3.4,8.7-6.5s2.2-7.6-0.3-10.3c-0.9-1-2.1-1.6-2.9-2.7c-1.4-2-1-4.9-2.3-7c-2.3-3.6-8.2-2.5-11.4-5.4
				c-2.9-2.5-2.9-7.5-6.3-9.3c-0.3-0.2-0.7-0.3-1.1-0.2c-0.5,0.2-0.5,0.9-0.5,1.5c0.7,5.4,3,8.4,1.8,13.9
				C296.5,242.2,295.8,247.8,295.8,253.5z"/>
		</g>
		<g>
			<path class="st8" d="M180.5,190.3c-1.7,16.8,7.9,34.6,23.4,41.3c6.4,2.8,13.5,3.7,20.4,3.8c7,0.1,14.1-0.7,20.7-3.1
				c14.8-5.5,25.8-20,27.5-35.8s-5.7-32.1-18.5-41.5c-11.7-8.6-33.3-14.2-45.7-4.2C195.2,161.4,182.3,172.4,180.5,190.3z"/>
			<path class="st9" d="M200.2,167.5c-14.8,22.8,16.1,9.6,22,5C230.6,165.8,215.1,144.7,200.2,167.5z"/>
			<path class="st10" d="M202.8,167.8c-11,16.8,11.9,7.1,16.2,3.7C225.3,166.6,213.8,151,202.8,167.8z"/>
			<path class="st11" d="M205.6,168.2c-7,10.7,7.6,4.5,10.4,2.3C219.9,167.4,212.6,157.4,205.6,168.2z"/>
			<path class="st12" d="M217.7,192.6c-3.6,2.9-6.4,6.7-8.2,10.9c-0.4,1-0.8,2.3,0,3.2c1.1,1.2,3.2-0.1,4.1-1.4
				c1.9-2.6,3.1-5.8,5.5-7.9c3.5-3.1,8.8-3.4,12.6-6.2c0.7-0.5,1.5-1.2,1.7-2.1c0.3-1.2-0.3-2.5-0.8-3.6c-1.9-4.3-2.4-9.1-3-13.7
				c-1.7-1.4-2.7,10-3.1,11.2C225.3,187.5,221.2,189.7,217.7,192.6z"/>
			<path class="st13" d="M187.8,203.6c0.4,2.4,0.4,5.3,2.4,6.7c1.5,1,3.7,0.8,4.9-0.5c1.4-1.5,1.2-3.8,1.9-5.8
				c0.7-2.1,2.5-3.7,3.5-5.7c1.7-3.3,1.7-7.7,4.5-10.2c4.2-3.7-6.3-4.2-8.1-4.1c-2.8,0.2-6.4,0.2-8.9,1.7
				C181.4,189.5,186.9,198,187.8,203.6z"/>
		</g>
		<g>
			<path class="st8" d="M256,130.5c-11.9,6.8-21.5,18.7-22.7,32.4c-0.4,5.1,0.3,10.2,1.4,15.3c1,4.4,2.2,8.8,4.4,12.7
				c5.7,10,17.3,15.6,28.8,16.2c11.5,0.5,22.8-3.5,32.8-9c4.3-2.3,8.4-5,11.6-8.6c7.3-8.1,8.9-20,7.2-30.8
				c-1.8-11.2-8.3-29.7-20-34.1C286.4,119.5,267.9,123.7,256,130.5z"/>
			<path class="st9" d="M299.6,151.7c11.6-11.1-8.6-30.4-23.6-18.6C268,139.4,294.7,156.4,299.6,151.7z"/>
			<path class="st10" d="M296.9,149c8.8-8.3-6.4-22.8-17.7-14C273.2,139.8,293.3,152.5,296.9,149z"/>
			<path class="st11" d="M294.3,146.3c5.9-5.6-4.3-15.3-11.9-9.4C278.3,140.1,291.8,148.7,294.3,146.3z"/>
			<path class="st12" d="M276.8,190.7c3.1,1.8,5.4,4.8,8.7,6c5,1.8,10.5-1,14.7-4.2c7.6-5.9,13.8-14.7,13.4-24.3
				c-0.1-2.8-1-5.8-3.4-7.2c-2.3-1.3-5.2-0.7-7.5,0.5c-2.3,1.3-4.3,3.1-6.5,4.4c-6,3.5-13.4,2.9-20.4,2.9c-6.8,0-20.1,1.6-20.6,10.8
				C254.6,190.2,270.8,187.2,276.8,190.7z"/>
			<path class="st13" d="M242.6,154.3c0.4-1.5,0.7-3.1,1.4-4.6c0.7-1.5,1.6-2.8,2.6-4c5.4-6.6,15.4-13.8,22.4-9.1
				c2.4,1.6,1.7,3.4,2.7,6.1c0.5,1.3,0.9,2.6,0.7,3.9c-0.4,2.8-3.2,4.4-5.6,6c-2.7,1.8-5.2,3.9-7.3,6.5c-3.3,4-7.4,13.3-13.9,11.5
				C238.4,168.7,241.4,159.4,242.6,154.3z"/>
		</g>
		<g>
			<path class="st8" d="M172.3,234.8c-4.5,6.9-5.4,15.8-3.7,23.8c1,4.7,2.9,9.2,6,12.8c4.5,5.2,11.4,7.9,18.3,8.3
				c6.9,0.4,13.7-1.5,20-4.3c2.8-1.3,5.7-2.8,7.5-5.3c1.7-2.3,2.4-5.2,2.9-8c1.5-7.8,2-16.2-1-23.6
				C214.3,218.7,183.6,217.3,172.3,234.8z"/>
			<path class="st9" d="M183.4,231.3c-8,3.4-14.5,20.9-1.8,17C191.1,245.4,198.5,225.9,183.4,231.3z"/>
			<path class="st10" d="M183.3,234c-5.4,2.3-9.8,14-1.2,11.4C188.5,243.5,193.4,230.4,183.3,234z"/>
			<path class="st11" d="M183.2,236.8c-2.7,1.1-4.9,7.1-0.6,5.8C185.9,241.6,188.4,234.9,183.2,236.8z"/>
			<path class="st12" d="M206.2,271.7c1.8-0.4,3.5-0.9,5.1-1.7c4.6-2.4,7-7.6,7.5-12.8c0.5-5.1-0.8-10.2-2-15.2
				c-0.4-1.7-0.9-3.6-2.4-4.6c-1.5-1-3.5-0.7-4.9,0.3c-1.4,1-2.3,2.7-2.8,4.3c-0.7,2.3-0.7,4.9-2.2,6.7c-1.8,2.1-5.1,2.8-6.1,5.4
				c-0.4,1-0.3,2.1-0.4,3.1c-0.3,3-2.1,5.4-4.2,7.4c-1.5,1.5-5.5,3.1-5.4,5.4C188.7,276.4,203.2,272.4,206.2,271.7z"/>
			<path class="st13" d="M172.2,252.9c0-0.7,0.1-1.4,0.5-1.9c0.7-0.7,2-0.5,2.8,0.1c0.9,0.6,1.6,1.4,2.6,1.7
				c1.7,0.6,3.6-0.5,5.1-1.6c0.4-0.3,0.9-0.6,1.4-0.6c0.5,0,0.9,0.4,1.3,0.8c3.6,4.3,1.2,16.4-5.5,16.3
				C172.9,267.5,172,258.4,172.2,252.9z"/>
		</g>
		<g>
			<path class="st8" d="M230.7,195.6c-8.1,4.6-15.1,11.5-18.1,20.2c-1.4,4-1.9,8.3-2.4,12.5c-0.6,4.7-1.1,9.4-0.2,14
				c1.3,6.1,5.1,11.3,9.5,15.6c4.2,4.1,9.2,7.7,14.8,9.5c5,1.6,10.4,1.8,15.7,1.6c11.8-0.3,24.4-2.2,33-10.3
				c6.2-5.8,9.5-14.2,10.7-22.6c1.8-13.4-1.5-26.7-13.9-35.8C265.3,189.9,246.3,186.7,230.7,195.6z"/>
			<path class="st9" d="M240.4,201.3c-15.8,10.7,10.9,17,19.4,12C281.9,200.2,253.9,192.2,240.4,201.3z"/>
			<path class="st10" d="M243.7,202.8c-11.1,7.5,7.6,12,13.6,8.4C272.9,202,253.2,196.3,243.7,202.8z"/>
			<path class="st11" d="M246.3,203.9c-7.5,5.1,5.2,8.1,9.2,5.7C266.1,203.3,252.7,199.5,246.3,203.9z"/>
			<path class="st12" d="M233.8,261.4c4.3,3.6,10.7,2.9,15.8,0.6s9.5-5.9,14.7-7.9c5.7-2.2,12.4-2.6,17-6.7c2.3-2.1,3.8-5,4.7-7.9
				c1.1-3.4,1.6-7,1.9-10.5c0.5-5.9,0.2-12.7-4.3-16.6c-1.9-1.6-4.9-2.5-6.9-1c-0.9,0.7-1.5,1.8-2.1,2.8c-5.1,7-17.8,5-22.1,12.5
				c-0.8,1.4-1.2,3.1-1.8,4.7c-3,8.4-9.3,10.6-16.7,13.6C227.2,247.5,228.9,257.2,233.8,261.4z"/>
			<path class="st13" d="M221.3,213.6c1.2-2.3,2.5-4.6,4.3-6.5c1.8-1.9,4.4-3.2,7-3c0.2,0,0.4,0,0.5,0.2c0.1,0.1,0.2,0.3,0.2,0.5
				c0.1,1.5-1.1,2.8-1.5,4.3c-0.7,2.6,1,5.3,3.2,6.8c2.1,1.4,4.8,2.4,5.7,4.7c0.7,1.9,0,3.9-0.8,5.8c-0.8,2-1.7,4.1-3.2,5.7
				c-1.5,1.6-3.8,2.6-5.9,2c-2.3-0.7-3.4-2.9-5-4.6c-2-2-3.9-1.7-6.3-3C214.5,223.5,219.5,217.1,221.3,213.6z"/>
		</g>
		<g>
			<path class="st8" d="M262.4,260.2c-8.3,4.7-14.9,13-15.7,22.5c-0.3,3.5,0.2,7.1,1,10.6c0.7,3.1,1.5,6.1,3.1,8.8
				c3.9,6.9,12,10.9,20,11.2c8,0.4,15.8-2.4,22.8-6.2c3-1.6,5.8-3.5,8.1-6c5.1-5.6,6.2-13.9,5-21.4c-1.2-7.8-6.6-18.4-14.7-21.4
				C282.7,254.8,270.6,255.4,262.4,260.2z"/>
			<path class="st9" d="M272.3,263.2c-0.6,0.2-1.2,0.5-1.7,0.9c-0.6,0.6-0.8,1.5-0.9,2.3c-0.2,1.9-0.1,3.8,0.5,5.6
				c1.1,3,3.5,5.4,6.3,6.8s6,1.9,9.2,1.9c2.3,0,4.6-0.3,6.8-0.8c0.9-0.2,1.8-0.5,2.5-1c0.9-0.7,1.5-1.7,2-2.8
				c0.5-1.1,0.9-2.3,0.8-3.5c-0.2-2.7-2.3-3.6-4.3-4.8c-2.1-1.2-3.9-2.8-6.1-3.8C282.7,261.9,277.2,261.5,272.3,263.2z"/>
			<path class="st10" d="M275.4,265.5c-0.4,0.2-0.9,0.3-1.2,0.7c-0.4,0.4-0.6,1.1-0.6,1.7c-0.2,1.4-0.1,2.8,0.4,4.1
				c0.8,2.2,2.5,3.9,4.6,4.9c2.1,1,4.4,1.4,6.7,1.4c1.7,0,3.3-0.2,5-0.6c0.6-0.2,1.3-0.4,1.8-0.7c0.7-0.5,1.1-1.3,1.5-2
				c0.3-0.8,0.6-1.7,0.6-2.5c-0.1-2-1.6-2.7-3.1-3.5c-1.5-0.9-2.8-2.1-4.5-2.8C283,264.5,279,264.2,275.4,265.5z"/>
			<path class="st11" d="M278.4,267.6c-0.3,0.1-0.6,0.2-0.8,0.4c-0.3,0.3-0.4,0.7-0.4,1.1c-0.1,0.9,0,1.8,0.3,2.6
				c0.5,1.4,1.6,2.5,3,3.2c1.3,0.7,2.8,0.9,4.3,0.9c1.1,0,2.2-0.1,3.2-0.4c0.4-0.1,0.8-0.2,1.2-0.5c0.4-0.3,0.7-0.8,0.9-1.3
				c0.2-0.5,0.4-1.1,0.4-1.6c-0.1-1.3-1.1-1.7-2-2.3c-1-0.6-1.8-1.3-2.9-1.8C283.3,266.9,280.7,266.8,278.4,267.6z"/>
			<path class="st12" d="M287.2,305.5c3.6-1.4,7.2-2.9,9.9-5.6c3.4-3.6,4.7-8.7,5.1-13.6c0.1-0.6,0.1-1.2-0.3-1.7
				c-0.6-0.6-1.7-0.2-2.4,0.3c-1.7,1.1-3.4,2.3-5,3.6c-1.5,1.2-2.9,2.5-4.7,3.2c-2.4,1-5.2,0.8-7.5,2c-1.3,0.7-2.3,1.9-3.5,2.8
				c-3.6,2.8-14.4,1.9-11.7,8.8C269.8,312.5,282.4,307.4,287.2,305.5z"/>
			<path class="st13" d="M252,278.1c-1.2,4.2-0.9,8.7-0.7,13.1c0,0.6,0.1,1.2,0.3,1.8c0.9,2.1,3.9,2.3,5.9,1.2
				c1.9-1.2,3.2-3.2,4.7-4.9c2.1-2.3,4.9-3.9,7.9-4.7c1-0.2,2.4-0.8,2.1-1.8c-0.1-0.3-0.3-0.5-0.5-0.7c-1.3-1.4-3.3-2.1-4.3-3.7
				c-2.2-3.4,0.1-9.4-5.7-9.6C256.9,268.6,253.2,274,252,278.1z"/>
		</g>
	</g>
	<g>
		<g>
			<g>
				<path class="st0" d="M391.3,429.8c-0.7-0.9-5-1.6-6.1-1.6c-8.2-0.1-8.9-0.6-16.2-0.7c0-1.6-0.2-3.4-0.2-4.3c0-0.4,0-0.9,0.3-1.2
					c0.2-0.2,0.6-0.2,0.9-0.2c3.2,0.3,6.3,1.3,9.4,1.8c3.2,0.5,6.5,0.6,9.5-0.6c0.2-0.1,0.5-0.2,0.6-0.4c0.2-0.3,0.2-0.7,0.3-1
					c0.3-5.7,0.2-11.3-0.2-17c-0.1-1.8-0.4-3.7-1.7-4.7c-0.9-0.6-2-0.6-3-0.5c-0.2,0-0.5,0.1-0.6,0.2c-0.3,0.3-0.3,0.9-0.3,1.4
					c0.1,1.1,0.2,2.2,0.3,3.3c-0.3,0-0.7,0-1,0c-3.5-0.1-6.9-0.1-10.4-0.1c-6,0-12,0.1-18-0.2c-0.5,0-1-0.1-1.5-0.1
					c-0.1-1.1-0.2-2.2-0.6-3.3c-0.5-1.3-1.4-2.6-2.6-3c-0.7-0.2-1.5-0.2-2.2-0.2c-0.7,0-1.5,0.1-2,0.7c-0.6,0.7-0.5,1.8-0.4,2.8
					c0.6,4.9-0.3,9.9-0.3,14.8c0,1.3,0,2.6,0.3,3.8c0.1,0.3,0.2,0.7,0.4,0.9c0.3,0.2,0.6,0.2,0.9,0.2c5.6,0.1,11.2,0.3,16.8,0.5
					c0.3,0,0.6,0,0.7,0.3c0.1,0.2,0.1,0.5,0.1,0.7c-0.1,1.2-0.3,3.3,0,5.2c-4.9-0.3-11.9-1-15.4-1.4c-1.1-0.1-3.1-0.9-4,0.3
					c-1,1.3-0.1,3.8,0.9,4.5c0.7,0.5,1.5,0.6,2.2,0.7c13.6,2,27.4,2.8,41.2,2.6c0.8,0,1.6-0.1,2.2-0.8
					C392.3,432.4,392,430.7,391.3,429.8z M356,416.5c-0.7,0-1.4-0.1-1.8-0.8c-0.2-0.3-0.2-0.7-0.2-1.1c-0.1-1.9-0.3-3.8-0.4-5.7h0
					c2.1,0.2,4.2,0.3,6.4,0.5c7.8,0.6,15.6,1.1,23.4,1c0.4,0,0.9,0,1.3-0.1c0.1,1.7,0.2,3.3,0.1,5c0,0.6-0.1,1.2-0.5,1.7
					c-0.6,0.9-1.8,0.9-2.7,0.8C373,417.4,364.5,417,356,416.5z"/>
				<path class="st0" d="M350.2,441.3c0.1,0.7,0.1,1.5,0.5,2.1c0.5,0.9,1.4,1.3,2.3,1.5c2.2,0.6,4.5,0.8,6.8,1
					c8.3,0.7,16.7,1.3,25.1,1.2c1.5,0,3.4-0.4,3.8-2c0.3-1.2-0.5-2.4-1.5-2.9s-2.1-0.5-3.2-0.4c-8.9,0.3-17.8,0.1-26.7-0.5
					c-0.4,0-0.9-0.1-1.2-0.3c-0.4-0.3-0.7-0.7-0.9-1.3c-0.8-2.2-0.5-5.7-3.5-5.6C348.6,434.2,350.1,439.2,350.2,441.3z"/>
			</g>
			<path class="st14" d="M174.7,395.6c-1.1,0.1-2.4,0.4-3.1,1.2c-0.7,0.9-0.8,2.1-0.7,3.2c0.1,4.1,0.1,8.2,0.2,12.4
				c0,1.1,0.1,2.4,0.9,3.1c0.6,0.5,1.5,0.6,2.4,0.7c4.5,0.5,9.3,2.2,11.5,6.2c1.8,3.2,1.4,7.3-0.5,10.4s-5.4,5-9,5.5
				c-1.5,0.2-3.1,0.2-4.4,1s-2.1,2.7-1.1,3.8c6.7,1.3,14.8,0.5,18.8-5c1.5-2,2.3-4.5,2.8-6.9c0.8-4.2,0.8-8.7-1.3-12.5
				c-2.2-4.1-6.6-6.8-11.3-7c-1.1,0-2.4,0-3.3-0.8c-0.5-0.5-0.7-1.1-0.9-1.7c-1.1-3.2-1.7-7.5,1.2-9.1c1.2-0.7,2.7-0.7,4.1-0.6
				c3.4,0.1,6.8,0.3,10.2,0.4c5.4,0.2,10.5-4.5,3.1-5.8C188.4,393.1,180.6,394.9,174.7,395.6z"/>
		</g>
		<path class="st0" d="M149.2,68.9c-0.1-4.9-0.3-9.7-0.4-14.6c0-1.1-0.1-2.2-0.9-2.9c-1.2-1-3.1,0-3.7,1.4c-0.6,1.4-0.4,3-0.3,4.5
			c0.1,1.5-0.1,3.2-1.3,4.2c-0.6,0.5-1.4,0.7-2.2,0.9c-6.1,1.5-12.5,2.1-18.8,1.9c-1.4,0-3.2-0.3-3.8-1.6c-0.4-0.8-0.2-1.6-0.1-2.5
			c0.3-3.2-1.5-12.1-5.6-6.5c-2.7,3.6-0.5,11.6,0.3,15.6c0.3,1.4,0.6,2.8,1.5,3.8c0.7,0.8,1.7,1.3,2.8,1.7c4,1.5,8.4,1.6,12.7,1.5
			c5.1-0.1,10.3-0.5,15.4-1.2c1-0.1,2.1-0.3,3-0.9C149.1,73.2,149.2,70.8,149.2,68.9z M142.7,70.2c-0.3,0.5-1,0.7-1.6,0.8
			c-6.8,1.2-13.8,2.3-20.5,1c-0.8-0.2-1.7-0.4-2.3-0.9c-0.6-0.5-1-1.5-0.7-2.2c0.5-1,1.8-1.2,2.9-1.2c3.4,0,7.2,0.4,10.6-0.1
			c2.6-0.4,5.3-1.3,8-1.8c0.6-0.1,1.3-0.2,1.9,0c1.2,0.4,1.6,2,1.8,3.3C142.8,69.4,142.9,69.9,142.7,70.2z"/>
		<path class="st0" d="M151,76.8c1.1-0.2,2.5-0.2,2.9,0.8c0.2,0.4,0.1,0.9-0.1,1.3c-0.6,1.3-2.3,1.7-3.8,1.9
			c-5,0.6-9.9,1.3-14.9,1.9c-3.2,0.4-6.3,0.8-9.5,0.9c-4.6,0.1-9.3-0.4-13.7-1.3c-2-0.4-7.9-3.1-3.1-4.7c1.9-0.6,4.6,0.2,6.5,0.4
			c2.3,0.2,4.6,0.4,6.9,0.6c4.5,0.2,9.1,0.2,13.6,0C140.9,78.3,146,77.7,151,76.8z"/>
		<path class="st0" d="M121.9,87c8.4-0.5,16.9-1.1,25.3-1.6c0.3,1.7,0.6,3.5,0.3,5.2c-0.2,1-0.6,1.9-1.2,2.6
			c-2.3,2.9-6.4,3.3-10.1,3.5c-2.8,0.2-5.7,0.3-8.5,0.5c-1,0.1-2.1,0.1-2.8,0.7c-0.8,0.6-1,2-0.2,2.6c2.9,0.8,6-0.2,8.9-0.9
			c4.3-1.1,8.7-1.6,13.1-1.7c0.5,0,1,0,1.4,0.2c1.4,0.6,1.3,2.9,0.2,4s-2.9,1.2-4.4,1.4c-7.1,0.6-14.2,1.1-21.3,1.7
			c-1.7,0.1-3.4-0.8-4.2-2.2s-0.7-3.4,0.3-4.7c1.3-1.8,3.7-2.3,5.8-2.8c5.1-1,10.1-2,15.2-3c0.7-0.1,1.4-0.3,1.8-0.9
			c0.4-0.6,0.2-1.6-0.5-1.6c-6.7-0.1-13.2,3-19.9,2.4c-1.6-0.1-5.1-1-5.4-3.1C115.4,86.8,120.2,87.1,121.9,87z"/>
		<path class="st0" d="M165.8,56.1c9.9-0.8,19.9-1.5,29.8-2.3c0.4,2.4,0.8,4.8,0.3,7.1c-0.2,1.3-0.7,2.6-1.5,3.6
			c-2.7,4-7.5,4.6-11.8,4.8c-3.3,0.2-6.7,0.4-10,0.6c-1.2,0.1-2.4,0.2-3.3,1s-1.2,2.7-0.3,3.5c3.4,1.1,7-0.3,10.5-1.3
			c5-1.5,10.2-2.3,15.5-2.3c0.6,0,1.2,0,1.7,0.3c1.7,0.9,1.6,4.1,0.2,5.5c-1.4,1.5-3.4,1.7-5.2,1.9c-8.3,0.8-16.7,1.6-25,2.4
			c-2,0.2-4-1.1-4.9-3.1c-1-2-0.8-4.7,0.3-6.6c1.5-2.5,4.3-3.2,6.8-3.8c5.9-1.4,11.9-2.8,17.8-4.1c0.8-0.2,1.7-0.4,2.2-1.2
			c0.5-0.8,0.2-2.2-0.6-2.2c-7.9-0.2-15.5,4.1-23.4,3.4c-1.9-0.2-6-1.5-6.3-4.3C158.1,55.8,163.8,56.3,165.8,56.1z"/>
		<path class="st0" d="M196.3,82.1c0.6,0,1.2-0.1,1.7,0.2c1.5,0.7,1.1,3.1-0.2,4s-3.1,0.8-4.7,0.7c-4.2-0.2-8.5-0.1-12.7,0.4
			c-0.4,0.1-0.9,0.1-1.2,0.4c-0.5,0.4-0.6,1.2-0.6,1.9c0,4.3,0.4,8.5,1.1,12.7c-0.9,0.8-2.5,0.4-3.2-0.6c-0.7-1-0.9-2.3-0.9-3.6
			c-0.1-1.7-0.3-3.4-0.4-5.1c-0.1-1.2-0.2-2.5-1.1-3.3c-0.8-0.7-1.9-0.8-3-0.9c-3.1-0.2-9,0.8-11-2.3c-2.3-3.7,5.3-2.7,7.4-2.8
			C177,83.3,186.7,82.8,196.3,82.1z"/>
		<path class="st0" d="M243.3,78.3c0-3.6-0.1-7.3-0.1-11c0-2.8-0.1-5.5-0.4-8.2c-0.4-3,0.5-8.2-2.4-8.5c-3.1-0.3-1.9,6.1-2,9.4
			c-0.2,7.9-0.3,15.9-0.2,23.8c0,0.9-0.7,1.7-1.6,1.7c-0.6,0-1.1,0.1-1.7,0.2c-0.9,0.2-1.7-0.5-1.7-1.4l-0.3-25.2
			c0-1.5-0.1-3.2-1.2-4.2c-1.1-1-3.4-0.3-3.2,1.2c0.9,6.4,0.8,12.9-0.2,19.2c-0.4,2.3-1,4.8-2.8,6.1c-1.5,1.1-3.6,1.2-5.4,1.1
			c-2.7-0.1-5.9-0.7-7.1-3.2c-0.4-1-0.5-2.1-0.5-3.2c-0.2-5.4,0.1-10.8,0.6-16.2c0.2-1.9,0.4-5-1.9-5.7c-1.3-0.4-1.8,0-2.4,1.2
			c-1.4,2.8-0.2,8.2-0.3,11.3c-0.3,9.5-1.8,19.2,0.5,28.6c0.6,2.6,3.7,3.4,6.3,3.6c4.8,0.4,9.7,0.4,14.5-0.1
			c1.3-0.1,2.4-1.3,2.9-2.6c0.5-1.3,0.5-2.7,0.4-4.1l0-0.9c0-0.9,0.7-1.6,1.6-1.5c0.5,0,1.1,0,1.6,0c1-0.1,1.9,0.7,1.9,1.7
			c0,2.6,0.1,5.2,0.2,7.8c0,1.7-0.6,7.6,2.6,5.9c1-0.5,1.5-1.7,1.8-2.9c0.5-1.9,0.5-3.9,0.6-5.9C243.5,90.3,243.4,84.3,243.3,78.3z
			 M228.5,88.5c-0.1,1.6-0.2,3.3-0.3,4.9c0,0.4-0.1,0.8-0.3,1.2c-0.3,0.5-1,0.7-1.6,0.8c-4.5,0.8-11.1,1.7-12.6-4.1
			c-0.3-1.1-0.5-2.5-0.4-3.6c0-2.2,0.2-2.3,2.4-2.1c2.9,0.3,6,2,8.9,0.8c1-0.4,2.1-1.2,3-0.6C228.5,86.3,228.6,87.5,228.5,88.5z"/>
		<path class="st0" d="M247,98.3c-0.3-2.4-0.6-4.8-0.7-7.2c-0.1-2.3,0.1-4.7,0.2-7c0.3-10.7-1.7-21.5-0.7-32.2
			c0.1-1,0.2-2.1,0.9-2.9c0.6-0.8,1.9-1.2,2.7-0.5c0.6,0.5,0.7,1.3,0.7,2c0.2,2.4,0.4,4.8,0.7,7.2c0.9,10,1.8,19.9,2.2,29.9
			c0.2,5.2,0.4,10.8-1.2,15.8c-0.5,1.7-1.6,2.8-3.3,1.3C246.8,103.4,247.2,100.2,247,98.3z"/>
		<path class="st0" d="M278.4,57.1c2.1,0,4.1,0,6.2,0c1.2,0,2.6,0.1,3.3,1.1c0.4,0.5,0.4,1.2,0.5,1.8c0.4,5,0.3,10.1-0.3,15.1
			c-0.1,0.7-0.2,1.4-0.7,1.9c-0.5,0.4-1.2,0.5-1.8,0.5c-5.5,0.4-11.1,0.6-16.7,0.6c-1.3,0-1.7,1.7-1.6,3c0.1,1.8,0.3,3.5,0.6,5.3
			c1.9,0.9,4.1,0.8,6.3,0.7c4.1-0.2,18.1-0.5,22.2-0.7c0.6,0,1.2,0.5,1.4,1.1c0.2,0.6,0.1,1.3-0.1,1.9c-0.2,1.3-0.4,2.5-0.7,3.8
			c-8.1,1-26.2,0.8-34.2-0.4c-1.5-4.9-1.4-10.2-1.2-15.4c0-0.8,0.1-1.6,0.4-2.2c0.8-1.2,2.4-1.4,3.9-1.5c5.9-0.3,11.7-1.1,17.4-2.3
			c1.2-0.3,1.3-1.9,1.1-3.2c-0.2-1.4-0.5-3-1.7-3.7c-0.8-0.5-1.9-0.5-2.9-0.5c-3.8,0.1-7.6,0.1-11.4,0.2c-2.4,0.1-6.2,1.1-6.9-2
			c-0.2-1-0.3-3.3,0.5-4c0.9-0.8,4.2-0.7,5.3-0.7C271.1,57.1,274.7,57.1,278.4,57.1z"/>
		<path class="st0" d="M299.7,52c0-1.3,0-2.8,1-3.6c0.4-0.4,1-0.6,1.5-0.3c0.7,0.3,0.9,1.1,1,1.8c1.1,6.3,1.3,12.7,1.5,19
			c0.3,9.8,0.7,19.6,1,29.4c0.1,1.5,0.1,3.2-0.9,4.3c-2.2,2.8-4.2-0.2-4.3-2.4c-0.2-3.9-0.1-7.8-0.2-11.7
			c-0.1-7.7-0.3-15.5-0.4-23.2C299.8,60.9,299.7,56.5,299.7,52z"/>
		<path class="st0" d="M281.4,409.7c0-1.4,0.8-2.6,1.7-3.6c2.2-2.5,4.8-4.6,7.9-5.7c3.1-1.1,6.7-1,9.6,0.7c4.3,2.6,5.9,8.2,5.8,13.3
			c0,2.3-0.3,4.7-1.3,6.8c-3.2,7.3-12.9,9.8-16.4,16.9c5.4-0.2,10.9-0.1,16.3,0.4c1,0.1,2,0.2,2.9,0.7c0.9,0.5,1.5,1.6,1.2,2.5
			c-0.3,0.9,0.4,2.7-0.6,3c-3.5,1.4-8.4,0.3-12.8,0c-4.7-0.3-10,2-12.4-2.1c-1.8-3.1-0.8-7.2,1.2-10.2s4.9-5.2,7.3-7.9
			c2.2-2.4,4-5.2,5.5-8c1.1-2,2.1-4.5,1.1-6.6c-1.2-2.4-4.7-2.8-7.1-1.6c-2.1,1.1-3.2,4.2-5.2,5C284,414.3,281.4,412.2,281.4,409.7z
			"/>
		<path class="st0" d="M338,423.7c-0.3-2.4-0.7-4.8-1.1-7.2c-0.5-3.4-1.1-6.8-2.7-9.9c-1.6-3.1-4.2-5.7-7.5-6.5
			c-3.7-0.8-7.8,1-9.7,4.3c-1.2,2.2-1.5,4.8-1.6,7.3c-0.3,5-0.2,10,0.2,15c0.2,2.7,0.6,5.3,1.1,7.9c0.5,2.3,1.3,4.6,2.3,6.8
			c1.1,2.1,1.7,3,4.1,3.2c4.1,0.2,8.4-1.2,11-4.4c1.1-1.4,1.8-3,2.5-4.6c0.6-1.5,1.2-3,1.5-4.6C338.7,428.6,338.4,426.1,338,423.7z
			 M333.5,424.3c-0.1,1.4-0.5,2.7-0.8,4.1c-0.3,1.2-0.6,2.3-0.9,3.5c-0.4,1.4-0.7,2.9-1.5,4.2c-0.8,1.3-2.1,2.3-3.6,2.3
			c-1.6,0.1-3.1-1-4-2.5c-0.8-1.4-1.1-3.1-1.3-4.7c-0.9-6.2-1-12.4-0.5-18.6c0.2-2.1,0.9-4.6,3.4-4.8c1.9-0.2,4.2,2,5.6,3.1
			c0.6,0.5,1.2,1,1.6,1.6c0.5,0.8,0.7,1.7,0.9,2.5C333.1,418.1,333.8,421.2,333.5,424.3z"/>
	</g>
	<g>
		<g>
			<path class="st15" d="M170,326.1c2.5,0.2,4.8,0.4,7.2,0.3c2.4-0.1,4.7-0.2,7.1-0.4c4.7-0.4,9.6-0.8,14.7-0.2
				c2.5,0.3,5.1,0.9,7.6,1.9c2.4,1,4.8,2.4,6.7,4.2c3.9,3.5,6.4,8.4,6.6,13.4c-2.3-4.4-5.4-7.9-9.1-10.3c-0.9-0.6-1.9-1.2-2.9-1.6
				c-1-0.5-2-0.8-3-1.2c-2.1-0.6-4.3-1.1-6.5-1.3c-4.5-0.5-9.3-0.5-14.2-0.8c-2.4-0.2-4.9-0.5-7.3-1.1
				C174.5,328.2,172.1,327.4,170,326.1z"/>
		</g>
		<g>
			<path class="st15" d="M225.5,355.2c1.1,1.6,1.7,3.6,2.1,5.4c0.4,1.9,0.7,3.7,1.1,5.5c0.4,1.7,0.8,3.3,1.5,4.7
				c0.7,1.4,1.6,2.8,2.7,4.1c2.2,2.6,4.9,5.1,7.5,7.8c2.6,2.8,5,5.6,7.1,8.9c-3.5-1.7-6.7-3.7-9.7-5.9c-3-2.2-6.1-4.4-8.8-7.6
				c-1.3-1.6-2.5-3.4-3.2-5.5c-0.8-2.1-1-4.2-1-6.2C224.8,362.5,225.6,359,225.5,355.2z"/>
		</g>
		<g>
			<path class="st15" d="M253.7,398.3c0.7,1.4,1.7,2.4,2.9,3.2c1.2,0.8,2.5,1.4,3.8,1.9c1.3,0.6,2.7,1.1,4.1,1.8
				c1.4,0.7,2.8,1.6,4,2.6c2.5,2.1,4.6,4.8,5.7,8.2c0.5,1.7,0.7,3.5,0.6,5.3c-0.2,1.8-0.6,3.5-1.4,5.1c-0.8,1.6-2,3.1-3.5,4.3
				c-0.8,0.6-1.6,1-2.5,1.4c-0.9,0.3-1.7,0.6-2.5,0.8c-0.8,0.2-1.6,0.3-2.3,0.4c-0.7,0.1-1.4,0.3-2.1,0.4c-1.4,0.3-2.7,0.7-4.1,1.1
				c-5.4,1.7-10.5,4.5-15.2,8.2c3.2-5.1,8.1-9.3,13.7-11.9c1.4-0.6,2.9-1.2,4.4-1.7c1.5-0.5,3.1-0.8,4.3-1.1
				c1.3-0.4,2.2-0.8,3.1-1.5c0.8-0.7,1.5-1.6,2-2.6c1-2.1,1.3-4.6,0.7-6.9c-0.6-2.4-2-4.6-3.8-6.6c-0.9-1-2-1.9-3.1-2.7
				c-1.1-0.8-2.4-1.6-3.6-2.5c-1.2-0.9-2.5-1.8-3.5-3c-0.5-0.6-1-1.3-1.3-2C254,399.8,253.8,399.1,253.7,398.3z"/>
		</g>
		<g>
			<path class="st15" d="M302,387.3c-3.5,2.2-8.3,2.4-12.3,0.7c-2-0.9-3.9-2.3-5.3-4.1c-1.4-1.8-2.4-3.9-2.9-6.2
				c-0.5-2.2-0.5-4.7,0.1-7c0.6-2.3,1.7-4.4,3-6.2c2.8-3.6,6.3-6.2,9.7-8.5c3.5-2.3,6.7-4.3,9.8-6.8c3.1-2.4,6.1-5,8.8-7.8
				c2.6-2.8,5-5.9,6.2-9.5c1.3-3.6,1.5-7.7,0-11.5c1.2,1.6,2,3.6,2.4,5.7c0.4,2.1,0.3,4.3-0.1,6.4c-0.4,2.1-1.2,4.2-2.2,6.1
				c-1,1.9-2.2,3.7-3.5,5.4c-1.3,1.7-2.7,3.2-4.2,4.7c-1.5,1.5-3,2.9-4.6,4.2c-1.6,1.4-3.3,2.6-5,3.8c-1.7,1.2-3.4,2.3-5.1,3.4
				c-3.3,2.2-6.5,4.5-8.8,7.2c-2.3,2.7-3.5,6.1-3,9.6c0.4,3.5,2.4,6.9,5.5,8.8C293.9,387.8,298.1,388.5,302,387.3z"/>
		</g>
		<g>
			<path class="st15" d="M316.4,302.7c-0.1-1.7,0.4-3.4,1.1-4.9c0.8-1.6,1.9-3,3.1-4.2c2.6-2.4,5.8-4.1,9.2-5.1
				c6.7-1.9,13.5-1.7,19.3-3.2c5.9-1.5,11.5-4.4,16.4-8.3c4.9-3.9,9-8.9,12.1-14.8c-1.1,6.6-4.7,12.8-9.5,17.7
				c-4.8,4.9-11.1,8.6-17.9,10.2c-6.9,1.7-13.6,1.1-19.6,2.1c-3,0.5-5.9,1.5-8.5,3.2C319.6,297.1,317.4,299.5,316.4,302.7z"/>
		</g>
		<g>
			<path class="st15" d="M374.7,252.7c0.2-1.5,0-2.9-0.5-4.1c-0.5-1.2-1.2-2.4-2.1-3.4c-0.9-1-1.9-1.9-3-2.7c-1-0.8-2.3-1.5-3.5-2.2
				c-2.4-1.5-5.1-3.1-7.3-5.5c-1.1-1.2-2.1-2.7-2.8-4.2c-0.7-1.5-1.1-3.1-1.4-4.5c-0.6-2.9-1.2-5.7-1.8-8.5
				c-0.5-2.8-1.2-5.9-0.6-9.3c0.3-1.7,1-3.3,1.9-4.6c0.9-1.3,1.9-2.5,2.9-3.5c2-2.1,4-4,4.8-6.9c0.2,1.5-0.2,3-0.8,4.4
				c-0.6,1.4-1.4,2.7-2.1,3.9c-0.7,1.2-1.5,2.4-2,3.6c-0.5,1.2-0.8,2.3-0.8,3.5c-0.1,2.4,0.6,5,1.3,7.8c0.7,2.8,1.4,5.6,2,8.4
				c0.3,1.4,0.6,2.6,1.1,3.7c0.4,1.1,1,2.1,1.8,3.1c1.6,1.9,3.8,3.6,6,5.4c1.1,0.9,2.3,1.9,3.4,3c1.1,1.1,2,2.4,2.8,3.8
				c0.7,1.4,1.3,2.9,1.5,4.4C375.7,249.9,375.4,251.5,374.7,252.7z"/>
		</g>
		<g>
			<path class="st15" d="M310.6,115.4c0.2,1,0.7,1.9,1.4,2.6c0.7,0.7,1.6,1.2,2.4,1.7c1.8,0.9,3.7,1.6,5.7,2.1
				c3.9,1,7.9,1.2,11.9,1.1c8-0.3,16.1-2.4,24.6-3.3c4.2-0.4,8.6-0.7,13.2,0.3c2.3,0.5,4.5,1.4,6.5,2.8c2,1.4,3.6,3.3,4.7,5.3
				c1.2,2,1.9,4.2,2.4,6.4c0.4,2.2,0.6,4.4,0.4,6.6c-0.3,4.3-1.3,8.4-2.5,12.5c0.1-4.2,0.5-8.4,0-12.4c-0.3-4-1.5-7.8-3.7-10.9
				c-0.5-0.8-1.1-1.5-1.8-2.1c-0.6-0.6-1.3-1.2-2.1-1.6c-1.5-0.9-3.2-1.5-5-1.8c-1.8-0.3-3.8-0.4-5.7-0.4c-2,0-4,0.2-6,0.4
				c-8.1,0.8-16.4,2.6-25.1,2.2c-4.3-0.2-8.7-1-12.7-2.6c-2-0.9-3.9-1.9-5.6-3.2c-0.9-0.7-1.7-1.5-2.3-2.4
				C310.8,117.6,310.4,116.4,310.6,115.4z"/>
		</g>
		<g>
			<path class="st15" d="M382.9,283.6c2.7-9.2,5.2-18.4,5.7-27.7c0.1-2.3,0-4.6-0.1-6.9c-0.1-1.1-0.3-2.3-0.4-3.4
				c-0.2-1.1-0.4-2.2-0.7-3.3c-0.3-1.1-0.5-2.2-1-3.2l-0.6-1.6c-0.2-0.5-0.5-1-0.7-1.5c-0.9-2-2.1-3.9-3.3-6
				c-1.2-2.1-2.5-4.3-3.5-6.8c-0.9-2.5-1.4-5-1.7-7.5c-0.3-2.5-0.4-4.9-0.5-7.3c-0.1-2.4-0.2-4.8-0.2-7.2c0-4.8,0.3-9.8,1.3-14.6
				c1-4.8,2.8-9.5,5.7-13.3c-1.9,4.4-3,9-3.3,13.7c-0.2,2.3-0.3,4.7-0.2,7c0.1,2.3,0.2,4.7,0.4,7l0.7,7.1c0.2,2.4,0.4,4.7,0.8,7
				c0.4,2.2,0.9,4.4,1.6,6.4c0.8,2,1.9,3.9,3.1,5.9c1.2,2,2.6,4.2,3.6,6.5c0.3,0.6,0.5,1.2,0.8,1.8l0.6,1.8c0.5,1.2,0.7,2.4,1,3.7
				c1.1,5,1.1,10.1,0.5,14.9C391.2,266,387.6,275.2,382.9,283.6z"/>
		</g>
		<g>
			<path class="st15" d="M376.5,298c-1.2,1.4-2.6,2.6-4.2,3.7c-1.6,1.1-3.3,1.9-5,2.6c-3.5,1.4-7.3,2.1-11,2.5
				c-1.9,0.2-3.7,0.3-5.6,0.3c-1.9,0-3.6,0-5.2,0.2c-3.2,0.4-5.1,1.8-5.8,4.5c-0.3,1.3-0.3,2.9-0.2,4.5c0.1,0.8,0.2,1.6,0.4,2.4
				c0.2,0.8,0.4,1.6,0.7,2.5c0.5,1.7,1,3.6,1.3,5.5c0.3,1.9,0.5,4,0.1,6.2c-0.4,2.1-1.5,4.1-2.8,5.7c-1.4,1.5-3,2.7-4.5,3.7
				c-3.1,2-6.3,3.5-8.8,6.3c0.7-1.7,1.9-3.2,3.2-4.5c1.3-1.3,2.7-2.5,4.1-3.7c1.3-1.2,2.6-2.4,3.4-3.7c0.9-1.3,1.4-2.7,1.5-4.2
				c0.3-3-0.9-6.2-2.1-9.7c-1.2-3.5-2.2-7.6-1.3-12c0.3-1.1,0.7-2.2,1.3-3.2c0.6-1,1.5-1.9,2.5-2.7c2-1.5,4.3-2,6.3-2.2
				c2.1-0.2,4,0,5.7,0.1c1.8,0.1,3.6,0.2,5.3,0.2c1.8,0,3.5,0,5.3-0.2c1.8-0.1,3.5-0.4,5.2-0.7C370.1,301.3,373.4,300,376.5,298z"/>
		</g>
		<g>
			<path class="st15" d="M302.3,374c2.6-4,6.2-7.4,10.2-10.1c2.1-1.3,4.2-2.5,6.7-3.3c2.5-0.8,5.6-0.7,8.1,0.4
				c2.6,1.1,4.6,2.7,6.4,4.4c1.8,1.7,3.4,3.4,5.1,4.9c1.6,1.5,3.4,2.8,5.2,3.9c1.9,1.1,3.9,2,5.9,2.7c4.1,1.4,8.5,1.7,12.7,0.8
				c2.1-0.4,4.1-1.2,6.1-2.1c1.9-1,3.7-2.2,5.3-3.7c1.6-1.5,2.9-3.2,3.9-5.1c1-1.9,1.8-4,2.1-6.2c0.8-4.4,0.2-9.1-2.1-13.3
				c1.6,1.8,2.8,3.9,3.5,6.3c0.8,2.3,1.1,4.8,1,7.3c-0.1,2.5-0.6,5-1.6,7.4c-1,2.4-2.4,4.6-4.1,6.5c-3.4,3.8-8.1,6.5-13.1,7.7
				c-5,1.2-10.4,0.9-15.3-0.7c-4.9-1.6-9.3-4.4-12.9-7.9c-1.8-1.8-3.3-3.6-4.8-5.2c-1.6-1.6-3.2-3.1-4.9-4c-0.9-0.5-1.8-0.8-2.8-0.9
				c-0.9-0.2-1.9-0.1-3,0.1c-2.1,0.4-4.2,1.3-6.3,2.3C309.5,368,305.7,370.8,302.3,374z"/>
		</g>
		<g>
			<path class="st15" d="M365.2,354.8c-1.5,0.4-3.2,0.2-4.7-0.5c-1.5-0.6-2.8-1.7-4-2.8c-1.2-1.1-2.2-2.3-3.1-3.6
				c-0.9-1.2-1.8-2.5-2.6-3.9c-0.8-1.4-1.5-2.9-1.9-4.7c-0.4-1.7-0.5-3.7,0-5.6c0.5-1.9,1.6-3.6,2.8-4.9c1.2-1.3,2.5-2.3,3.7-3.3
				c2.6-1.9,5.5-3.4,8.6-4.5c1.5-0.5,3.1-0.9,4.6-1.2c1.5-0.3,2.9-0.6,4.2-0.9c5.1-1.4,9.7-5.7,11.6-11.4c0.2,6.2-4,12.6-10.3,15.1
				c-1.5,0.6-3,1.1-4.5,1.5c-1.4,0.4-2.7,0.8-4,1.4c-2.6,1.1-5,2.4-7.3,4.1c-2.3,1.7-4.3,3.5-4.9,5.4c-0.4,1-0.4,2.1-0.2,3.4
				c0.2,1.2,0.6,2.5,1.2,3.8c0.5,1.3,1.2,2.6,1.9,3.9c0.7,1.3,1.4,2.6,2.2,3.7c0.8,1.2,1.7,2.3,2.8,3.2
				C362.4,354.1,363.7,354.7,365.2,354.8z"/>
		</g>
		<g>
			<path class="st15" d="M329,103c5.9,1.5,12.1,1.4,17.8-0.1c5.7-1.4,11.1-4.2,15.9-7.6c2.4-1.7,4.7-3.6,6.9-5.6
				c2.2-2,4.2-4.1,5.8-6.4c1.6-2.3,2.8-4.8,3.3-7.3c0.5-2.6,0.3-5.3-0.7-7.5c-0.5-1.1-1.2-2.1-2-3c-0.9-0.9-1.9-1.6-3.1-2.3
				c-1.2-0.7-2.5-1.3-3.9-1.9c-1.4-0.6-2.7-1.1-4.1-1.6c-5.5-2-11.4-3.3-17.3-3.8c-3-0.3-5.9-0.4-8.6,0c-1.4,0.2-2.7,0.6-3.8,1.3
				c-1.1,0.6-2.2,1.5-2.9,2.6c-0.8,1.1-1.3,2.3-1.3,3.7c0,0.7,0.1,1.3,0.3,1.9c0.2,0.6,0.5,1.2,0.9,1.8c0.8,1.2,2,2.1,3.2,2.9
				c1.2,0.8,2.6,1.5,4,2.2c-2.9-0.9-5.9-1.9-8.2-4.3c-0.6-0.6-1-1.3-1.4-2.1c-0.3-0.8-0.6-1.6-0.6-2.5c-0.1-1.8,0.4-3.5,1.2-5
				c0.9-1.5,2-2.8,3.5-3.8c1.4-1,3-1.6,4.6-2c3.2-0.8,6.5-0.8,9.6-0.7c6.3,0.2,12.5,1.3,18.5,3.2c1.5,0.5,3,1,4.4,1.6
				c1.5,0.6,2.9,1.2,4.4,2c1.5,0.8,3,1.8,4.3,3.1c1.3,1.3,2.4,2.9,3.1,4.6c1.4,3.4,1.6,7,0.9,10.4c-0.7,3.4-2.3,6.5-4.3,9.2
				c-2,2.6-4.3,4.9-6.8,6.9c-2.4,2-5,3.8-7.7,5.5c-5.3,3.3-11.3,5.8-17.6,6.7C341.1,106.2,334.6,105.6,329,103z"/>
		</g>
		<g>
			<path class="st15" d="M350.2,78.8c-0.1,1.2-0.5,2.3-1.1,3.4c-0.6,1.1-1.3,2.1-2.2,2.9c-1.8,1.7-4,3-6.3,3.9
				c-2.3,0.9-4.7,1.4-7.1,1.6c-2.4,0.2-4.9,0.1-7.4-0.4c-2.5-0.5-5-1.5-7.1-3.2c-2.1-1.7-3.7-4.3-4.3-6.7c-0.7-2.4-0.8-4.6-1.4-6.6
				c-0.6-1.9-1.7-3.9-3.9-4.8c1.2-0.1,2.4,0.3,3.5,1c1,0.7,1.9,1.7,2.6,2.7c1.4,2.2,2,4.5,2.9,6.3c0.9,1.9,1.9,3.2,3.5,4.2
				c1.5,1,3.3,1.7,5.3,2.1c3.9,0.8,8.3,0.8,12.4-0.1C343.6,84.4,347.7,82.7,350.2,78.8z"/>
		</g>
		<g>
			<path class="st15" d="M249.6,113.9c4.1,0.6,8,0.8,11.8,0.6c3.8-0.2,7.5-0.9,11-2c3.5-1.1,7.4-2.9,11.9-3.2
				c2.2-0.1,4.7,0.2,6.7,1.6c1,0.7,1.7,1.7,2.2,2.8c0.4,1.1,0.5,2.3,0.1,3.2c-0.3-2.1-1.9-3.3-3.4-3.8c-1.6-0.5-3.3-0.3-5,0.1
				c-3.5,0.9-6.9,2.7-11,4c-4.1,1.3-8.5,1.7-12.7,1.1C257,117.8,252.9,116.4,249.6,113.9z"/>
		</g>
		<g>
			<path class="st15" d="M204.1,105.6c1.6,1.5,3,3.4,3.7,5.6c0.8,2.2,1.1,4.5,1.1,6.8c0,2.3-0.5,4.6-1.2,6.9
				c-0.7,2.2-1.9,4.3-3.1,6.2c-2.5,3.9-5.6,7.2-8.7,10.4c-3.1,3.1-6.4,6.3-10.5,8.7c-2,1.2-4.3,2.2-6.7,2.8
				c-2.4,0.6-4.8,0.7-7.1,0.7c-2.3,0-4.5-0.2-6.5-0.2c-2.1,0-4.1,0.1-6.2,0.4c-8.3,1.2-16.3,4.9-22.9,10.7
				c5.1-7.2,13.2-12.5,22.2-14.6c2.2-0.5,4.5-0.8,6.8-1c2.3-0.1,4.5-0.1,6.6-0.1c2.1-0.1,4.1-0.2,5.9-0.7c1.9-0.5,3.6-1.3,5.4-2.3
				c3.5-2,6.6-4.9,9.8-7.8c3.2-2.9,6.3-5.9,8.8-9.2c2.5-3.3,4.5-7,5.1-11.1C207.2,113.7,206.6,109.3,204.1,105.6z"/>
		</g>
		<g>
			<path class="st15" d="M129.4,178.9c0.2,7.1,1.6,13.8,4.2,20c2.6,6.2,6.4,11.8,11.1,16.3c2.3,2.3,5.1,4.4,7.8,6.8
				c2.7,2.4,5.3,5.3,7,8.7c1.8,3.3,2.7,6.9,3.2,10.5c0.4,3.6,0.3,7.2-0.3,10.7c-0.5-3.5-1.1-6.9-2.1-10.2c-1-3.3-2.3-6.3-4.1-9
				c-1.8-2.7-4.1-4.9-6.7-7c-2.6-2.1-5.5-4.2-8.2-6.8c-5.4-5.1-9.3-11.6-11.4-18.6C127.8,193.2,127.4,185.7,129.4,178.9z"/>
		</g>
		<g>
			<path class="st15" d="M160.2,268c0.5,1,0.8,2.3,0.8,3.5c0,1.2-0.3,2.5-0.8,3.6c-0.9,2.4-2.7,4.4-4.6,5.9c-2,1.5-4.2,2.6-6.3,3.5
				c-2.1,0.9-4.3,1.7-6.5,2.4c-4.4,1.4-9.1,2.3-13.8,2.4c-4.7,0.1-9.5-0.7-13.7-2.7c4.6,0,9-0.4,13.3-1.2c4.3-0.8,8.5-2,12.7-3.3
				c2.1-0.6,4.2-1.4,6.3-2.1c2.1-0.7,4.1-1.4,5.9-2.4c1.8-1,3.4-2.1,4.7-3.8C159.4,272.3,160.2,270.3,160.2,268z"/>
		</g>
		<g>
			<path class="st15" d="M120,308c2.4,2.2,5.3,3.6,8.2,4.5c3,1,6.1,1.4,9.2,1.9c3.1,0.4,6.4,0.8,9.7,1.5c3.3,0.7,6.6,1.8,9.7,3.7
				c1.5,0.9,3,2.1,4.3,3.5c1.2,1.4,2.3,2.9,3.1,4.4c1.7,3,2.8,6.1,4.2,8.9c0.3,0.7,0.7,1.4,1,2c0.4,0.6,0.8,1.2,1.2,1.8
				c0.9,1.2,1.9,2.3,3.1,3.2c2.3,1.9,5.3,3,8.5,2.1c-1.3,1-3.1,1.5-4.8,1.4c-1.8,0-3.5-0.6-5-1.4c-1.6-0.8-3-1.9-4.2-3.1
				c-0.6-0.6-1.2-1.3-1.8-2c-0.5-0.7-1-1.4-1.4-2.1c-1.8-2.9-3.2-5.8-4.8-8.3c-1.6-2.5-3.5-4.5-5.9-6c-2.4-1.5-5.3-2.5-8.2-3.3
				c-3-0.8-6.1-1.4-9.3-2.2c-3.2-0.8-6.4-1.9-9.4-3.5C124.4,313.2,121.6,310.9,120,308z"/>
		</g>
		<g>
			<path class="st15" d="M195.4,346c4.8,1.6,9.3,4.1,13.4,7.1c1,0.7,2.1,1.5,3.2,2.9c0.5,0.7,0.9,1.7,1.1,2.5
				c0.2,0.8,0.2,1.6,0.3,2.2c0.2,2.5,0.3,5,0.1,7.6c-0.1,1.3-0.2,2.6-0.4,3.9c-0.2,1.3-0.5,2.5-0.7,3.7c-0.2,1.2-0.4,2.2-0.4,3.3
				c0,1.1,0.1,2.1,0.3,3.2c0.9,4.3,3.4,8.5,7.6,11.3c-1.3-0.2-2.5-0.6-3.7-1.2c-1.2-0.6-2.2-1.4-3.3-2.3c-2-1.8-3.6-4.1-4.5-6.7
				c-0.5-1.3-0.8-2.7-0.9-4.1c-0.1-1.4,0-2.8,0.1-4.1c0.3-2.6,0.7-4.8,0.8-7.1c0.1-2.4,0.1-4.8,0.1-7.3c0-0.6,0-1.1,0-1.5
				c-0.1-0.4-0.1-0.6-0.3-0.9c-0.3-0.6-1.2-1.5-2-2.3C202.9,352.6,199.2,349.4,195.4,346z"/>
		</g>
		<g>
			<path class="st15" d="M235.6,404.3c2.3,2.3,4,5.4,4.7,8.7c0.7,3.3,0.7,6.9-0.2,10.3c-0.9,3.4-2.6,6.6-5.3,9.2
				c-2.6,2.6-5.8,4.3-8.9,5.5c-6.4,2.4-12.8,3.1-18.5,5.1c-2.9,1-6.1,2.3-9.5,2.7c-1.7,0.2-3.5,0.1-5.1-0.4
				c-1.6-0.4-3.2-1.3-4.3-2.5c2.9,1.5,6.1,1.3,9,0.4c2.9-0.9,5.5-2.5,8.5-3.9c6.1-2.9,12.6-4,18.2-6.2c1.4-0.5,2.8-1.1,4-1.9
				c1.3-0.7,2.5-1.5,3.5-2.5c1.1-0.9,1.9-2,2.8-3.1c0.4-0.6,0.8-1.2,1.1-1.8l0.5-1l0.4-1C238.6,416.6,238.6,410.1,235.6,404.3z"/>
		</g>
		<g>
			<path class="st15" d="M114.5,409.4c1.2,7.9,5.8,14.5,11.8,19c5.9,4.5,13.3,6.6,20.8,6.7c3.7,0.1,7.5-0.3,11.2-1.1
				c1.9-0.4,3.7-0.9,5.5-1.4c1.9-0.6,3.8-1.2,5.8-1.7c2-0.5,4.3-0.7,6.4-0.6c2.1,0.1,4,0.4,5.9,0.6c1.9,0.2,3.7,0.1,5.5-0.5
				c1.8-0.5,3.5-1.6,4.5-3.3c-0.2,1-0.8,1.9-1.4,2.7c-0.7,0.8-1.6,1.4-2.5,1.9c-1.8,1-4,1.5-6.1,1.6c-2.1,0.2-4.1,0.1-5.9,0.3
				c-1.9,0.1-3.6,0.5-5.3,1.1c-1.8,0.6-3.5,1.3-5.4,2.1c-1.9,0.7-3.9,1.4-5.9,1.9c-4,1-8.2,1.5-12.4,1.5c-2.1,0-4.2-0.3-6.3-0.6
				c-2.1-0.4-4.1-0.9-6.1-1.6c-2-0.7-3.9-1.6-5.7-2.7c-1.8-1.1-3.5-2.4-5.1-3.8c-1.5-1.4-2.9-3-4.2-4.7c-1.2-1.7-2.3-3.5-3.1-5.4
				c-0.8-1.9-1.4-3.9-1.8-5.9C114.4,413.4,114.3,411.3,114.5,409.4z"/>
		</g>
		<g>
			<path class="st15" d="M208.1,419.5c1.1-0.9,1.5-2.2,1.5-3.4c0-1.2-0.4-2.3-1.1-3.2c-1.3-1.9-3.5-3.2-5.7-4.6
				c-2.2-1.3-4.5-2.5-6.9-3.4c-2.4-0.9-4.9-1.8-7.5-2.7c-2.6-1-5.2-2.1-7.7-3.7c-2.5-1.6-4.7-3.8-6.3-6.1c-3.4-4.7-5.1-10-6.4-15.3
				c3.2,4.5,5.9,9.2,9.4,12.8c1.7,1.8,3.6,3.4,5.8,4.6c2.1,1.2,4.5,2.2,7,3.1c2.5,0.9,5.1,1.8,7.6,3.1c2.6,1.2,5,2.7,7.2,4.5
				c1.1,0.9,2.1,1.8,3.2,2.9c1,1.1,1.9,2.3,2.5,3.8c0.6,1.4,0.7,3.2,0.3,4.6c-0.2,0.7-0.6,1.4-1.1,2
				C209.3,418.9,208.7,419.4,208.1,419.5z"/>
		</g>
		<g>
			<path class="st15" d="M188.5,382.4c1.7-3.3,1-7-0.8-9.7c-1.8-2.7-4.7-4.6-7.7-5.9c-6.2-2.7-13.4-3.4-20.5-6.1
				c-1.8-0.7-3.6-1.5-5.2-2.5c-1.7-1-3.3-2.2-4.7-3.5c-2.9-2.6-5.2-5.4-7.5-8.2c-2.3-2.8-4.5-5.5-7.1-7.8c-2.6-2.4-5.6-4.2-9.1-5.3
				c3.7-0.1,7.4,1.3,10.5,3.3c3.2,2,6,4.5,8.5,7.1c2.6,2.6,5,5.1,7.6,7.2c2.6,2.1,5.4,3.7,8.6,4.9c3.2,1.2,6.6,2.1,10.1,3.1
				c3.5,1,7.1,2.3,10.4,4.1c3.3,1.9,6.5,4.6,8.1,8.3c0.8,1.9,1.1,3.8,0.9,5.8C190.5,379.2,189.8,381.1,188.5,382.4z"/>
		</g>
		<g>
			<path class="st15" d="M114.8,342c0.6,3.1,1.9,5.7,3.7,7.9c1.8,2.2,4,4.1,6.4,5.8c4.7,3.2,10.4,5.5,15.8,8.9
				c1.3,0.9,2.7,1.8,3.9,2.8c0.6,0.5,1.2,1.1,1.8,1.6c0.6,0.6,1.2,1.2,1.7,1.8c2.2,2.5,3.9,5.3,5.1,8.3c2.5,6,3,12.7,1.1,18.6
				c-0.2-6.2-1.8-11.9-4.7-16.9c-1.4-2.5-3.1-4.8-5.1-6.8c-2-2-4.2-3.7-6.7-5.3c-4.9-3.1-10.6-5.8-15.5-10c-2.4-2.1-4.5-4.7-6-7.5
				C115.1,348.4,114.3,345.1,114.8,342z"/>
		</g>
		<g>
			<path class="st15" d="M181.9,412.9c-2.6,2.2-5.6,3.8-8.8,5.2c-3.2,1.3-6.6,2.2-10,2.7c-3.5,0.5-7,0.5-10.5,0.2
				c-3.5-0.4-7-1.1-10.5-2.9c-1.7-0.9-3.3-2.1-4.6-3.6c-1.3-1.5-2.3-3.2-3-4.9c-1.4-3.5-1.9-6.9-2.4-10.2c-0.2-1.7-0.4-3.2-0.8-4.8
				c-0.3-1.6-0.7-3.1-1.3-4.6c-1.1-3-2.9-5.7-6-7.3c1.7,0.3,3.3,1.1,4.7,2.2c1.4,1.1,2.5,2.5,3.5,4c0.9,1.5,1.7,3.1,2.3,4.8
				c0.6,1.6,1.1,3.4,1.5,5c0.8,3.2,1.6,6.4,2.9,9.1c1.3,2.7,3,4.7,5.6,6.1c2.5,1.4,5.6,2.1,8.7,2.6c3.1,0.5,6.3,0.7,9.5,0.6
				C169.2,416.8,175.6,415.4,181.9,412.9z"/>
		</g>
		<g>
			<path class="st15" d="M119.3,220.8c3.6,2.1,7.2,3.7,11,5.5c3.7,1.8,7.5,3.6,10.9,6.2c1.7,1.3,3.4,2.7,4.8,4.4
				c1.5,1.6,2.8,3.5,3.8,5.6c0.5,1,0.9,2.1,1.2,3.2c0.3,1.1,0.5,2.3,0.6,3.5c0.2,2.4-0.1,4.7-0.7,6.9c-1.4,4.4-4.1,8.4-7.9,11.1
				c-1.9,1.3-4,2.4-6.3,2.9c-2.3,0.6-4.5,0.6-6.6,0.6c-2.1,0-4-0.1-5.9,0.1c-1.9,0.2-3.7,0.7-5.5,1.4c-3.6,1.4-6.9,3.9-9.5,7
				c1.7-3.8,4.7-7,8.4-9.2c1.9-1.1,3.9-1.9,6.1-2.4c2.2-0.5,4.3-0.6,6.3-0.8c2-0.2,3.9-0.4,5.5-0.9c1.7-0.6,3.2-1.4,4.6-2.5
				c1.4-1.1,2.6-2.4,3.6-3.9c1-1.5,1.8-3.1,2.3-4.8c0.5-1.7,0.7-3.5,0.6-5.2c0-0.9-0.2-1.7-0.4-2.6c-0.2-0.9-0.5-1.7-0.9-2.5
				c-1.4-3.3-3.9-6.3-6.8-8.9C132.9,230.3,125.2,226.7,119.3,220.8z"/>
		</g>
		<g>
			<path class="st15" d="M132.7,245.4c-4.3,0.9-9,0.1-13.1-1.7c-4.2-1.9-7.9-4.9-10.6-8.7c-2.7-3.8-4.3-8.4-4.9-13.1
				c-0.5-4.7,0-9.4,1.5-13.9c1.5-4.5,4.1-8.3,6.2-12c0.5-0.9,1-1.8,1.5-2.7c0.5-0.9,0.8-1.9,1.2-2.8c0.7-1.9,1.3-3.9,1.8-5.9
				c1.8-8.2,1.4-16.9,1.4-25.7c1.1,4.3,1.9,8.6,2.4,12.9c0.2,2.2,0.4,4.4,0.4,6.6c0,2.2-0.1,4.5-0.4,6.7c-0.3,2.3-0.8,4.5-1.5,6.7
				c-0.4,1.1-0.8,2.2-1.2,3.2c-0.5,1.1-1,2.1-1.5,3.1c-2.1,4-4.4,7.5-5.6,11.3c-2.6,7.5-2.1,16.3,1.9,23.2
				C116.3,239.8,123.9,245,132.7,245.4z"/>
		</g>
		<g>
			<path class="st15" d="M123,144.6c-0.3-1.6-0.2-3.4,0.1-5.1c0.4-1.7,1.1-3.3,2-4.8c1.9-3,4.5-5.4,7.5-7.3c3-1.9,6.4-3.1,9.7-3.9
				c3.3-0.8,6.7-1.2,9.9-1.6c1.6-0.2,3.2-0.4,4.8-0.6c1.6-0.2,3.2-0.4,4.7-0.7c3.1-0.6,6.1-1.4,9-2.6c5.8-2.3,11.3-5.8,16.2-10.3
				c-3.3,5.8-8.4,10.6-14.5,13.9c-3,1.7-6.3,2.9-9.6,3.7c-3.3,0.8-6.7,1.2-9.9,1.6c-6.5,0.8-12.8,1.3-18.3,4c-1.4,0.7-2.7,1.4-4,2.3
				c-1.3,0.9-2.5,1.9-3.5,3c-1,1.1-2,2.4-2.7,3.8C123.7,141.4,123.2,142.9,123,144.6z"/>
		</g>
		<g>
			<path class="st15" d="M154.7,144.4c-0.2-0.1-0.3-0.4-0.2-0.7c0-0.3,0.2-0.5,0.4-0.7c0.3-0.4,0.8-0.7,1.3-0.9
				c0.8-0.4,1.6-0.6,2.4-0.9c1.6-0.6,3.2-1.1,4.8-1.6c3.2-1,6.3-1.9,9.2-3.1c2.9-1.2,5.6-2.6,8.1-4.5c2.5-1.9,4.6-4.2,6.4-7.3
				c0.3,3.6-1.2,7.3-3.6,10.1c-2.4,2.9-5.6,5-9,6.4c-3.4,1.4-6.9,2-10.4,2.3c-1.7,0.1-3.5,0.2-5.2,0.1c-0.9,0-1.7,0-2.6-0.1
				c-0.3,0-0.7,0-1.1,0.1C155,143.7,154.6,143.9,154.7,144.4z"/>
		</g>
		<g>
			<path class="st15" d="M106.9,101.3c2.4,2.2,4.2,5.1,5.4,8.1c1.2,3.1,1.9,6.3,2.2,9.6c0.3,3.2,0.1,6.5-0.3,9.6
				c-0.5,3.2-1.2,6.3-2.5,9.3c-0.8-3.2-1.2-6.3-1.5-9.4c-0.3-3.1-0.5-6.1-0.7-9.1c-0.3-3-0.6-5.9-1-8.9
				C108.2,107.5,107.5,104.5,106.9,101.3z"/>
		</g>
	</g>
</g>
</svg>
